<?xml version="1.0" encoding="UTF-8" standalone="no"?>
<!DOCTYPE svg PUBLIC "-//W3C//DTD SVG 1.1//EN"
 "http://www.w3.org/Graphics/SVG/1.1/DTD/svg11.dtd">
<!-- Generated by graphviz version 2.43.0 (0)
 -->
<!-- Title: AStarAlgorithm Pages: 1 -->
<svg width="1229pt" height="681pt"
 viewBox="0.00 0.00 1229.00 681.43" xmlns="http://www.w3.org/2000/svg" xmlns:xlink="http://www.w3.org/1999/xlink">
<g id="graph0" class="graph" transform="scale(1 1) rotate(0) translate(4 677.43)">
<title>AStarAlgorithm</title>
<polygon fill="white" stroke="transparent" points="-4,4 -4,-677.43 1225,-677.43 1225,4 -4,4"/>
<text text-anchor="middle" x="610.5" y="-656.63" font-family="Arial, Helvetica, sans-serif" font-size="16.00">A* Global Navigation Architecture</text>
<g id="clust1" class="cluster">
<title>cluster_arch</title>
<polygon fill="none" stroke="#888888" stroke-dasharray="5,2" points="152,-8 152,-558 626,-558 626,-8 152,-8"/>
<text text-anchor="middle" x="389" y="-541.2" font-family="Arial, Helvetica, sans-serif" font-size="16.00">Cấu trúc Modules</text>
</g>
<g id="clust2" class="cluster">
<title>cluster_logic</title>
<polygon fill="none" stroke="#888888" points="851,-10.5 851,-403 1213,-403 1213,-10.5 851,-10.5"/>
<text text-anchor="middle" x="1032" y="-386.2" font-family="Arial, Helvetica, sans-serif" font-size="16.00">Luồng kiểm tra (compute loop)</text>
</g>
<!-- AStarGlobalPlanner -->
<g id="node1" class="node">
<title>AStarGlobalPlanner</title>
<path fill="#e0eaf5" stroke="#333333" d="M486,-460.5C486,-460.5 606,-460.5 606,-460.5 612,-460.5 618,-466.5 618,-472.5 618,-472.5 618,-511.5 618,-511.5 618,-517.5 612,-523.5 606,-523.5 606,-523.5 486,-523.5 486,-523.5 480,-523.5 474,-517.5 474,-511.5 474,-511.5 474,-472.5 474,-472.5 474,-466.5 480,-460.5 486,-460.5"/>
<text text-anchor="middle" x="546" y="-511.5" font-family="Arial, Helvetica, sans-serif" font-size="10.00">AStarGlobalPlanner</text>
<text text-anchor="middle" x="546" y="-500.5" font-family="Arial, Helvetica, sans-serif" font-size="10.00">(Coordinator)</text>
<text text-anchor="middle" x="546" y="-489.5" font-family="Arial, Helvetica, sans-serif" font-size="10.00">&#45; updateMap(grid)</text>
<text text-anchor="middle" x="546" y="-478.5" font-family="Arial, Helvetica, sans-serif" font-size="10.00">&#45; setGoal()</text>
<text text-anchor="middle" x="546" y="-467.5" font-family="Arial, Helvetica, sans-serif" font-size="10.00">&#45; compute(x, y, θ) → Path</text>
</g>
<!-- AStarMap -->
<g id="node2" class="node">
<title>AStarMap</title>
<polygon fill="#fff3cd" stroke="#333333" points="312,-343 160,-343 160,-291 312,-291 312,-343"/>
<text text-anchor="middle" x="236" y="-331" font-family="Arial, Helvetica, sans-serif" font-size="10.00">AStarMap</text>
<text text-anchor="middle" x="236" y="-320" font-family="Arial, Helvetica, sans-serif" font-size="10.00">&#45; Tra cứu mảng 1D</text>
<text text-anchor="middle" x="236" y="-309" font-family="Arial, Helvetica, sans-serif" font-size="10.00">&#45; Bơm phồng vật cản (Inflation)</text>
<text text-anchor="middle" x="236" y="-298" font-family="Arial, Helvetica, sans-serif" font-size="10.00">&#45; Ép hệ mét (WorldToGrid)</text>
</g>
<!-- AStarGlobalPlanner&#45;&gt;AStarMap -->
<g id="edge1" class="edge">
<title>AStarGlobalPlanner&#45;&gt;AStarMap</title>
<path fill="none" stroke="#666666" d="M477.6,-460.3C477.6,-415.48 477.6,-339 477.6,-339 477.6,-339 322.11,-339 322.11,-339"/>
<polygon fill="#666666" stroke="#666666" points="322.11,-335.5 312.11,-339 322.11,-342.5 322.11,-335.5"/>
<text text-anchor="middle" x="329" y="-418.8" font-family="Arial, Helvetica, sans-serif" font-size="9.00">Quản lý Map</text>
</g>
<!-- AStarPlanner -->
<g id="node3" class="node">
<title>AStarPlanner</title>
<polygon fill="#d4edda" stroke="#333333" points="350,-187 206,-187 206,-135 350,-135 350,-187"/>
<text text-anchor="middle" x="278" y="-175" font-family="Arial, Helvetica, sans-serif" font-size="10.00">AStarPlanner</text>
<text text-anchor="middle" x="278" y="-164" font-family="Arial, Helvetica, sans-serif" font-size="10.00">&#45; Lõi A* (Min&#45;heap node)</text>
<text text-anchor="middle" x="278" y="-153" font-family="Arial, Helvetica, sans-serif" font-size="10.00">&#45; Heuristic: F = G + H</text>
<text text-anchor="middle" x="278" y="-142" font-family="Arial, Helvetica, sans-serif" font-size="10.00">&#45; Node kề (8&#45;connectivity)</text>
</g>
<!-- AStarGlobalPlanner&#45;&gt;AStarPlanner -->
<g id="edge2" class="edge">
<title>AStarGlobalPlanner&#45;&gt;AStarPlanner</title>
<path fill="none" stroke="#666666" d="M481.2,-460.38C481.2,-381.63 481.2,-183 481.2,-183 481.2,-183 360.21,-183 360.21,-183"/>
<polygon fill="#666666" stroke="#666666" points="360.21,-179.5 350.21,-183 360.21,-186.5 360.21,-179.5"/>
<text text-anchor="middle" x="463" y="-314.8" font-family="Arial, Helvetica, sans-serif" font-size="9.00">Gọi thuật toán lõi</text>
</g>
<!-- PathSimplifier -->
<g id="node4" class="node">
<title>PathSimplifier</title>
<polygon fill="#f8d7da" stroke="#333333" points="492,-57 326,-57 326,-16 492,-16 492,-57"/>
<text text-anchor="middle" x="409" y="-45" font-family="Arial, Helvetica, sans-serif" font-size="10.00">PathSimplifier</text>
<text text-anchor="middle" x="409" y="-34" font-family="Arial, Helvetica, sans-serif" font-size="10.00">&#45; Lọc điểm thừa (Cross&#45;Product)</text>
<text text-anchor="middle" x="409" y="-23" font-family="Arial, Helvetica, sans-serif" font-size="10.00">&#45; Cắt tỉa góc tù (Douglas&#45;Peucker)</text>
</g>
<!-- AStarGlobalPlanner&#45;&gt;PathSimplifier -->
<g id="edge3" class="edge">
<title>AStarGlobalPlanner&#45;&gt;PathSimplifier</title>
<path fill="none" stroke="#666666" d="M484.8,-460.33C484.8,-460.33 484.8,-67.17 484.8,-67.17"/>
<polygon fill="#666666" stroke="#666666" points="488.3,-67.17 484.8,-57.17 481.3,-67.17 488.3,-67.17"/>
<text text-anchor="middle" x="441" y="-223.8" font-family="Arial, Helvetica, sans-serif" font-size="9.00">Làm mượt Path</text>
</g>
<!-- DWA -->
<g id="node7" class="node">
<title>DWA</title>
<polygon fill="#cce5ff" stroke="#333333" points="820,-335 680,-335 676,-331 676,-299 816,-299 820,-303 820,-335"/>
<polyline fill="none" stroke="#333333" points="816,-331 676,-331 "/>
<polyline fill="none" stroke="#333333" points="816,-331 816,-299 "/>
<polyline fill="none" stroke="#333333" points="816,-331 820,-335 "/>
<text text-anchor="middle" x="748" y="-320" font-family="Arial, Helvetica, sans-serif" font-size="10.00">DWA Local Planner</text>
<text text-anchor="middle" x="748" y="-309" font-family="Arial, Helvetica, sans-serif" font-size="10.00">(Nhận Global Path)</text>
</g>
<!-- AStarGlobalPlanner&#45;&gt;DWA -->
<g id="edge9" class="edge">
<title>AStarGlobalPlanner&#45;&gt;DWA</title>
<path fill="none" stroke="#666666" d="M534,-460.31C534,-409.88 534,-317 534,-317 534,-317 665.85,-317 665.85,-317"/>
<polygon fill="#666666" stroke="#666666" points="665.85,-320.5 675.85,-317 665.85,-313.5 665.85,-320.5"/>
<text text-anchor="middle" x="787.5" y="-423.8" font-family="Arial, Helvetica, sans-serif" font-size="9.00">vector&lt;waypoint&gt;</text>
<text text-anchor="middle" x="787.5" y="-413.8" font-family="Arial, Helvetica, sans-serif" font-size="9.00">(Đã hút lookahead)</text>
</g>
<!-- CheckReplan -->
<g id="node8" class="node">
<title>CheckReplan</title>
<polygon fill="#ffeeba" stroke="#333333" points="1006,-369 878,-317 1006,-265 1134,-317 1006,-369"/>
<text text-anchor="middle" x="1006" y="-331" font-family="Arial, Helvetica, sans-serif" font-size="10.00">Kiểm tra cần Replan?</text>
<text text-anchor="middle" x="1006" y="-320" font-family="Arial, Helvetica, sans-serif" font-size="10.00">&#45; Mới nhận Goal mới</text>
<text text-anchor="middle" x="1006" y="-309" font-family="Arial, Helvetica, sans-serif" font-size="10.00">&#45; Đến hạn Replan Interval</text>
<text text-anchor="middle" x="1006" y="-298" font-family="Arial, Helvetica, sans-serif" font-size="10.00">&#45; Mất Path hiện tại</text>
</g>
<!-- AStarGlobalPlanner&#45;&gt;CheckReplan -->
<g id="edge14" class="edge">
<title>AStarGlobalPlanner&#45;&gt;CheckReplan</title>
<path fill="none" stroke="#666666" stroke-dasharray="1,5" d="M576,-460.46C576,-420.28 576,-356 576,-356 576,-356 963.68,-356 963.68,-356"/>
<polygon fill="#666666" stroke="#666666" points="963.68,-359.5 973.68,-356 963.68,-352.5 963.68,-359.5"/>
</g>
<!-- AStarMap&#45;&gt;AStarPlanner -->
<g id="edge6" class="edge">
<title>AStarMap&#45;&gt;AStarPlanner</title>
<path fill="none" stroke="#666666" d="M259,-290.89C259,-290.89 259,-197.2 259,-197.2"/>
<polygon fill="#666666" stroke="#666666" points="262.5,-197.2 259,-187.2 255.5,-197.2 262.5,-197.2"/>
<text text-anchor="middle" x="276.5" y="-228.8" font-family="Arial, Helvetica, sans-serif" font-size="9.00">Truy xuất</text>
<text text-anchor="middle" x="276.5" y="-218.8" font-family="Arial, Helvetica, sans-serif" font-size="9.00">Cost(x, y)</text>
</g>
<!-- AStarPlanner&#45;&gt;PathSimplifier -->
<g id="edge7" class="edge">
<title>AStarPlanner&#45;&gt;PathSimplifier</title>
<path fill="none" stroke="#666666" d="M338,-134.9C338,-134.9 338,-67.21 338,-67.21"/>
<polygon fill="#666666" stroke="#666666" points="341.5,-67.21 338,-57.21 334.5,-67.21 341.5,-67.21"/>
<text text-anchor="middle" x="340.5" y="-98.8" font-family="Arial, Helvetica, sans-serif" font-size="9.00">AStarPath (Raw)</text>
<text text-anchor="middle" x="340.5" y="-88.8" font-family="Arial, Helvetica, sans-serif" font-size="9.00">vector&lt;Node&gt;</text>
</g>
<!-- PathSimplifier&#45;&gt;AStarGlobalPlanner -->
<g id="edge8" class="edge">
<title>PathSimplifier&#45;&gt;AStarGlobalPlanner</title>
<path fill="none" stroke="#666666" d="M488.4,-57.26C488.4,-57.26 488.4,-450.46 488.4,-450.46"/>
<polygon fill="#666666" stroke="#666666" points="484.9,-450.46 488.4,-460.46 491.9,-450.46 484.9,-450.46"/>
<text text-anchor="middle" x="577" y="-223.8" font-family="Arial, Helvetica, sans-serif" font-size="9.00">AStarPath (Smooth)</text>
</g>
<!-- SLAM -->
<g id="node5" class="node">
<title>SLAM</title>
<path fill="#eeeeee" stroke="#333333" d="M144,-508.98C144,-511.06 111.73,-512.75 72,-512.75 32.27,-512.75 0,-511.06 0,-508.98 0,-508.98 0,-475.02 0,-475.02 0,-472.94 32.27,-471.25 72,-471.25 111.73,-471.25 144,-472.94 144,-475.02 144,-475.02 144,-508.98 144,-508.98"/>
<path fill="none" stroke="#333333" d="M144,-508.98C144,-506.9 111.73,-505.21 72,-505.21 32.27,-505.21 0,-506.9 0,-508.98"/>
<text text-anchor="middle" x="72" y="-495" font-family="Arial, Helvetica, sans-serif" font-size="10.00">SLAM / OccupancyGrid</text>
<text text-anchor="middle" x="72" y="-484" font-family="Arial, Helvetica, sans-serif" font-size="10.00">(Bản đồ thế giới)</text>
</g>
<!-- SLAM&#45;&gt;AStarMap -->
<g id="edge4" class="edge">
<title>SLAM&#45;&gt;AStarMap</title>
<path fill="none" stroke="#666666" d="M144.41,-492C188.34,-492 236,-492 236,-492 236,-492 236,-353.2 236,-353.2"/>
<polygon fill="#666666" stroke="#666666" points="239.5,-353.2 236,-343.2 232.5,-353.2 239.5,-353.2"/>
<text text-anchor="middle" x="118.5" y="-418.8" font-family="Arial, Helvetica, sans-serif" font-size="9.00">Occupancy Grid Matrix</text>
</g>
<!-- GoalSource -->
<g id="node6" class="node">
<title>GoalSource</title>
<ellipse fill="#cce5ff" stroke="#333333" cx="546" cy="-626.21" rx="72" ry="21.43"/>
<text text-anchor="middle" x="546" y="-629.21" font-family="Arial, Helvetica, sans-serif" font-size="10.00">Frontier / User</text>
<text text-anchor="middle" x="546" y="-618.21" font-family="Arial, Helvetica, sans-serif" font-size="10.00">(Tọa độ Goal X, Y)</text>
</g>
<!-- GoalSource&#45;&gt;AStarGlobalPlanner -->
<g id="edge5" class="edge">
<title>GoalSource&#45;&gt;AStarGlobalPlanner</title>
<path fill="none" stroke="#666666" d="M546,-604.95C546,-604.95 546,-533.66 546,-533.66"/>
<polygon fill="#666666" stroke="#666666" points="549.5,-533.66 546,-523.66 542.5,-533.66 549.5,-533.66"/>
<text text-anchor="middle" x="572" y="-568.8" font-family="Arial, Helvetica, sans-serif" font-size="9.00">setGoal(x, y)</text>
</g>
<!-- RunAstar -->
<g id="node9" class="node">
<title>RunAstar</title>
<polygon fill="#f9f9f9" stroke="#333333" points="1003,-179 859,-179 859,-143 1003,-143 1003,-179"/>
<text text-anchor="middle" x="931" y="-158.5" font-family="Arial, Helvetica, sans-serif" font-size="10.00">runAstar(start, goal)</text>
</g>
<!-- CheckReplan&#45;&gt;RunAstar -->
<g id="edge10" class="edge">
<title>CheckReplan&#45;&gt;RunAstar</title>
<path fill="none" stroke="#666666" d="M940.5,-291.59C940.5,-291.59 940.5,-189.09 940.5,-189.09"/>
<polygon fill="#666666" stroke="#666666" points="944,-189.09 940.5,-179.09 937,-189.09 944,-189.09"/>
<text text-anchor="middle" x="944.5" y="-223.8" font-family="Arial, Helvetica, sans-serif" font-size="9.00">YES</text>
</g>
<!-- KeepPath -->
<g id="node10" class="node">
<title>KeepPath</title>
<polygon fill="#f9f9f9" stroke="#333333" points="1205,-179 1061,-179 1061,-143 1205,-143 1205,-179"/>
<text text-anchor="middle" x="1133" y="-158.5" font-family="Arial, Helvetica, sans-serif" font-size="10.00">Giữ Path cũ</text>
</g>
<!-- CheckReplan&#45;&gt;KeepPath -->
<g id="edge11" class="edge">
<title>CheckReplan&#45;&gt;KeepPath</title>
<path fill="none" stroke="#666666" d="M1097.5,-302.04C1097.5,-302.04 1097.5,-189 1097.5,-189"/>
<polygon fill="#666666" stroke="#666666" points="1101,-189 1097.5,-179 1094,-189 1101,-189"/>
<text text-anchor="middle" x="1032" y="-223.8" font-family="Arial, Helvetica, sans-serif" font-size="9.00">NO</text>
</g>
<!-- CheckGoal -->
<g id="node11" class="node">
<title>CheckGoal</title>
<polygon fill="#f9f9f9" stroke="#333333" points="1104,-54.5 960,-54.5 960,-18.5 1104,-18.5 1104,-54.5"/>
<text text-anchor="middle" x="1032" y="-39.5" font-family="Arial, Helvetica, sans-serif" font-size="10.00">Kiểm tra đến đích?</text>
<text text-anchor="middle" x="1032" y="-28.5" font-family="Arial, Helvetica, sans-serif" font-size="10.00">(dist &lt; goal_tolerance)</text>
</g>
<!-- RunAstar&#45;&gt;CheckGoal -->
<g id="edge12" class="edge">
<title>RunAstar&#45;&gt;CheckGoal</title>
<path fill="none" stroke="#666666" d="M981.5,-142.9C981.5,-142.9 981.5,-64.63 981.5,-64.63"/>
<polygon fill="#666666" stroke="#666666" points="985,-64.63 981.5,-54.63 978,-64.63 985,-64.63"/>
</g>
<!-- KeepPath&#45;&gt;CheckGoal -->
<g id="edge13" class="edge">
<title>KeepPath&#45;&gt;CheckGoal</title>
<path fill="none" stroke="#666666" d="M1082.5,-142.9C1082.5,-142.9 1082.5,-64.63 1082.5,-64.63"/>
<polygon fill="#666666" stroke="#666666" points="1086,-64.63 1082.5,-54.63 1079,-64.63 1086,-64.63"/>
</g>
</g>
</svg>
