<?xml version="1.0" encoding="UTF-8" standalone="no"?>
<!DOCTYPE svg PUBLIC "-//W3C//DTD SVG 1.1//EN"
 "http://www.w3.org/Graphics/SVG/1.1/DTD/svg11.dtd">
<!-- Generated by graphviz version 2.43.0 (0)
 -->
<!-- Title: FrontierBased Pages: 1 -->
<svg width="954pt" height="691pt"
 viewBox="0.00 0.00 954.00 691.43" xmlns="http://www.w3.org/2000/svg" xmlns:xlink="http://www.w3.org/1999/xlink">
<g id="graph0" class="graph" transform="scale(1 1) rotate(0) translate(4 687.43)">
<title>FrontierBased</title>
<polygon fill="white" stroke="transparent" points="-4,4 -4,-687.43 950,-687.43 950,4 -4,4"/>
<text text-anchor="middle" x="473" y="-666.63" font-family="Arial, Helvetica, sans-serif" font-size="16.00">Frontier&#45;Based Exploration Architecture</text>
<text text-anchor="middle" x="473" y="-648.63" font-family="Arial, Helvetica, sans-serif" font-size="16.00">(Yamauchi 1997)</text>
<g id="clust1" class="cluster">
<title>cluster_arch</title>
<polygon fill="none" stroke="#888888" stroke-dasharray="5,2" points="395,-112.43 395,-631.43 762,-631.43 762,-112.43 395,-112.43"/>
<text text-anchor="middle" x="578.5" y="-614.63" font-family="Arial, Helvetica, sans-serif" font-size="16.00">Cấu trúc Modules</text>
</g>
<g id="clust2" class="cluster">
<title>cluster_logic</title>
<polygon fill="none" stroke="#888888" points="8,-239.43 8,-497.43 370,-497.43 370,-239.43 8,-239.43"/>
<text text-anchor="middle" x="189" y="-480.63" font-family="Arial, Helvetica, sans-serif" font-size="16.00">Luồng xử lý (compute loop)</text>
</g>
<!-- FrontierExploration -->
<g id="node1" class="node">
<title>FrontierExploration</title>
<path fill="#e0eaf5" stroke="#333333" d="M431.5,-544.93C431.5,-544.93 580.5,-544.93 580.5,-544.93 586.5,-544.93 592.5,-550.93 592.5,-556.93 592.5,-556.93 592.5,-584.93 592.5,-584.93 592.5,-590.93 586.5,-596.93 580.5,-596.93 580.5,-596.93 431.5,-596.93 431.5,-596.93 425.5,-596.93 419.5,-590.93 419.5,-584.93 419.5,-584.93 419.5,-556.93 419.5,-556.93 419.5,-550.93 425.5,-544.93 431.5,-544.93"/>
<text text-anchor="middle" x="506" y="-584.93" font-family="Arial, Helvetica, sans-serif" font-size="10.00">FrontierExploration</text>
<text text-anchor="middle" x="506" y="-573.93" font-family="Arial, Helvetica, sans-serif" font-size="10.00">(Coordinator)</text>
<text text-anchor="middle" x="506" y="-562.93" font-family="Arial, Helvetica, sans-serif" font-size="10.00">&#45; Quản lý trạng thái</text>
<text text-anchor="middle" x="506" y="-551.93" font-family="Arial, Helvetica, sans-serif" font-size="10.00">&#45; Lệnh chu kỳ: update() &amp; compute()</text>
</g>
<!-- FrontierMap -->
<g id="node2" class="node">
<title>FrontierMap</title>
<polygon fill="#fff3cd" stroke="#333333" points="754,-431.93 610,-431.93 610,-390.93 754,-390.93 754,-431.93"/>
<text text-anchor="middle" x="682" y="-419.93" font-family="Arial, Helvetica, sans-serif" font-size="10.00">FrontierMap</text>
<text text-anchor="middle" x="682" y="-408.93" font-family="Arial, Helvetica, sans-serif" font-size="10.00">&#45; Lưu trữ 1D Map</text>
<text text-anchor="middle" x="682" y="-397.93" font-family="Arial, Helvetica, sans-serif" font-size="10.00">&#45; Cập nhật từ SLAM</text>
</g>
<!-- FrontierExploration&#45;&gt;FrontierMap -->
<g id="edge1" class="edge">
<title>FrontierExploration&#45;&gt;FrontierMap</title>
<path fill="none" stroke="#666666" d="M568.33,-544.88C568.33,-499.56 568.33,-411 568.33,-411 568.33,-411 599.69,-411 599.69,-411"/>
<polygon fill="#666666" stroke="#666666" points="599.69,-414.5 609.69,-411 599.69,-407.5 599.69,-414.5"/>
<text text-anchor="middle" x="659.5" y="-508.23" font-family="Arial, Helvetica, sans-serif" font-size="9.00">update(grid)</text>
</g>
<!-- FrontierDetector -->
<g id="node3" class="node">
<title>FrontierDetector</title>
<polygon fill="#d4edda" stroke="#333333" points="664,-291.43 520,-291.43 520,-239.43 664,-239.43 664,-291.43"/>
<text text-anchor="middle" x="592" y="-279.43" font-family="Arial, Helvetica, sans-serif" font-size="10.00">FrontierDetector</text>
<text text-anchor="middle" x="592" y="-268.43" font-family="Arial, Helvetica, sans-serif" font-size="10.00">&#45; Quét điểm Frontier</text>
<text text-anchor="middle" x="592" y="-257.43" font-family="Arial, Helvetica, sans-serif" font-size="10.00">&#45; Lọc nhiễu (safe_radius)</text>
<text text-anchor="middle" x="592" y="-246.43" font-family="Arial, Helvetica, sans-serif" font-size="10.00">&#45; Thuật toán BFS Wave&#45;Front</text>
</g>
<!-- FrontierExploration&#45;&gt;FrontierDetector -->
<g id="edge2" class="edge">
<title>FrontierExploration&#45;&gt;FrontierDetector</title>
<path fill="none" stroke="#666666" d="M544.17,-544.88C544.17,-544.88 544.17,-301.84 544.17,-301.84"/>
<polygon fill="#666666" stroke="#666666" points="547.67,-301.84 544.17,-291.84 540.67,-301.84 547.67,-301.84"/>
<text text-anchor="middle" x="536.5" y="-409.23" font-family="Arial, Helvetica, sans-serif" font-size="9.00">detect()</text>
</g>
<!-- FrontierSelector -->
<g id="node4" class="node">
<title>FrontierSelector</title>
<polygon fill="#f8d7da" stroke="#333333" points="607,-161.43 439,-161.43 439,-120.43 607,-120.43 607,-161.43"/>
<text text-anchor="middle" x="523" y="-149.43" font-family="Arial, Helvetica, sans-serif" font-size="10.00">FrontierSelector</text>
<text text-anchor="middle" x="523" y="-138.43" font-family="Arial, Helvetica, sans-serif" font-size="10.00">&#45; Chấm điểm Vùng (Region)</text>
<text text-anchor="middle" x="523" y="-127.43" font-family="Arial, Helvetica, sans-serif" font-size="10.00">&#45; D = w_dist·Dist + w_size(1&#45;Size)</text>
</g>
<!-- FrontierExploration&#45;&gt;FrontierSelector -->
<g id="edge3" class="edge">
<title>FrontierExploration&#45;&gt;FrontierSelector</title>
<path fill="none" stroke="#666666" d="M479.5,-544.68C479.5,-544.68 479.5,-171.65 479.5,-171.65"/>
<polygon fill="#666666" stroke="#666666" points="483,-171.65 479.5,-161.65 476,-171.65 483,-171.65"/>
<text text-anchor="middle" x="491.5" y="-323.23" font-family="Arial, Helvetica, sans-serif" font-size="9.00">select(regions)</text>
</g>
<!-- CheckReplan -->
<g id="node7" class="node">
<title>CheckReplan</title>
<polygon fill="#ffeeba" stroke="#333333" points="221,-463.43 97,-411.43 221,-359.43 345,-411.43 221,-463.43"/>
<text text-anchor="middle" x="221" y="-425.43" font-family="Arial, Helvetica, sans-serif" font-size="10.00">Kiểm tra cần Replan?</text>
<text text-anchor="middle" x="221" y="-414.43" font-family="Arial, Helvetica, sans-serif" font-size="10.00">&#45; Đã đến đích (A* signal)</text>
<text text-anchor="middle" x="221" y="-403.43" font-family="Arial, Helvetica, sans-serif" font-size="10.00">&#45; Mất mục tiêu</text>
<text text-anchor="middle" x="221" y="-392.43" font-family="Arial, Helvetica, sans-serif" font-size="10.00">&#45; Bị kẹt (Timeout &gt; 30s)</text>
</g>
<!-- FrontierExploration&#45;&gt;CheckReplan -->
<g id="edge10" class="edge">
<title>FrontierExploration&#45;&gt;CheckReplan</title>
<path fill="none" stroke="#666666" stroke-dasharray="1,5" d="M429.25,-544.64C429.25,-508.27 429.25,-447 429.25,-447 429.25,-447 270.66,-447 270.66,-447"/>
<polygon fill="#666666" stroke="#666666" points="270.66,-443.5 260.66,-447 270.66,-450.5 270.66,-443.5"/>
</g>
<!-- FrontierMap&#45;&gt;FrontierDetector -->
<g id="edge5" class="edge">
<title>FrontierMap&#45;&gt;FrontierDetector</title>
<path fill="none" stroke="#666666" d="M637,-390.82C637,-390.82 637,-301.6 637,-301.6"/>
<polygon fill="#666666" stroke="#666666" points="640.5,-301.6 637,-291.6 633.5,-301.6 640.5,-301.6"/>
<text text-anchor="middle" x="672.5" y="-323.23" font-family="Arial, Helvetica, sans-serif" font-size="9.00">1D Array / isFree(), isUnknown()</text>
</g>
<!-- FrontierDetector&#45;&gt;FrontierSelector -->
<g id="edge6" class="edge">
<title>FrontierDetector&#45;&gt;FrontierSelector</title>
<path fill="none" stroke="#666666" d="M563.5,-239.33C563.5,-239.33 563.5,-171.64 563.5,-171.64"/>
<polygon fill="#666666" stroke="#666666" points="567,-171.64 563.5,-161.64 560,-171.64 567,-171.64"/>
<text text-anchor="middle" x="607" y="-203.23" font-family="Arial, Helvetica, sans-serif" font-size="9.00">vector&lt;FrontierRegion&gt;</text>
<text text-anchor="middle" x="607" y="-193.23" font-family="Arial, Helvetica, sans-serif" font-size="9.00">(Quy tụ điểm bằng BFS)</text>
</g>
<!-- Goal -->
<g id="node6" class="node">
<title>Goal</title>
<ellipse fill="#cce5ff" stroke="#333333" cx="523" cy="-21.21" rx="82.96" ry="21.43"/>
<text text-anchor="middle" x="523" y="-24.21" font-family="Arial, Helvetica, sans-serif" font-size="10.00">Goal (x, y)</text>
<text text-anchor="middle" x="523" y="-13.21" font-family="Arial, Helvetica, sans-serif" font-size="10.00">(Gửi xuống A* Planner)</text>
</g>
<!-- FrontierSelector&#45;&gt;Goal -->
<g id="edge7" class="edge">
<title>FrontierSelector&#45;&gt;Goal</title>
<path fill="none" stroke="#666666" d="M523,-120.35C523,-120.35 523,-52.73 523,-52.73"/>
<polygon fill="#666666" stroke="#666666" points="526.5,-52.73 523,-42.73 519.5,-52.73 526.5,-52.73"/>
<text text-anchor="middle" x="575" y="-84.23" font-family="Arial, Helvetica, sans-serif" font-size="9.00">Best Region Centroid</text>
<text text-anchor="middle" x="575" y="-74.23" font-family="Arial, Helvetica, sans-serif" font-size="9.00">(Có Boundary Projection)</text>
</g>
<!-- SLAM -->
<g id="node5" class="node">
<title>SLAM</title>
<path fill="#eeeeee" stroke="#333333" d="M936.5,-587.9C936.5,-589.99 899.07,-591.68 853,-591.68 806.93,-591.68 769.5,-589.99 769.5,-587.9 769.5,-587.9 769.5,-553.95 769.5,-553.95 769.5,-551.87 806.93,-550.18 853,-550.18 899.07,-550.18 936.5,-551.87 936.5,-553.95 936.5,-553.95 936.5,-587.9 936.5,-587.9"/>
<path fill="none" stroke="#333333" d="M936.5,-587.9C936.5,-585.82 899.07,-584.13 853,-584.13 806.93,-584.13 769.5,-585.82 769.5,-587.9"/>
<text text-anchor="middle" x="853" y="-573.93" font-family="Arial, Helvetica, sans-serif" font-size="10.00">SLAM / OccupancyGrid</text>
<text text-anchor="middle" x="853" y="-562.93" font-family="Arial, Helvetica, sans-serif" font-size="10.00">(Value: Free=0, Occ=100, Unk=&#45;1)</text>
</g>
<!-- SLAM&#45;&gt;FrontierMap -->
<g id="edge4" class="edge">
<title>SLAM&#45;&gt;FrontierMap</title>
<path fill="none" stroke="#666666" d="M769.25,-570C725.93,-570 682,-570 682,-570 682,-570 682,-442.16 682,-442.16"/>
<polygon fill="#666666" stroke="#666666" points="685.5,-442.16 682,-432.16 678.5,-442.16 685.5,-442.16"/>
<text text-anchor="middle" x="899.5" y="-508.23" font-family="Arial, Helvetica, sans-serif" font-size="9.00">Occupancy Grid Matrix</text>
</g>
<!-- KeepGoal -->
<g id="node8" class="node">
<title>KeepGoal</title>
<polygon fill="#f9f9f9" stroke="#333333" points="160,-283.43 16,-283.43 16,-247.43 160,-247.43 160,-283.43"/>
<text text-anchor="middle" x="88" y="-262.93" font-family="Arial, Helvetica, sans-serif" font-size="10.00">Giữ nguyên Goal cũ</text>
</g>
<!-- CheckReplan&#45;&gt;KeepGoal -->
<g id="edge9" class="edge">
<title>CheckReplan&#45;&gt;KeepGoal</title>
<path fill="none" stroke="#666666" d="M128.5,-398.21C128.5,-398.21 128.5,-293.44 128.5,-293.44"/>
<polygon fill="#666666" stroke="#666666" points="132,-293.44 128.5,-283.44 125,-293.44 132,-293.44"/>
<text text-anchor="middle" x="140" y="-323.23" font-family="Arial, Helvetica, sans-serif" font-size="9.00">NO</text>
</g>
<!-- ExecuteDetect -->
<g id="node9" class="node">
<title>ExecuteDetect</title>
<polygon fill="#f9f9f9" stroke="#333333" points="362,-283.43 218,-283.43 218,-247.43 362,-247.43 362,-283.43"/>
<text text-anchor="middle" x="290" y="-262.93" font-family="Arial, Helvetica, sans-serif" font-size="10.00">Chạy luồng Detect &#45;&gt; Select</text>
</g>
<!-- CheckReplan&#45;&gt;ExecuteDetect -->
<g id="edge8" class="edge">
<title>CheckReplan&#45;&gt;ExecuteDetect</title>
<path fill="none" stroke="#666666" d="M281.5,-384.65C281.5,-384.65 281.5,-293.72 281.5,-293.72"/>
<polygon fill="#666666" stroke="#666666" points="285,-293.72 281.5,-283.72 278,-293.72 285,-293.72"/>
<text text-anchor="middle" x="264.5" y="-323.23" font-family="Arial, Helvetica, sans-serif" font-size="9.00">YES</text>
</g>
<!-- ExecuteDetect&#45;&gt;FrontierDetector -->
<g id="edge11" class="edge">
<title>ExecuteDetect&#45;&gt;FrontierDetector</title>
<path fill="none" stroke="#666666" stroke-dasharray="1,5" d="M362.34,-265C362.34,-265 509.99,-265 509.99,-265"/>
<polygon fill="#666666" stroke="#666666" points="509.99,-268.5 519.99,-265 509.99,-261.5 509.99,-268.5"/>
</g>
</g>
</svg>
