<?xml version="1.0" encoding="UTF-8" standalone="no"?>
<!DOCTYPE svg PUBLIC "-//W3C//DTD SVG 1.1//EN"
 "http://www.w3.org/Graphics/SVG/1.1/DTD/svg11.dtd">
<!-- Generated by graphviz version 2.43.0 (0)
 -->
<!-- Title: DWAAlgorithm Pages: 1 -->
<svg width="1253pt" height="919pt"
 viewBox="0.00 0.00 1253.00 918.64" xmlns="http://www.w3.org/2000/svg" xmlns:xlink="http://www.w3.org/1999/xlink">
<g id="graph0" class="graph" transform="scale(1 1) rotate(0) translate(4 914.64)">
<title>DWAAlgorithm</title>
<polygon fill="white" stroke="transparent" points="-4,4 -4,-914.64 1249,-914.64 1249,4 -4,4"/>
<text text-anchor="middle" x="622.5" y="-893.84" font-family="Arial, Helvetica, sans-serif" font-size="16.00">Dynamic Window Approach (DWA)</text>
<text text-anchor="middle" x="622.5" y="-875.84" font-family="Arial, Helvetica, sans-serif" font-size="16.00">Local Navigation Architecture</text>
<g id="clust1" class="cluster">
<title>cluster_arch</title>
<polygon fill="none" stroke="#888888" stroke-dasharray="5,2" points="59,-664 59,-858.64 891,-858.64 891,-664 59,-664"/>
<text text-anchor="middle" x="475" y="-841.84" font-family="Arial, Helvetica, sans-serif" font-size="16.00">Cấu trúc Modules</text>
</g>
<g id="clust2" class="cluster">
<title>cluster_logic</title>
<polygon fill="none" stroke="#888888" points="8,-96 8,-634 380,-634 380,-96 8,-96"/>
<text text-anchor="middle" x="194" y="-617.2" font-family="Arial, Helvetica, sans-serif" font-size="16.00">Luồng Xử lý Thuật Toán (compute core)</text>
</g>
<!-- DWAPlanner -->
<g id="node1" class="node">
<title>DWAPlanner</title>
<path fill="#e0eaf5" stroke="#333333" d="M419,-783.14C419,-783.14 569,-783.14 569,-783.14 575,-783.14 581,-789.14 581,-795.14 581,-795.14 581,-812.14 581,-812.14 581,-818.14 575,-824.14 569,-824.14 569,-824.14 419,-824.14 419,-824.14 413,-824.14 407,-818.14 407,-812.14 407,-812.14 407,-795.14 407,-795.14 407,-789.14 413,-783.14 419,-783.14"/>
<text text-anchor="middle" x="494" y="-812.14" font-family="Arial, Helvetica, sans-serif" font-size="10.00">DWAPlanner</text>
<text text-anchor="middle" x="494" y="-801.14" font-family="Arial, Helvetica, sans-serif" font-size="10.00">(Coordinator)</text>
<text text-anchor="middle" x="494" y="-790.14" font-family="Arial, Helvetica, sans-serif" font-size="10.00">&#45; computeVelocity(state, scan, path)</text>
</g>
<!-- DynamicWindow -->
<g id="node2" class="node">
<title>DynamicWindow</title>
<polygon fill="#fff3cd" stroke="#333333" points="268.5,-713.71 67.5,-713.71 67.5,-672.71 268.5,-672.71 268.5,-713.71"/>
<text text-anchor="middle" x="168" y="-701.71" font-family="Arial, Helvetica, sans-serif" font-size="10.00">DynamicWindow</text>
<text text-anchor="middle" x="168" y="-690.71" font-family="Arial, Helvetica, sans-serif" font-size="10.00">&#45; Tính V_d ∩ V_s</text>
<text text-anchor="middle" x="168" y="-679.71" font-family="Arial, Helvetica, sans-serif" font-size="10.00">&#45; Truy xuất {v_low, v_high, w_low, w_high}</text>
</g>
<!-- DWAPlanner&#45;&gt;DynamicWindow -->
<g id="edge3" class="edge">
<title>DWAPlanner&#45;&gt;DynamicWindow</title>
<path fill="none" stroke="#666666" d="M429.17,-782.92C429.17,-767.1 429.17,-748 429.17,-748 429.17,-748 221.75,-748 221.75,-748 221.75,-748 221.75,-723.93 221.75,-723.93"/>
<polygon fill="#666666" stroke="#666666" points="225.25,-723.93 221.75,-713.93 218.25,-723.93 225.25,-723.93"/>
<text text-anchor="middle" x="260.5" y="-746.23" font-family="Arial, Helvetica, sans-serif" font-size="9.00">3. Lấy tập Vận tốc</text>
</g>
<!-- TrajectoryScorer -->
<g id="node3" class="node">
<title>TrajectoryScorer</title>
<polygon fill="#d4edda" stroke="#333333" points="473.5,-713.71 326.5,-713.71 326.5,-672.71 473.5,-672.71 473.5,-713.71"/>
<text text-anchor="middle" x="400" y="-701.71" font-family="Arial, Helvetica, sans-serif" font-size="10.00">TrajectoryScorer</text>
<text text-anchor="middle" x="400" y="-690.71" font-family="Arial, Helvetica, sans-serif" font-size="10.00">&#45; Chấm điểm đa mục tiêu</text>
<text text-anchor="middle" x="400" y="-679.71" font-family="Arial, Helvetica, sans-serif" font-size="10.00">&#45; G = α·head + β·clear + γ·vel</text>
</g>
<!-- DWAPlanner&#45;&gt;TrajectoryScorer -->
<g id="edge4" class="edge">
<title>DWAPlanner&#45;&gt;TrajectoryScorer</title>
<path fill="none" stroke="#666666" d="M451.33,-783.13C451.33,-783.13 451.33,-723.99 451.33,-723.99"/>
<polygon fill="#666666" stroke="#666666" points="454.83,-723.99 451.33,-713.99 447.83,-723.99 454.83,-723.99"/>
<text text-anchor="middle" x="454.5" y="-746.23" font-family="Arial, Helvetica, sans-serif" font-size="9.00">7. Optimize G&#45;Cost</text>
</g>
<!-- LookaheadFinder -->
<g id="node5" class="node">
<title>LookaheadFinder</title>
<ellipse fill="#ffffff" stroke="#333333" cx="606" cy="-693.21" rx="74.91" ry="21.43"/>
<text text-anchor="middle" x="606" y="-696.21" font-family="Arial, Helvetica, sans-serif" font-size="10.00">findLookaheadGoal()</text>
<text text-anchor="middle" x="606" y="-685.21" font-family="Arial, Helvetica, sans-serif" font-size="10.00">(Tính goal_angle)</text>
</g>
<!-- DWAPlanner&#45;&gt;LookaheadFinder -->
<g id="edge1" class="edge">
<title>DWAPlanner&#45;&gt;LookaheadFinder</title>
<path fill="none" stroke="#666666" d="M556.02,-783.13C556.02,-783.13 556.02,-719.31 556.02,-719.31"/>
<polygon fill="#666666" stroke="#666666" points="559.52,-719.31 556.02,-709.31 552.52,-719.31 559.52,-719.31"/>
<text text-anchor="middle" x="605" y="-746.23" font-family="Arial, Helvetica, sans-serif" font-size="9.00">1. Truy vết Path</text>
</g>
<!-- scanToObstacles -->
<g id="node6" class="node">
<title>scanToObstacles</title>
<ellipse fill="#ffffff" stroke="#333333" cx="811" cy="-693.21" rx="72" ry="21.43"/>
<text text-anchor="middle" x="811" y="-696.21" font-family="Arial, Helvetica, sans-serif" font-size="10.00">scanToObstacles()</text>
<text text-anchor="middle" x="811" y="-685.21" font-family="Arial, Helvetica, sans-serif" font-size="10.00">(Tọa độ Đề&#45;các)</text>
</g>
<!-- DWAPlanner&#45;&gt;scanToObstacles -->
<g id="edge2" class="edge">
<title>DWAPlanner&#45;&gt;scanToObstacles</title>
<path fill="none" stroke="#666666" d="M581.04,-796C674.89,-796 811,-796 811,-796 811,-796 811,-724.51 811,-724.51"/>
<polygon fill="#666666" stroke="#666666" points="814.5,-724.51 811,-714.51 807.5,-724.51 814.5,-724.51"/>
<text text-anchor="middle" x="792" y="-746.23" font-family="Arial, Helvetica, sans-serif" font-size="9.00">2. Lấy dữ liệu Laser</text>
</g>
<!-- PreemptiveEscape -->
<g id="node10" class="node">
<title>PreemptiveEscape</title>
<polygon fill="#ffeeba" stroke="#333333" points="168,-600 62,-570 168,-540 274,-570 168,-600"/>
<text text-anchor="middle" x="168" y="-573" font-family="Arial, Helvetica, sans-serif" font-size="10.00">Fall&#45;back Khẩn cấp?</text>
<text text-anchor="middle" x="168" y="-562" font-family="Arial, Helvetica, sans-serif" font-size="10.00">(min_dist &lt; 0.25m)</text>
</g>
<!-- DynamicWindow&#45;&gt;PreemptiveEscape -->
<g id="edge13" class="edge">
<title>DynamicWindow&#45;&gt;PreemptiveEscape</title>
<path fill="none" stroke="#666666" stroke-dasharray="1,5" d="M168,-672.59C168,-672.59 168,-610.4 168,-610.4"/>
<polygon fill="#666666" stroke="#666666" points="171.5,-610.4 168,-600.4 164.5,-610.4 171.5,-610.4"/>
</g>
<!-- ObstacleModel -->
<g id="node4" class="node">
<title>ObstacleModel</title>
<polygon fill="#f8d7da" stroke="#333333" points="335,-824.14 175,-824.14 175,-783.14 335,-783.14 335,-824.14"/>
<text text-anchor="middle" x="255" y="-812.14" font-family="Arial, Helvetica, sans-serif" font-size="10.00">Tập Vật cản &amp; Lookahead Finder</text>
<text text-anchor="middle" x="255" y="-801.14" font-family="Arial, Helvetica, sans-serif" font-size="10.00">&#45; Polar Scan → XY Descartes</text>
<text text-anchor="middle" x="255" y="-790.14" font-family="Arial, Helvetica, sans-serif" font-size="10.00">&#45; Tự tìm goal_angle nội bộ</text>
</g>
<!-- AStarPath -->
<g id="node7" class="node">
<title>AStarPath</title>
<ellipse fill="#cce5ff" stroke="#333333" cx="971" cy="-803.64" rx="72" ry="21.43"/>
<text text-anchor="middle" x="971" y="-806.64" font-family="Arial, Helvetica, sans-serif" font-size="10.00">Global Path</text>
<text text-anchor="middle" x="971" y="-795.64" font-family="Arial, Helvetica, sans-serif" font-size="10.00">(Từ A*)</text>
</g>
<!-- AStarPath&#45;&gt;LookaheadFinder -->
<g id="edge5" class="edge">
<title>AStarPath&#45;&gt;LookaheadFinder</title>
<path fill="none" stroke="#666666" d="M902.19,-810C802.84,-810 630.98,-810 630.98,-810 630.98,-810 630.98,-723.29 630.98,-723.29"/>
<polygon fill="#666666" stroke="#666666" points="634.48,-723.29 630.98,-713.29 627.48,-723.29 634.48,-723.29"/>
</g>
<!-- ScanSource -->
<g id="node8" class="node">
<title>ScanSource</title>
<path fill="#eeeeee" stroke="#333333" d="M1245,-820.62C1245,-822.7 1212.73,-824.39 1173,-824.39 1133.27,-824.39 1101,-822.7 1101,-820.62 1101,-820.62 1101,-786.66 1101,-786.66 1101,-784.58 1133.27,-782.89 1173,-782.89 1212.73,-782.89 1245,-784.58 1245,-786.66 1245,-786.66 1245,-820.62 1245,-820.62"/>
<path fill="none" stroke="#333333" d="M1245,-820.62C1245,-818.54 1212.73,-816.84 1173,-816.84 1133.27,-816.84 1101,-818.54 1101,-820.62"/>
<text text-anchor="middle" x="1173" y="-806.64" font-family="Arial, Helvetica, sans-serif" font-size="10.00">LiDAR Scan</text>
<text text-anchor="middle" x="1173" y="-795.64" font-family="Arial, Helvetica, sans-serif" font-size="10.00">(Cực &#45; Polar)</text>
</g>
<!-- ScanSource&#45;&gt;scanToObstacles -->
<g id="edge6" class="edge">
<title>ScanSource&#45;&gt;scanToObstacles</title>
<path fill="none" stroke="#666666" d="M1173,-782.83C1173,-750.78 1173,-693 1173,-693 1173,-693 893.39,-693 893.39,-693"/>
<polygon fill="#666666" stroke="#666666" points="893.39,-689.5 883.39,-693 893.39,-696.5 893.39,-689.5"/>
</g>
<!-- MotorCmd -->
<g id="node9" class="node">
<title>MotorCmd</title>
<polygon fill="#cce5ff" stroke="#333333" points="442,-36 302,-36 298,-32 298,0 438,0 442,-4 442,-36"/>
<polyline fill="none" stroke="#333333" points="438,-32 298,-32 "/>
<polyline fill="none" stroke="#333333" points="438,-32 438,0 "/>
<polyline fill="none" stroke="#333333" points="438,-32 442,-36 "/>
<text text-anchor="middle" x="370" y="-21" font-family="Arial, Helvetica, sans-serif" font-size="10.00">Motor Command</text>
<text text-anchor="middle" x="370" y="-10" font-family="Arial, Helvetica, sans-serif" font-size="10.00">{v*, w*}</text>
</g>
<!-- EscapeAction -->
<g id="node11" class="node">
<title>EscapeAction</title>
<polygon fill="#f5c6cb" stroke="#333333" points="372,-469.5 228,-469.5 228,-433.5 372,-433.5 372,-469.5"/>
<text text-anchor="middle" x="300" y="-454.5" font-family="Arial, Helvetica, sans-serif" font-size="10.00">Xoay lùi tại chỗ</text>
<text text-anchor="middle" x="300" y="-443.5" font-family="Arial, Helvetica, sans-serif" font-size="10.00">{v = &#45;0.03, w = escape_w}</text>
</g>
<!-- PreemptiveEscape&#45;&gt;EscapeAction -->
<g id="edge7" class="edge">
<title>PreemptiveEscape&#45;&gt;EscapeAction</title>
<path fill="none" stroke="#666666" d="M251,-563.29C251,-563.29 251,-479.65 251,-479.65"/>
<polygon fill="#666666" stroke="#666666" points="254.5,-479.65 251,-469.65 247.5,-479.65 254.5,-479.65"/>
<text text-anchor="middle" x="287.5" y="-503.8" font-family="Arial, Helvetica, sans-serif" font-size="9.00">YES</text>
</g>
<!-- SamplingGrid -->
<g id="node12" class="node">
<title>SamplingGrid</title>
<polygon fill="#e2e3e5" stroke="#333333" points="170,-472 26,-472 26,-431 170,-431 170,-472"/>
<text text-anchor="middle" x="98" y="-460" font-family="Arial, Helvetica, sans-serif" font-size="10.00">Tạo lưới [v, w] (Sampling)</text>
<text text-anchor="middle" x="98" y="-449" font-family="Arial, Helvetica, sans-serif" font-size="10.00">&#45; Thử từng góc rẽ</text>
<text text-anchor="middle" x="98" y="-438" font-family="Arial, Helvetica, sans-serif" font-size="10.00">&#45; Thử từng vận tốc</text>
</g>
<!-- PreemptiveEscape&#45;&gt;SamplingGrid -->
<g id="edge8" class="edge">
<title>PreemptiveEscape&#45;&gt;SamplingGrid</title>
<path fill="none" stroke="#666666" d="M116,-554.51C116,-554.51 116,-482.17 116,-482.17"/>
<polygon fill="#666666" stroke="#666666" points="119.5,-482.17 116,-472.17 112.5,-482.18 119.5,-482.17"/>
<text text-anchor="middle" x="146" y="-503.8" font-family="Arial, Helvetica, sans-serif" font-size="9.00">NO (An toàn)</text>
</g>
<!-- EscapeAction&#45;&gt;MotorCmd -->
<g id="edge15" class="edge">
<title>EscapeAction&#45;&gt;MotorCmd</title>
<path fill="none" stroke="#666666" d="M367,-433.42C367,-433.42 367,-46.15 367,-46.15"/>
<polygon fill="#666666" stroke="#666666" points="370.5,-46.15 367,-36.15 363.5,-46.15 370.5,-46.15"/>
<text text-anchor="middle" x="486.5" y="-235.8" font-family="Arial, Helvetica, sans-serif" font-size="9.00">Tín hiệu thoát vây</text>
</g>
<!-- ClearanceCheck -->
<g id="node13" class="node">
<title>ClearanceCheck</title>
<polygon fill="#e2e3e5" stroke="#333333" points="189,-363 45,-363 45,-327 189,-327 189,-363"/>
<text text-anchor="middle" x="117" y="-348" font-family="Arial, Helvetica, sans-serif" font-size="10.00">5. Tính dist_to_obstacle</text>
<text text-anchor="middle" x="117" y="-337" font-family="Arial, Helvetica, sans-serif" font-size="10.00">(Dùng Hình học Cung tròn)</text>
</g>
<!-- SamplingGrid&#45;&gt;ClearanceCheck -->
<g id="edge9" class="edge">
<title>SamplingGrid&#45;&gt;ClearanceCheck</title>
<path fill="none" stroke="#666666" d="M107.5,-430.97C107.5,-430.97 107.5,-373.34 107.5,-373.34"/>
<polygon fill="#666666" stroke="#666666" points="111,-373.34 107.5,-363.34 104,-373.34 111,-373.34"/>
<text text-anchor="middle" x="155" y="-394.8" font-family="Arial, Helvetica, sans-serif" font-size="9.00">Mỗi cặp v_test, w_test</text>
</g>
<!-- AdmissibleCheck -->
<g id="node14" class="node">
<title>AdmissibleCheck</title>
<polygon fill="#ffeeba" stroke="#333333" points="147,-268 16,-238 147,-208 278,-238 147,-268"/>
<text text-anchor="middle" x="147" y="-241" font-family="Arial, Helvetica, sans-serif" font-size="10.00">6. Admissible (V_a)?</text>
<text text-anchor="middle" x="147" y="-230" font-family="Arial, Helvetica, sans-serif" font-size="10.00">(v &lt;= sqrt(2*dist*v_break))</text>
</g>
<!-- ClearanceCheck&#45;&gt;AdmissibleCheck -->
<g id="edge10" class="edge">
<title>ClearanceCheck&#45;&gt;AdmissibleCheck</title>
<path fill="none" stroke="#666666" d="M117,-326.85C117,-326.85 117,-271.49 117,-271.49"/>
<polygon fill="#666666" stroke="#666666" points="120.5,-271.49 117,-261.49 113.5,-271.49 120.5,-271.49"/>
</g>
<!-- ThrowPath -->
<g id="node15" class="node">
<title>ThrowPath</title>
<polygon fill="#d6d8db" stroke="#333333" points="160,-140 16,-140 16,-104 160,-104 160,-140"/>
<text text-anchor="middle" x="88" y="-119.5" font-family="Arial, Helvetica, sans-serif" font-size="10.00">Loại bỏ Trajectory</text>
</g>
<!-- AdmissibleCheck&#45;&gt;ThrowPath -->
<g id="edge11" class="edge">
<title>AdmissibleCheck&#45;&gt;ThrowPath</title>
<path fill="none" stroke="#666666" d="M88,-221.38C88,-221.38 88,-150.12 88,-150.12"/>
<polygon fill="#666666" stroke="#666666" points="91.5,-150.12 88,-140.12 84.5,-150.12 91.5,-150.12"/>
<text text-anchor="middle" x="130.5" y="-171.8" font-family="Arial, Helvetica, sans-serif" font-size="9.00">NO (Va chạm/Xuyên tường)</text>
</g>
<!-- BestScore -->
<g id="node16" class="node">
<title>BestScore</title>
<polygon fill="#d1ecf1" stroke="#333333" points="362,-140 218,-140 218,-104 362,-104 362,-140"/>
<text text-anchor="middle" x="290" y="-125" font-family="Arial, Helvetica, sans-serif" font-size="10.00">Cập nhật {v*, w*}</text>
<text text-anchor="middle" x="290" y="-114" font-family="Arial, Helvetica, sans-serif" font-size="10.00">(Objective Function Max)</text>
</g>
<!-- AdmissibleCheck&#45;&gt;BestScore -->
<g id="edge12" class="edge">
<title>AdmissibleCheck&#45;&gt;BestScore</title>
<path fill="none" stroke="#666666" d="M248,-231.09C248,-231.09 248,-150.06 248,-150.06"/>
<polygon fill="#666666" stroke="#666666" points="251.5,-150.06 248,-140.06 244.5,-150.06 251.5,-150.06"/>
<text text-anchor="middle" x="311" y="-171.8" font-family="Arial, Helvetica, sans-serif" font-size="9.00">YES (Đủ khoảng cách phanh)</text>
</g>
<!-- BestScore&#45;&gt;MotorCmd -->
<g id="edge14" class="edge">
<title>BestScore&#45;&gt;MotorCmd</title>
<path fill="none" stroke="#666666" d="M330,-103.88C330,-103.88 330,-46.26 330,-46.26"/>
<polygon fill="#666666" stroke="#666666" points="333.5,-46.26 330,-36.26 326.5,-46.26 333.5,-46.26"/>
<text text-anchor="middle" x="352.5" y="-67.8" font-family="Arial, Helvetica, sans-serif" font-size="9.00">Tín hiệu CMD_VEL</text>
</g>
</g>
</svg>
