<?xml version="1.0" encoding="UTF-8" standalone="no"?>
<!DOCTYPE svg PUBLIC "-//W3C//DTD SVG 1.1//EN"
 "http://www.w3.org/Graphics/SVG/1.1/DTD/svg11.dtd">
<!-- Generated by graphviz version 2.43.0 (0)
 -->
<!-- Title: GraphSLAM Pages: 1 -->
<svg width="1361pt" height="2267pt"
 viewBox="0.00 0.00 1361.00 2267.10" xmlns="http://www.w3.org/2000/svg" xmlns:xlink="http://www.w3.org/1999/xlink">
<g id="graph0" class="graph" transform="scale(1 1) rotate(0) translate(4 2263.1)">
<title>GraphSLAM</title>
<polygon fill="#1a1a2e" stroke="transparent" points="-4,4 -4,-2263.1 1357,-2263.1 1357,4 -4,4"/>
<text text-anchor="middle" x="676.5" y="-2235.9" font-family="Arial" font-size="24.00" fill="#ffffff">Graph&#45;Based SLAM Algorithm Pipeline</text>
<text text-anchor="middle" x="676.5" y="-2209.9" font-family="Arial" font-size="24.00" fill="#ffffff">Grisetti et al. (2010)</text>
<g id="clust1" class="cluster">
<title>cluster_ros2</title>
<path fill="#0f3460" stroke="#533483" stroke-width="2" stroke-dasharray="5,2" d="M48,-1813.1C48,-1813.1 347,-1813.1 347,-1813.1 353,-1813.1 359,-1819.1 359,-1825.1 359,-1825.1 359,-2179.1 359,-2179.1 359,-2185.1 353,-2191.1 347,-2191.1 347,-2191.1 48,-2191.1 48,-2191.1 42,-2191.1 36,-2185.1 36,-2179.1 36,-2179.1 36,-1825.1 36,-1825.1 36,-1819.1 42,-1813.1 48,-1813.1"/>
<text text-anchor="middle" x="197.5" y="-2175.9" font-family="Arial" font-size="14.00" fill="#ffffff">ROS2 Node — slam_robot.cpp (Orchestrator)</text>
</g>
<g id="clust2" class="cluster">
<title>cluster_frontend_odom</title>
<path fill="#0d2137" stroke="#e67e22" stroke-width="2" stroke-dasharray="5,2" d="M20,-1241C20,-1241 304,-1241 304,-1241 310,-1241 316,-1247 316,-1253 316,-1253 316,-1737.1 316,-1737.1 316,-1743.1 310,-1749.1 304,-1749.1 304,-1749.1 20,-1749.1 20,-1749.1 14,-1749.1 8,-1743.1 8,-1737.1 8,-1737.1 8,-1253 8,-1253 8,-1247 14,-1241 20,-1241"/>
<text text-anchor="middle" x="162" y="-1733.9" font-family="Arial" font-size="14.00" fill="#f0f0f0">FRONT&#45;END — Odometry Node Addition</text>
</g>
<g id="clust3" class="cluster">
<title>cluster_frontend_loop</title>
<path fill="#1a1a2e" stroke="#e74c3c" stroke-width="2" stroke-dasharray="5,2" d="M96,-799C96,-799 331,-799 331,-799 337,-799 343,-805 343,-811 343,-811 343,-1193 343,-1193 343,-1199 337,-1205 331,-1205 331,-1205 96,-1205 96,-1205 90,-1205 84,-1199 84,-1193 84,-1193 84,-811 84,-811 84,-805 90,-799 96,-799"/>
<text text-anchor="middle" x="213.5" y="-1189.8" font-family="Arial" font-size="14.00" fill="#f0f0f0">FRONT&#45;END — Loop Closure Detection</text>
</g>
<g id="clust4" class="cluster">
<title>cluster_backend</title>
<path fill="#0d2137" stroke="#2ecc71" stroke-width="2" stroke-dasharray="5,2" d="M51,-8C51,-8 382,-8 382,-8 388,-8 394,-14 394,-20 394,-20 394,-751 394,-751 394,-757 388,-763 382,-763 382,-763 51,-763 51,-763 45,-763 39,-757 39,-751 39,-751 39,-20 39,-20 39,-14 45,-8 51,-8"/>
<text text-anchor="middle" x="216.5" y="-747.8" font-family="Arial" font-size="14.00" fill="#f0f0f0">BACK&#45;END — Gauss&#45;Newton Pose Graph Optimization</text>
</g>
<g id="clust5" class="cluster">
<title>cluster_map</title>
<path fill="#1a1a2e" stroke="#f39c12" stroke-width="2" stroke-dasharray="5,2" d="M379,-1546.05C379,-1546.05 727,-1546.05 727,-1546.05 733,-1546.05 739,-1552.05 739,-1558.05 739,-1558.05 739,-1901.1 739,-1901.1 739,-1907.1 733,-1913.1 727,-1913.1 727,-1913.1 379,-1913.1 379,-1913.1 373,-1913.1 367,-1907.1 367,-1901.1 367,-1901.1 367,-1558.05 367,-1558.05 367,-1552.05 373,-1546.05 379,-1546.05"/>
<text text-anchor="middle" x="553" y="-1897.9" font-family="Arial" font-size="14.00" fill="#f0f0f0">MAP UPDATE — Incremental Occupancy Grid (Log&#45;Odds)</text>
</g>
<g id="clust6" class="cluster">
<title>cluster_viz</title>
<path fill="#0d2137" stroke="#3498db" stroke-width="2" stroke-dasharray="5,2" d="M759,-1817.1C759,-1817.1 976,-1817.1 976,-1817.1 982,-1817.1 988,-1823.1 988,-1829.1 988,-1829.1 988,-2160.1 988,-2160.1 988,-2166.1 982,-2172.1 976,-2172.1 976,-2172.1 759,-2172.1 759,-2172.1 753,-2172.1 747,-2166.1 747,-2160.1 747,-2160.1 747,-1829.1 747,-1829.1 747,-1823.1 753,-1817.1 759,-1817.1"/>
<text text-anchor="middle" x="867.5" y="-2156.9" font-family="Arial" font-size="14.00" fill="#f0f0f0">VISUALIZATION — Published Topics</text>
</g>
<g id="clust7" class="cluster">
<title>cluster_tf</title>
<path fill="#1a1a2e" stroke="#9b59b6" stroke-width="2" d="M1115,-1541C1115,-1541 1333,-1541 1333,-1541 1339,-1541 1345,-1547 1345,-1553 1345,-1553 1345,-2166.15 1345,-2166.15 1345,-2172.15 1339,-2178.15 1333,-2178.15 1333,-2178.15 1115,-2178.15 1115,-2178.15 1109,-2178.15 1103,-2172.15 1103,-2166.15 1103,-2166.15 1103,-1553 1103,-1553 1103,-1547 1109,-1541 1115,-1541"/>
<text text-anchor="middle" x="1224" y="-2162.95" font-family="Arial" font-size="14.00" fill="#f0f0f0">TF TREE — Reference Frames</text>
</g>
<!-- init -->
<g id="node1" class="node">
<title>init</title>
<polygon fill="#1a5276" stroke="black" stroke-width="1.5" points="295.5,-2160.1 102.5,-2160.1 98.5,-2156.1 98.5,-2086.1 291.5,-2086.1 295.5,-2090.1 295.5,-2160.1"/>
<polyline fill="none" stroke="black" stroke-width="1.5" points="291.5,-2156.1 98.5,-2156.1 "/>
<polyline fill="none" stroke="black" stroke-width="1.5" points="291.5,-2156.1 291.5,-2086.1 "/>
<polyline fill="none" stroke="black" stroke-width="1.5" points="291.5,-2156.1 295.5,-2160.1 "/>
<text text-anchor="middle" x="197" y="-2148.1" font-family="Arial" font-size="10.00" fill="#e0e0e0">Constructor:</text>
<text text-anchor="middle" x="197" y="-2137.1" font-family="Arial" font-size="10.00" fill="#e0e0e0">• MapBuilder(32m×20m, 0.05m/cell)</text>
<text text-anchor="middle" x="197" y="-2126.1" font-family="Arial" font-size="10.00" fill="#e0e0e0">• SlamGraph::init() + setMapBuilder()</text>
<text text-anchor="middle" x="197" y="-2115.1" font-family="Arial" font-size="10.00" fill="#e0e0e0">• Subs: /agv_scan (10Hz)</text>
<text text-anchor="middle" x="197" y="-2104.1" font-family="Arial" font-size="10.00" fill="#e0e0e0">• Timers: SLAM (5Hz), Map (2Hz)</text>
<text text-anchor="middle" x="197" y="-2093.1" font-family="Arial" font-size="10.00" fill="#e0e0e0">• Pubs: /map, graph_nodes, graph_edges</text>
</g>
<!-- scan_cb -->
<g id="node2" class="node">
<title>scan_cb</title>
<polygon fill="#1a6e3a" stroke="black" stroke-width="1.5" points="345,-2025.1 171,-2025.1 171,-1957.1 351,-1957.1 351,-2019.1 345,-2025.1"/>
<polyline fill="none" stroke="black" stroke-width="1.5" points="345,-2025.1 345,-2019.1 "/>
<polyline fill="none" stroke="black" stroke-width="1.5" points="351,-2019.1 345,-2019.1 "/>
<text text-anchor="middle" x="261" y="-2012.3" font-family="Arial" font-size="11.00" fill="#e0e0e0">scanCallback()</text>
<text text-anchor="middle" x="261" y="-2000.3" font-family="Arial" font-size="11.00" fill="#e0e0e0">[10Hz — LiDAR Thread]</text>
<text text-anchor="middle" x="261" y="-1988.3" font-family="Arial" font-size="11.00" fill="#e0e0e0">→ cache scan ranges</text>
<text text-anchor="middle" x="261" y="-1976.3" font-family="Arial" font-size="11.00" fill="#e0e0e0">→ updateFromRanges()</text>
<text text-anchor="middle" x="261" y="-1964.3" font-family="Arial" font-size="11.00" fill="#e0e0e0"> &#160;(incremental occupancy grid)</text>
</g>
<!-- init&#45;&gt;scan_cb -->
<g id="edge1" class="edge">
<title>init&#45;&gt;scan_cb</title>
<path fill="none" stroke="#2ecc71" stroke-width="1.5" d="M214.83,-2085.89C222.62,-2070.06 231.82,-2051.38 239.94,-2034.88"/>
<polygon fill="#2ecc71" stroke="#2ecc71" stroke-width="1.5" points="243.31,-2035.96 244.58,-2025.45 237.03,-2032.87 243.31,-2035.96"/>
<text text-anchor="middle" x="273" y="-2053.1" font-family="Arial" font-size="10.00" fill="#b0b0b0"> &#160;/agv_scan (10Hz)</text>
</g>
<!-- slam_cb -->
<g id="node3" class="node">
<title>slam_cb</title>
<polygon fill="#6e1a3a" stroke="black" stroke-width="1.5" points="235,-1865.1 83,-1865.1 83,-1821.1 241,-1821.1 241,-1859.1 235,-1865.1"/>
<polyline fill="none" stroke="black" stroke-width="1.5" points="235,-1865.1 235,-1859.1 "/>
<polyline fill="none" stroke="black" stroke-width="1.5" points="241,-1859.1 235,-1859.1 "/>
<text text-anchor="middle" x="162" y="-1852.3" font-family="Arial" font-size="11.00" fill="#e0e0e0">slamTimerCallback()</text>
<text text-anchor="middle" x="162" y="-1840.3" font-family="Arial" font-size="11.00" fill="#e0e0e0">[5Hz — SLAM Thread]</text>
<text text-anchor="middle" x="162" y="-1828.3" font-family="Arial" font-size="11.00" fill="#e0e0e0">→ graphSLAMcall()</text>
</g>
<!-- init&#45;&gt;slam_cb -->
<g id="edge2" class="edge">
<title>init&#45;&gt;slam_cb</title>
<path fill="none" stroke="#2ecc71" stroke-width="1.5" d="M160.14,-2085.98C131.99,-2058.4 98,-2025.1 98,-2025.1 98,-2025.1 98,-1957.1 98,-1957.1 98,-1957.1 125.93,-1907.79 144.88,-1874.32"/>
<polygon fill="#2ecc71" stroke="#2ecc71" stroke-width="1.5" points="148.08,-1875.78 149.96,-1865.35 141.99,-1872.33 148.08,-1875.78"/>
<text text-anchor="middle" x="125.5" y="-1988.6" font-family="Arial" font-size="10.00" fill="#b0b0b0"> &#160;timer (5Hz)</text>
</g>
<!-- scan_cb&#45;&gt;slam_cb -->
<g id="edge6" class="edge">
<title>scan_cb&#45;&gt;slam_cb</title>
<path fill="none" stroke="#e67e22" stroke-width="1.5" stroke-dasharray="5,2" d="M238.54,-1956.97C221.57,-1931.94 198.48,-1897.9 182.11,-1873.76"/>
<polygon fill="#e67e22" stroke="#e67e22" stroke-width="1.5" points="184.92,-1871.66 176.41,-1865.35 179.13,-1875.59 184.92,-1871.66"/>
<text text-anchor="middle" x="268" y="-1924.1" font-family="Arial" font-size="10.00" fill="#b0b0b0"> &#160;cached scan ranges</text>
</g>
<!-- incremental_update -->
<g id="node22" class="node">
<title>incremental_update</title>
<path fill="#3e4a1e" stroke="black" stroke-width="1.5" d="M579,-1882.1C579,-1882.1 387,-1882.1 387,-1882.1 381,-1882.1 375,-1876.1 375,-1870.1 375,-1870.1 375,-1816.1 375,-1816.1 375,-1810.1 381,-1804.1 387,-1804.1 387,-1804.1 579,-1804.1 579,-1804.1 585,-1804.1 591,-1810.1 591,-1816.1 591,-1816.1 591,-1870.1 591,-1870.1 591,-1876.1 585,-1882.1 579,-1882.1"/>
<text text-anchor="middle" x="483" y="-1870.9" font-family="Arial" font-size="9.00" fill="#e0e0e0">scanCallback() [10Hz]:</text>
<text text-anchor="middle" x="483" y="-1860.9" font-family="Arial" font-size="9.00" fill="#e0e0e0">map_builder_.updateFromRanges(</text>
<text text-anchor="middle" x="483" y="-1850.9" font-family="Arial" font-size="9.00" fill="#e0e0e0"> &#160;scan, angle_min, angle_inc,</text>
<text text-anchor="middle" x="483" y="-1840.9" font-family="Arial" font-size="9.00" fill="#e0e0e0"> &#160;px, py, yaw)</text>
<text text-anchor="middle" x="483" y="-1820.9" font-family="Arial" font-size="9.00" fill="#e0e0e0">Pose: map_odom ⊕ odom_base</text>
<text text-anchor="middle" x="483" y="-1810.9" font-family="Arial" font-size="9.00" fill="#e0e0e0">(corrected by SLAM)</text>
</g>
<!-- scan_cb&#45;&gt;incremental_update -->
<g id="edge3" class="edge">
<title>scan_cb&#45;&gt;incremental_update</title>
<path fill="none" stroke="#f39c12" stroke-width="1.5" d="M311.38,-1956.97C342.51,-1936.49 382.82,-1909.98 416.56,-1887.8"/>
<polygon fill="#f39c12" stroke="#f39c12" stroke-width="1.5" points="418.55,-1890.68 424.98,-1882.26 414.7,-1884.83 418.55,-1890.68"/>
<text text-anchor="middle" x="415" y="-1924.1" font-family="Arial" font-size="10.00" fill="#b0b0b0"> &#160;updateFromRanges()</text>
</g>
<!-- check_thresh -->
<g id="node4" class="node">
<title>check_thresh</title>
<path fill="#2c3e50" stroke="black" stroke-width="1.5" d="M150.25,-1715.68C150.25,-1715.68 27.75,-1690.52 27.75,-1690.52 21.88,-1689.31 21.88,-1686.89 27.75,-1685.68 27.75,-1685.68 150.25,-1660.52 150.25,-1660.52 156.12,-1659.31 167.88,-1659.31 173.75,-1660.52 173.75,-1660.52 296.25,-1685.68 296.25,-1685.68 302.12,-1686.89 302.12,-1689.31 296.25,-1690.52 296.25,-1690.52 173.75,-1715.68 173.75,-1715.68 167.88,-1716.89 156.12,-1716.89 150.25,-1715.68"/>
<text text-anchor="middle" x="162" y="-1691.1" font-family="Arial" font-size="10.00" fill="#e0e0e0">Check Travel Threshold:</text>
<text text-anchor="middle" x="162" y="-1680.1" font-family="Arial" font-size="10.00" fill="#e0e0e0">dist &gt; 0.3m || |Δθ| &gt; 0.15rad ?</text>
</g>
<!-- slam_cb&#45;&gt;check_thresh -->
<g id="edge7" class="edge">
<title>slam_cb&#45;&gt;check_thresh</title>
<path fill="none" stroke="#e67e22" stroke-width="1.5" d="M162,-1820.83C162,-1797.06 162,-1758.06 162,-1728.66"/>
<polygon fill="#e67e22" stroke="#e67e22" stroke-width="1.5" points="165.5,-1728.3 162,-1718.3 158.5,-1728.3 165.5,-1728.3"/>
<text text-anchor="middle" x="201.5" y="-1765.6" font-family="Arial" font-size="10.00" fill="#b0b0b0"> &#160;graphSLAMcall()</text>
</g>
<!-- skip_node -->
<g id="node5" class="node">
<title>skip_node</title>
<path fill="#7f8c8d" stroke="black" stroke-width="1.5" d="M143.5,-1591.05C143.5,-1591.05 28.5,-1591.05 28.5,-1591.05 22.5,-1591.05 16.5,-1585.05 16.5,-1579.05 16.5,-1579.05 16.5,-1567.05 16.5,-1567.05 16.5,-1561.05 22.5,-1555.05 28.5,-1555.05 28.5,-1555.05 143.5,-1555.05 143.5,-1555.05 149.5,-1555.05 155.5,-1561.05 155.5,-1567.05 155.5,-1567.05 155.5,-1579.05 155.5,-1579.05 155.5,-1585.05 149.5,-1591.05 143.5,-1591.05"/>
<text text-anchor="middle" x="86" y="-1576.05" font-family="Arial" font-size="10.00" fill="#e0e0e0">return &#45;1</text>
<text text-anchor="middle" x="86" y="-1565.05" font-family="Arial" font-size="10.00" fill="#e0e0e0">(Skip — chưa đủ di chuyển)</text>
</g>
<!-- check_thresh&#45;&gt;skip_node -->
<g id="edge8" class="edge">
<title>check_thresh&#45;&gt;skip_node</title>
<path fill="none" stroke="#e74c3c" stroke-width="1.5" d="M144.75,-1661.45C132.33,-1642.97 115.65,-1618.15 103.23,-1599.68"/>
<polygon fill="#e74c3c" stroke="#e74c3c" stroke-width="1.5" points="106,-1597.53 97.52,-1591.18 100.19,-1601.43 106,-1597.53"/>
<text text-anchor="middle" x="133.5" y="-1625.1" font-family="Arial" font-size="10.00" fill="#b0b0b0"> &#160;No</text>
</g>
<!-- map_baselink -->
<g id="node6" class="node">
<title>map_baselink</title>
<path fill="#1e6e3a" stroke="black" stroke-width="1.5" d="M272,-1591.05C272,-1591.05 204,-1591.05 204,-1591.05 198,-1591.05 192,-1585.05 192,-1579.05 192,-1579.05 192,-1567.05 192,-1567.05 192,-1561.05 198,-1555.05 204,-1555.05 204,-1555.05 272,-1555.05 272,-1555.05 278,-1555.05 284,-1561.05 284,-1567.05 284,-1567.05 284,-1579.05 284,-1579.05 284,-1585.05 278,-1591.05 272,-1591.05"/>
<text text-anchor="middle" x="238" y="-1570.55" font-family="Arial" font-size="10.00" fill="#e0e0e0">map &#45;&gt; base_link</text>
</g>
<!-- check_thresh&#45;&gt;map_baselink -->
<g id="edge9" class="edge">
<title>check_thresh&#45;&gt;map_baselink</title>
<path fill="none" stroke="#2ecc71" stroke-width="1.5" d="M179.25,-1661.45C191.67,-1642.97 208.35,-1618.15 220.77,-1599.68"/>
<polygon fill="#2ecc71" stroke="#2ecc71" stroke-width="1.5" points="223.81,-1601.43 226.48,-1591.18 218,-1597.53 223.81,-1601.43"/>
<text text-anchor="middle" x="216" y="-1625.1" font-family="Arial" font-size="10.00" fill="#b0b0b0"> &#160;Yes</text>
</g>
<!-- create_node -->
<g id="node7" class="node">
<title>create_node</title>
<path fill="#1e6e3a" stroke="black" stroke-width="1.5" d="M273,-1498C273,-1498 179,-1498 179,-1498 173,-1498 167,-1492 167,-1486 167,-1486 167,-1474 167,-1474 167,-1468 173,-1462 179,-1462 179,-1462 273,-1462 273,-1462 279,-1462 285,-1468 285,-1474 285,-1474 285,-1486 285,-1486 285,-1492 279,-1498 273,-1498"/>
<text text-anchor="middle" x="226" y="-1483" font-family="Arial" font-size="10.00" fill="#e0e0e0">Create Node2D(x, y, θ)</text>
<text text-anchor="middle" x="226" y="-1472" font-family="Arial" font-size="10.00" fill="#e0e0e0">+ cache LiDAR scan</text>
</g>
<!-- map_baselink&#45;&gt;create_node -->
<g id="edge10" class="edge">
<title>map_baselink&#45;&gt;create_node</title>
<path fill="none" stroke="#2ecc71" stroke-width="1.5" d="M235.74,-1554.92C234.02,-1541.83 231.6,-1523.5 229.61,-1508.38"/>
<polygon fill="#2ecc71" stroke="#2ecc71" stroke-width="1.5" points="233.02,-1507.51 228.25,-1498.05 226.08,-1508.42 233.02,-1507.51"/>
</g>
<!-- compute_edge -->
<g id="node8" class="node">
<title>compute_edge</title>
<path fill="#1e6e3a" stroke="black" stroke-width="1.5" d="M296,-1411C296,-1411 140,-1411 140,-1411 134,-1411 128,-1405 128,-1399 128,-1399 128,-1348 128,-1348 128,-1342 134,-1336 140,-1336 140,-1336 296,-1336 296,-1336 302,-1336 308,-1342 308,-1348 308,-1348 308,-1399 308,-1399 308,-1405 302,-1411 296,-1411"/>
<text text-anchor="middle" x="218" y="-1399" font-family="Arial" font-size="10.00" fill="#e0e0e0">Compute Odometry Edge z_{{i&#45;1}→i}:</text>
<text text-anchor="middle" x="218" y="-1388" font-family="Arial" font-size="10.00" fill="#e0e0e0">zx = &#160;cosθ·dx + sinθ·dy</text>
<text text-anchor="middle" x="218" y="-1377" font-family="Arial" font-size="10.00" fill="#e0e0e0">zy = &#45;sinθ·dx + cosθ·dy</text>
<text text-anchor="middle" x="218" y="-1366" font-family="Arial" font-size="10.00" fill="#e0e0e0">zθ = normalize(θ−θ_prev)</text>
<text text-anchor="middle" x="218" y="-1343" font-family="Arial" font-size="10.00" fill="#e0e0e0">Ω_odom = diag(50, 50, 80)</text>
</g>
<!-- create_node&#45;&gt;compute_edge -->
<g id="edge11" class="edge">
<title>create_node&#45;&gt;compute_edge</title>
<path fill="none" stroke="#2ecc71" stroke-width="1.5" d="M224.68,-1461.74C223.84,-1450.73 222.7,-1435.89 221.6,-1421.57"/>
<polygon fill="#2ecc71" stroke="#2ecc71" stroke-width="1.5" points="225.07,-1421 220.82,-1411.3 218.09,-1421.53 225.07,-1421"/>
</g>
<!-- add_edge_odom -->
<g id="node9" class="node">
<title>add_edge_odom</title>
<path fill="#1e6e3a" stroke="black" stroke-width="1.5" d="M285,-1285C285,-1285 151,-1285 151,-1285 145,-1285 139,-1279 139,-1273 139,-1273 139,-1261 139,-1261 139,-1255 145,-1249 151,-1249 151,-1249 285,-1249 285,-1249 291,-1249 297,-1255 297,-1261 297,-1261 297,-1273 297,-1273 297,-1279 291,-1285 285,-1285"/>
<text text-anchor="middle" x="218" y="-1270" font-family="Arial" font-size="10.00" fill="#e0e0e0">pose_graph.addEdge(i&#45;1, i, z, Ω)</text>
<text text-anchor="middle" x="218" y="-1259" font-family="Arial" font-size="10.00" fill="#e0e0e0">return new_idx</text>
</g>
<!-- compute_edge&#45;&gt;add_edge_odom -->
<g id="edge12" class="edge">
<title>compute_edge&#45;&gt;add_edge_odom</title>
<path fill="none" stroke="#2ecc71" stroke-width="1.5" d="M218,-1335.95C218,-1322.57 218,-1307.67 218,-1295.24"/>
<polygon fill="#2ecc71" stroke="#2ecc71" stroke-width="1.5" points="221.5,-1295.06 218,-1285.06 214.5,-1295.06 221.5,-1295.06"/>
</g>
<!-- stage1_prox -->
<g id="node10" class="node">
<title>stage1_prox</title>
<path fill="#2c1e3e" stroke="black" stroke-width="1.5" d="M318,-1174C318,-1174 140,-1174 140,-1174 134,-1174 128,-1168 128,-1162 128,-1162 128,-1134 128,-1134 128,-1128 134,-1122 140,-1122 140,-1122 318,-1122 318,-1122 324,-1122 330,-1128 330,-1134 330,-1134 330,-1162 330,-1162 330,-1168 324,-1174 318,-1174"/>
<text text-anchor="middle" x="229" y="-1162" font-family="Arial" font-size="10.00" fill="#e0e0e0">Stage 1 — Proximity Filter:</text>
<text text-anchor="middle" x="229" y="-1151" font-family="Arial" font-size="10.00" fill="#e0e0e0">for each old node i &lt; new_idx&#45;10:</text>
<text text-anchor="middle" x="229" y="-1140" font-family="Arial" font-size="10.00" fill="#e0e0e0"> &#160;if dist &lt; 2.0m &amp;&amp; |Δθ| &lt; 1.2rad</text>
<text text-anchor="middle" x="229" y="-1129" font-family="Arial" font-size="10.00" fill="#e0e0e0"> &#160;→ CANDIDATE</text>
</g>
<!-- add_edge_odom&#45;&gt;stage1_prox -->
<g id="edge13" class="edge">
<title>add_edge_odom&#45;&gt;stage1_prox</title>
<path fill="none" stroke="#e74c3c" stroke-width="1.5" d="M201.73,-1248.92C190.66,-1237.29 178,-1224 178,-1224 178,-1224 178,-1213 178,-1213 178,-1213 190.03,-1197.9 202.4,-1182.38"/>
<polygon fill="#e74c3c" stroke="#e74c3c" stroke-width="1.5" points="205.35,-1184.3 208.84,-1174.29 199.87,-1179.93 205.35,-1184.3"/>
<text text-anchor="middle" x="199.5" y="-1216" font-family="Arial" font-size="10.00" fill="#b0b0b0"> &#160;new_idx</text>
</g>
<!-- add_edge_odom&#45;&gt;stage1_prox -->
<!-- stage2_corr -->
<g id="node11" class="node">
<title>stage2_corr</title>
<path fill="#2c1e3e" stroke="black" stroke-width="1.5" d="M318,-1071C318,-1071 140,-1071 140,-1071 134,-1071 128,-1065 128,-1059 128,-1059 128,-1042 128,-1042 128,-1036 134,-1030 140,-1030 140,-1030 318,-1030 318,-1030 324,-1030 330,-1036 330,-1042 330,-1042 330,-1059 330,-1059 330,-1065 324,-1071 318,-1071"/>
<text text-anchor="middle" x="229" y="-1059" font-family="Arial" font-size="10.00" fill="#e0e0e0">Stage 2 — Scan Correlation:</text>
<text text-anchor="middle" x="229" y="-1048" font-family="Arial" font-size="10.00" fill="#e0e0e0">C = Σ r_i·r_j / (||r_i||·||r_j||)</text>
<text text-anchor="middle" x="229" y="-1037" font-family="Arial" font-size="10.00" fill="#e0e0e0">if C &gt; 0.80 → MATCH !</text>
</g>
<!-- stage1_prox&#45;&gt;stage2_corr -->
<g id="edge14" class="edge">
<title>stage1_prox&#45;&gt;stage2_corr</title>
<path fill="none" stroke="#e0e0e0" stroke-width="1.5" d="M229,-1121.91C229,-1109.56 229,-1094.58 229,-1081.62"/>
<polygon fill="#e0e0e0" stroke="#e0e0e0" stroke-width="1.5" points="232.5,-1081.31 229,-1071.31 225.5,-1081.31 232.5,-1081.31"/>
<text text-anchor="middle" x="202" y="-1104.76" font-family="Arial" font-size="10.00" fill="#b0b0b0"> &#160;candidates</text>
</g>
<!-- match_check -->
<g id="node13" class="node">
<title>match_check</title>
<path fill="#3e1e1e" stroke="black" stroke-width="1.5" d="M183.4,-975.93C183.4,-975.93 138.57,-964.07 138.57,-964.07 132.77,-962.53 132.77,-959.47 138.57,-957.93 138.57,-957.93 183.4,-946.07 183.4,-946.07 189.2,-944.53 200.8,-944.53 206.6,-946.07 206.6,-946.07 251.43,-957.93 251.43,-957.93 257.23,-959.47 257.23,-962.53 251.43,-964.07 251.43,-964.07 206.6,-975.93 206.6,-975.93 200.8,-977.47 189.2,-977.47 183.4,-975.93"/>
<text text-anchor="middle" x="195" y="-958.5" font-family="Arial" font-size="10.00" fill="#e0e0e0">Match Found ?</text>
</g>
<!-- stage2_corr&#45;&gt;match_check -->
<g id="edge15" class="edge">
<title>stage2_corr&#45;&gt;match_check</title>
<path fill="none" stroke="#e0e0e0" stroke-width="1.5" d="M221.28,-1029.64C216.38,-1017.03 209.99,-1000.59 204.74,-987.07"/>
<polygon fill="#e0e0e0" stroke="#e0e0e0" stroke-width="1.5" points="207.88,-985.47 200.99,-977.42 201.35,-988.01 207.88,-985.47"/>
</g>
<!-- stage3_edge -->
<g id="node12" class="node">
<title>stage3_edge</title>
<path fill="#6e1a2e" stroke="black" stroke-width="1.5" d="M284,-882C284,-882 106,-882 106,-882 100,-882 94,-876 94,-870 94,-870 94,-819 94,-819 94,-813 100,-807 106,-807 106,-807 284,-807 284,-807 290,-807 296,-813 296,-819 296,-819 296,-870 296,-870 296,-876 290,-882 284,-882"/>
<text text-anchor="middle" x="195" y="-870" font-family="Arial" font-size="10.00" fill="#e0e0e0">Stage 3 — Add Loop Edge:</text>
<text text-anchor="middle" x="195" y="-859" font-family="Arial" font-size="10.00" fill="#e0e0e0">δt = R_i^T·(t_j−t_i)</text>
<text text-anchor="middle" x="195" y="-848" font-family="Arial" font-size="10.00" fill="#e0e0e0">δθ = normalize(θ_j−θ_i)</text>
<text text-anchor="middle" x="195" y="-825" font-family="Arial" font-size="10.00" fill="#e0e0e0">Ω_loop = diag(200, 200, 400)</text>
<text text-anchor="middle" x="195" y="-814" font-family="Arial" font-size="10.00" fill="#e0e0e0">graph.addEdge(i, j, z, Ω, loop=true)</text>
</g>
<!-- check_loop -->
<g id="node14" class="node">
<title>check_loop</title>
<path fill="#2c3e50" stroke="black" stroke-width="1.5" d="M176.2,-729.8C176.2,-729.8 103.16,-716.2 103.16,-716.2 97.26,-715.1 97.26,-712.9 103.16,-711.8 103.16,-711.8 176.2,-698.2 176.2,-698.2 182.1,-697.1 193.9,-697.1 199.8,-698.2 199.8,-698.2 272.84,-711.8 272.84,-711.8 278.74,-712.9 278.74,-715.1 272.84,-716.2 272.84,-716.2 199.8,-729.8 199.8,-729.8 193.9,-730.9 182.1,-730.9 176.2,-729.8"/>
<text text-anchor="middle" x="188" y="-711.5" font-family="Arial" font-size="10.00" fill="#e0e0e0">new_loop_this_step_ ?</text>
</g>
<!-- stage3_edge&#45;&gt;check_loop -->
<!-- stage3_edge&#45;&gt;check_loop -->
<g id="edge20" class="edge">
<title>stage3_edge&#45;&gt;check_loop</title>
<path fill="none" stroke="#e74c3c" stroke-width="1.5" stroke-dasharray="5,2" d="M162.05,-806.66C150.34,-793.56 140,-782 140,-782 140,-782 140,-771 140,-771 140,-771 155.35,-753.09 168.69,-737.53"/>
<polygon fill="#e74c3c" stroke="#e74c3c" stroke-width="1.5" points="171.54,-739.58 175.39,-729.71 166.22,-735.03 171.54,-739.58"/>
<text text-anchor="middle" x="164.5" y="-774" font-family="Arial" font-size="10.00" fill="#b0b0b0"> &#160;new loop!</text>
</g>
<!-- match_check&#45;&gt;skip_node -->
<g id="edge17" class="edge">
<title>match_check&#45;&gt;skip_node</title>
<path fill="none" stroke="#7f8c8d" stroke-width="1.5" d="M177.52,-974.54C143.79,-998.73 73,-1049.5 73,-1049.5 73,-1481 73,-1481 73,-1481 73,-1481 78.29,-1518.06 82.12,-1544.89"/>
<polygon fill="#7f8c8d" stroke="#7f8c8d" stroke-width="1.5" points="78.68,-1545.52 83.55,-1554.92 85.61,-1544.53 78.68,-1545.52"/>
<text text-anchor="middle" x="82.5" y="-1264.5" font-family="Arial" font-size="10.00" fill="#b0b0b0"> &#160;No</text>
</g>
<!-- match_check&#45;&gt;stage3_edge -->
<g id="edge16" class="edge">
<title>match_check&#45;&gt;stage3_edge</title>
<path fill="none" stroke="#2ecc71" stroke-width="1.5" d="M195,-942.61C195,-929.22 195,-910.06 195,-892.29"/>
<polygon fill="#2ecc71" stroke="#2ecc71" stroke-width="1.5" points="198.5,-892.04 195,-882.04 191.5,-892.04 198.5,-892.04"/>
<text text-anchor="middle" x="230" y="-910" font-family="Arial" font-size="10.00" fill="#b0b0b0"> &#160;Yes (C &gt; 0.80)</text>
</g>
<!-- skip_opt -->
<g id="node15" class="node">
<title>skip_opt</title>
<path fill="#7f8c8d" stroke="black" stroke-width="1.5" d="M364.5,-635C364.5,-635 283.5,-635 283.5,-635 277.5,-635 271.5,-629 271.5,-623 271.5,-623 271.5,-611 271.5,-611 271.5,-605 277.5,-599 283.5,-599 283.5,-599 364.5,-599 364.5,-599 370.5,-599 376.5,-605 376.5,-611 376.5,-611 376.5,-623 376.5,-623 376.5,-629 370.5,-635 364.5,-635"/>
<text text-anchor="middle" x="324" y="-620" font-family="Arial" font-size="10.00" fill="#e0e0e0">return false</text>
<text text-anchor="middle" x="324" y="-609" font-family="Arial" font-size="10.00" fill="#e0e0e0">(Không có loop mới)</text>
</g>
<!-- check_loop&#45;&gt;skip_opt -->
<g id="edge21" class="edge">
<title>check_loop&#45;&gt;skip_opt</title>
<path fill="none" stroke="#7f8c8d" stroke-width="1.5" d="M206.03,-699.35C226.77,-683.65 258,-660 258,-660 258,-660 272.87,-650.54 288.49,-640.6"/>
<polygon fill="#7f8c8d" stroke="#7f8c8d" stroke-width="1.5" points="290.6,-643.4 297.16,-635.08 286.84,-637.5 290.6,-643.4"/>
<text text-anchor="middle" x="272" y="-663" font-family="Arial" font-size="10.00" fill="#b0b0b0"> &#160;false</text>
</g>
<!-- iter_loop -->
<g id="node16" class="node">
<title>iter_loop</title>
<polygon fill="#1a5276" stroke="black" stroke-width="1.5" points="235.5,-635 92.5,-635 92.5,-631 88.5,-631 88.5,-627 92.5,-627 92.5,-607 88.5,-607 88.5,-603 92.5,-603 92.5,-599 235.5,-599 235.5,-635"/>
<polyline fill="none" stroke="black" stroke-width="1.5" points="92.5,-631 96.5,-631 96.5,-627 92.5,-627 "/>
<polyline fill="none" stroke="black" stroke-width="1.5" points="92.5,-607 96.5,-607 96.5,-603 92.5,-603 "/>
<text text-anchor="middle" x="164" y="-620.2" font-family="Arial" font-size="11.00" fill="#e0e0e0">For iter = 0..9</text>
<text text-anchor="middle" x="164" y="-608.2" font-family="Arial" font-size="11.00" fill="#e0e0e0">(Gauss&#45;Newton iterations)</text>
</g>
<!-- check_loop&#45;&gt;iter_loop -->
<g id="edge22" class="edge">
<title>check_loop&#45;&gt;iter_loop</title>
<path fill="none" stroke="#2ecc71" stroke-width="1.5" d="M183.82,-696.45C180.27,-682.41 175.11,-661.98 170.94,-645.48"/>
<polygon fill="#2ecc71" stroke="#2ecc71" stroke-width="1.5" points="174.22,-644.16 168.38,-635.32 167.43,-645.87 174.22,-644.16"/>
<text text-anchor="middle" x="188.5" y="-663" font-family="Arial" font-size="10.00" fill="#b0b0b0"> &#160;true</text>
</g>
<!-- build_system -->
<g id="node17" class="node">
<title>build_system</title>
<path fill="#1e4a6e" stroke="black" stroke-width="1.5" d="M260,-548C260,-548 68,-548 68,-548 62,-548 56,-542 56,-536 56,-536 56,-442 56,-442 56,-436 62,-430 68,-430 68,-430 260,-430 260,-430 266,-430 272,-436 272,-442 272,-442 272,-536 272,-536 272,-542 266,-548 260,-548"/>
<text text-anchor="middle" x="164" y="-536.8" font-family="Arial" font-size="9.00" fill="#e0e0e0">Step 1+2 — Build H·Δξ = −b</text>
<text text-anchor="middle" x="164" y="-516.8" font-family="Arial" font-size="9.00" fill="#e0e0e0">for each edge (i,j):</text>
<text text-anchor="middle" x="164" y="-506.8" font-family="Arial" font-size="9.00" fill="#e0e0e0"> &#160;• e_ij = computeError(x_i, x_j, z)</text>
<text text-anchor="middle" x="164" y="-496.8" font-family="Arial" font-size="9.00" fill="#e0e0e0"> &#160;• A_ij, B_ij = computeJacobians()</text>
<text text-anchor="middle" x="164" y="-486.8" font-family="Arial" font-size="9.00" fill="#e0e0e0"> &#160;• H_ii += A^T·Ω·A</text>
<text text-anchor="middle" x="164" y="-476.8" font-family="Arial" font-size="9.00" fill="#e0e0e0"> &#160;• H_ij += A^T·Ω·B</text>
<text text-anchor="middle" x="164" y="-466.8" font-family="Arial" font-size="9.00" fill="#e0e0e0"> &#160;• H_ji += B^T·Ω·A</text>
<text text-anchor="middle" x="164" y="-456.8" font-family="Arial" font-size="9.00" fill="#e0e0e0"> &#160;• H_jj += B^T·Ω·B</text>
<text text-anchor="middle" x="164" y="-446.8" font-family="Arial" font-size="9.00" fill="#e0e0e0"> &#160;• b_i &#160;+= A^T·Ω·e</text>
<text text-anchor="middle" x="164" y="-436.8" font-family="Arial" font-size="9.00" fill="#e0e0e0"> &#160;• b_j &#160;+= B^T·Ω·e</text>
</g>
<!-- iter_loop&#45;&gt;build_system -->
<g id="edge23" class="edge">
<title>iter_loop&#45;&gt;build_system</title>
<path fill="none" stroke="#2ecc71" stroke-width="1.5" d="M164,-598.74C164,-588.01 164,-573.43 164,-558.44"/>
<polygon fill="#2ecc71" stroke="#2ecc71" stroke-width="1.5" points="167.5,-558.04 164,-548.04 160.5,-558.04 167.5,-558.04"/>
</g>
<!-- gauge_fix -->
<g id="node18" class="node">
<title>gauge_fix</title>
<path fill="#4a1e6e" stroke="black" stroke-width="1.5" d="M202.5,-379C202.5,-379 125.5,-379 125.5,-379 119.5,-379 113.5,-373 113.5,-367 113.5,-367 113.5,-333 113.5,-333 113.5,-327 119.5,-321 125.5,-321 125.5,-321 202.5,-321 202.5,-321 208.5,-321 214.5,-327 214.5,-333 214.5,-333 214.5,-367 214.5,-367 214.5,-373 208.5,-379 202.5,-379"/>
<text text-anchor="middle" x="164" y="-367.8" font-family="Arial" font-size="9.00" fill="#e0e0e0">Step 3 — Gauge Fix:</text>
<text text-anchor="middle" x="164" y="-357.8" font-family="Arial" font-size="9.00" fill="#e0e0e0">H[0,0] += 1e9</text>
<text text-anchor="middle" x="164" y="-347.8" font-family="Arial" font-size="9.00" fill="#e0e0e0">H[1,1] += 1e9</text>
<text text-anchor="middle" x="164" y="-337.8" font-family="Arial" font-size="9.00" fill="#e0e0e0">H[2,2] += 1e9</text>
<text text-anchor="middle" x="164" y="-327.8" font-family="Arial" font-size="9.00" fill="#e0e0e0">(anchor node 0)</text>
</g>
<!-- build_system&#45;&gt;gauge_fix -->
<g id="edge24" class="edge">
<title>build_system&#45;&gt;gauge_fix</title>
<path fill="none" stroke="#2ecc71" stroke-width="1.5" d="M164,-429.9C164,-416.23 164,-401.99 164,-389.43"/>
<polygon fill="#2ecc71" stroke="#2ecc71" stroke-width="1.5" points="167.5,-389.32 164,-379.32 160.5,-389.32 167.5,-389.32"/>
</g>
<!-- solve -->
<g id="node19" class="node">
<title>solve</title>
<path fill="#6e1e4a" stroke="black" stroke-width="1.5" d="M231,-270C231,-270 97,-270 97,-270 91,-270 85,-264 85,-258 85,-258 85,-224 85,-224 85,-218 91,-212 97,-212 97,-212 231,-212 231,-212 237,-212 243,-218 243,-224 243,-224 243,-258 243,-258 243,-264 237,-270 231,-270"/>
<text text-anchor="middle" x="164" y="-258.8" font-family="Arial" font-size="9.00" fill="#e0e0e0">Step 4 — Solve H·Δξ = −b</text>
<text text-anchor="middle" x="164" y="-248.8" font-family="Arial" font-size="9.00" fill="#e0e0e0">Gaussian Elimination with</text>
<text text-anchor="middle" x="164" y="-238.8" font-family="Arial" font-size="9.00" fill="#e0e0e0">partial pivoting</text>
<text text-anchor="middle" x="164" y="-218.8" font-family="Arial" font-size="9.00" fill="#e0e0e0">→ Δξ ∈ R^{3N}</text>
</g>
<!-- gauge_fix&#45;&gt;solve -->
<g id="edge25" class="edge">
<title>gauge_fix&#45;&gt;solve</title>
<path fill="none" stroke="#2ecc71" stroke-width="1.5" d="M164,-320.89C164,-308.57 164,-293.93 164,-280.62"/>
<polygon fill="#2ecc71" stroke="#2ecc71" stroke-width="1.5" points="167.5,-280.3 164,-270.3 160.5,-280.3 167.5,-280.3"/>
</g>
<!-- update -->
<g id="node20" class="node">
<title>update</title>
<path fill="#1e6e4a" stroke="black" stroke-width="1.5" d="M231,-161C231,-161 97,-161 97,-161 91,-161 85,-155 85,-149 85,-149 85,-115 85,-115 85,-109 91,-103 97,-103 97,-103 231,-103 231,-103 237,-103 243,-109 243,-115 243,-115 243,-149 243,-149 243,-155 237,-161 231,-161"/>
<text text-anchor="middle" x="164" y="-149.8" font-family="Arial" font-size="9.00" fill="#e0e0e0">Step 5 — Update Node Poses:</text>
<text text-anchor="middle" x="164" y="-139.8" font-family="Arial" font-size="9.00" fill="#e0e0e0">for each node i:</text>
<text text-anchor="middle" x="164" y="-129.8" font-family="Arial" font-size="9.00" fill="#e0e0e0"> &#160;x_i += Δξ[3i]</text>
<text text-anchor="middle" x="164" y="-119.8" font-family="Arial" font-size="9.00" fill="#e0e0e0"> &#160;y_i += Δξ[3i+1]</text>
<text text-anchor="middle" x="164" y="-109.8" font-family="Arial" font-size="9.00" fill="#e0e0e0"> &#160;θ_i = normalize(θ_i + Δξ[3i+2])</text>
</g>
<!-- solve&#45;&gt;update -->
<g id="edge26" class="edge">
<title>solve&#45;&gt;update</title>
<path fill="none" stroke="#2ecc71" stroke-width="1.5" d="M164,-211.89C164,-199.57 164,-184.93 164,-171.62"/>
<polygon fill="#2ecc71" stroke="#2ecc71" stroke-width="1.5" points="167.5,-171.3 164,-161.3 160.5,-171.3 167.5,-171.3"/>
</g>
<!-- optimized -->
<g id="node21" class="node">
<title>optimized</title>
<path fill="#1e6e3a" stroke="black" stroke-width="1.5" d="M212,-52C212,-52 116,-52 116,-52 110,-52 104,-46 104,-40 104,-40 104,-28 104,-28 104,-22 110,-16 116,-16 116,-16 212,-16 212,-16 218,-16 224,-22 224,-28 224,-28 224,-40 224,-40 224,-46 218,-52 212,-52"/>
<text text-anchor="middle" x="164" y="-37" font-family="Arial" font-size="10.00" fill="#e0e0e0">return true</text>
<text text-anchor="middle" x="164" y="-26" font-family="Arial" font-size="10.00" fill="#e0e0e0">(Node poses optimized)</text>
</g>
<!-- update&#45;&gt;optimized -->
<g id="edge27" class="edge">
<title>update&#45;&gt;optimized</title>
<path fill="none" stroke="#2ecc71" stroke-width="1.5" d="M164,-102.97C164,-90.09 164,-74.87 164,-62.1"/>
<polygon fill="#2ecc71" stroke="#2ecc71" stroke-width="1.5" points="167.5,-62.05 164,-52.05 160.5,-62.05 167.5,-62.05"/>
</g>
<!-- optimized&#45;&gt;slam_cb -->
<g id="edge28" class="edge">
<title>optimized&#45;&gt;slam_cb</title>
<path fill="none" stroke="#f39c12" stroke-width="1.5" stroke-dasharray="5,2" d="M188.48,-52.16C217.21,-72.3 261,-103 261,-103 261,-103 748,-1541 748,-1541 748,-1541 748,-1597.1 748,-1597.1 748,-1597.1 743,-1749.1 743,-1749.1 743,-1749.1 358,-1757.1 358,-1757.1 358,-1757.1 277.68,-1791.93 219.88,-1817"/>
<polygon fill="#f39c12" stroke="#f39c12" stroke-width="1.5" points="218.23,-1813.9 210.45,-1821.09 221.02,-1820.32 218.23,-1813.9"/>
<text text-anchor="middle" x="601.5" y="-958.5" font-family="Arial" font-size="10.00" fill="#b0b0b0"> &#160;updateMapOdom()</text>
</g>
<!-- bresenham -->
<g id="node23" class="node">
<title>bresenham</title>
<path fill="#3e4a1e" stroke="black" stroke-width="1.5" d="M572,-1712.1C572,-1712.1 394,-1712.1 394,-1712.1 388,-1712.1 382,-1706.1 382,-1700.1 382,-1700.1 382,-1676.1 382,-1676.1 382,-1670.1 388,-1664.1 394,-1664.1 394,-1664.1 572,-1664.1 572,-1664.1 578,-1664.1 584,-1670.1 584,-1676.1 584,-1676.1 584,-1700.1 584,-1700.1 584,-1706.1 578,-1712.1 572,-1712.1"/>
<text text-anchor="middle" x="483" y="-1700.9" font-family="Arial" font-size="9.00" fill="#e0e0e0">Bresenham Ray&#45;Cast:</text>
<text text-anchor="middle" x="483" y="-1690.9" font-family="Arial" font-size="9.00" fill="#e0e0e0">• Free cells → log_odds += &#45;0.4</text>
<text text-anchor="middle" x="483" y="-1680.9" font-family="Arial" font-size="9.00" fill="#e0e0e0">• Hit cell &#160;&#160;→ log_odds += +2.0</text>
<text text-anchor="middle" x="483" y="-1670.9" font-family="Arial" font-size="9.00" fill="#e0e0e0"> &#160;(clamped to ±10.0)</text>
</g>
<!-- incremental_update&#45;&gt;bresenham -->
<g id="edge4" class="edge">
<title>incremental_update&#45;&gt;bresenham</title>
<path fill="none" stroke="#f39c12" stroke-width="1.5" d="M483,-1803.89C483,-1778.75 483,-1746.19 483,-1722.17"/>
<polygon fill="#f39c12" stroke="#f39c12" stroke-width="1.5" points="486.5,-1722.12 483,-1712.12 479.5,-1722.12 486.5,-1722.12"/>
<text text-anchor="middle" x="504" y="-1765.6" font-family="Arial" font-size="10.00" fill="#b0b0b0"> &#160;ray&#45;cast</text>
</g>
<!-- map_timer -->
<g id="node24" class="node">
<title>map_timer</title>
<path fill="#4a3e1e" stroke="black" stroke-width="1.5" d="M561,-1592.05C561,-1592.05 405,-1592.05 405,-1592.05 399,-1592.05 393,-1586.05 393,-1580.05 393,-1580.05 393,-1566.05 393,-1566.05 393,-1560.05 399,-1554.05 405,-1554.05 405,-1554.05 561,-1554.05 561,-1554.05 567,-1554.05 573,-1560.05 573,-1566.05 573,-1566.05 573,-1580.05 573,-1580.05 573,-1586.05 567,-1592.05 561,-1592.05"/>
<text text-anchor="middle" x="483" y="-1580.85" font-family="Arial" font-size="9.00" fill="#e0e0e0">mapBuilderTimerCallback() [2Hz]:</text>
<text text-anchor="middle" x="483" y="-1570.85" font-family="Arial" font-size="9.00" fill="#e0e0e0">refreshCachedGrid()</text>
<text text-anchor="middle" x="483" y="-1560.85" font-family="Arial" font-size="9.00" fill="#e0e0e0">→ publish /map</text>
</g>
<!-- bresenham&#45;&gt;map_timer -->
<g id="edge5" class="edge">
<title>bresenham&#45;&gt;map_timer</title>
<path fill="none" stroke="#f39c12" stroke-width="1.5" stroke-dasharray="1,5" d="M483,-1663.95C483,-1646.15 483,-1621.48 483,-1602.49"/>
<polygon fill="#f39c12" stroke="#f39c12" stroke-width="1.5" points="486.5,-1602.33 483,-1592.33 479.5,-1602.33 486.5,-1602.33"/>
<text text-anchor="middle" x="523.5" y="-1625.1" font-family="Arial" font-size="10.00" fill="#b0b0b0"> &#160;log&#45;odds updated</text>
</g>
<!-- map_timer&#45;&gt;slam_cb -->
<g id="edge29" class="edge">
<title>map_timer&#45;&gt;slam_cb</title>
<path fill="none" stroke="#3498db" stroke-width="1.5" stroke-dasharray="1,5" d="M516.77,-1592.08C542.31,-1605.71 573,-1622.1 573,-1622.1 573,-1622.1 602,-1658.1 602,-1658.1 602,-1658.1 602,-1749.1 602,-1749.1 602,-1749.1 474,-1757.1 474,-1757.1 474,-1757.1 341.36,-1793.24 249.05,-1818.39"/>
<polygon fill="#3498db" stroke="#3498db" stroke-width="1.5" points="247.85,-1815.08 239.12,-1821.09 249.69,-1821.84 247.85,-1815.08"/>
<text text-anchor="middle" x="638.5" y="-1685.6" font-family="Arial" font-size="10.00" fill="#b0b0b0"> &#160;/map published</text>
</g>
<!-- viz_nodes -->
<g id="node25" class="node">
<title>viz_nodes</title>
<path fill="#1a4a6e" stroke="black" stroke-width="1.5" d="M933,-2141.1C933,-2141.1 801,-2141.1 801,-2141.1 795,-2141.1 789,-2135.1 789,-2129.1 789,-2129.1 789,-2117.1 789,-2117.1 789,-2111.1 795,-2105.1 801,-2105.1 801,-2105.1 933,-2105.1 933,-2105.1 939,-2105.1 945,-2111.1 945,-2117.1 945,-2117.1 945,-2129.1 945,-2129.1 945,-2135.1 939,-2141.1 933,-2141.1"/>
<text text-anchor="middle" x="867" y="-2126.1" font-family="Arial" font-size="10.00" fill="#e0e0e0">/slam_robot/graph_nodes</text>
<text text-anchor="middle" x="867" y="-2115.1" font-family="Arial" font-size="10.00" fill="#e0e0e0">PoseArray — tất cả node poses</text>
</g>
<!-- map_timer&#45;&gt;viz_nodes -->
<g id="edge30" class="edge">
<title>map_timer&#45;&gt;viz_nodes</title>
<path fill="none" stroke="#3498db" stroke-width="1.5" stroke-dasharray="1,5" d="M529.15,-1592.08C564.05,-1605.71 606,-1622.1 606,-1622.1 606,-1622.1 684,-1658.1 684,-1658.1 684,-1658.1 963,-1804.1 963,-1804.1 963,-1804.1 963,-1913.1 963,-1913.1 963,-1913.1 954,-2025.1 954,-2025.1 954,-2025.1 915.21,-2068.34 889.44,-2097.08"/>
<polygon fill="#3498db" stroke="#3498db" stroke-width="1.5" points="886.63,-2094.98 882.55,-2104.76 891.84,-2099.65 886.63,-2094.98"/>
<text text-anchor="middle" x="992" y="-1840.6" font-family="Arial" font-size="10.00" fill="#b0b0b0"> &#160;also publish</text>
</g>
<!-- viz_edges -->
<g id="node26" class="node">
<title>viz_edges</title>
<path fill="#1a4a6e" stroke="black" stroke-width="1.5" d="M924,-2017.1C924,-2017.1 810,-2017.1 810,-2017.1 804,-2017.1 798,-2011.1 798,-2005.1 798,-2005.1 798,-1977.1 798,-1977.1 798,-1971.1 804,-1965.1 810,-1965.1 810,-1965.1 924,-1965.1 924,-1965.1 930,-1965.1 936,-1971.1 936,-1977.1 936,-1977.1 936,-2005.1 936,-2005.1 936,-2011.1 930,-2017.1 924,-2017.1"/>
<text text-anchor="middle" x="867" y="-2005.1" font-family="Arial" font-size="10.00" fill="#e0e0e0">/slam_robot/graph_edges</text>
<text text-anchor="middle" x="867" y="-1994.1" font-family="Arial" font-size="10.00" fill="#e0e0e0">MarkerArray</text>
<text text-anchor="middle" x="867" y="-1983.1" font-family="Arial" font-size="10.00" fill="#e0e0e0">• Blue = odometry edges</text>
<text text-anchor="middle" x="867" y="-1972.1" font-family="Arial" font-size="10.00" fill="#e0e0e0">• Red &#160;= loop&#45;closure edges</text>
</g>
<!-- viz_nodes&#45;&gt;viz_edges -->
<!-- viz_loop -->
<g id="node27" class="node">
<title>viz_loop</title>
<path fill="#1a4a6e" stroke="black" stroke-width="1.5" d="M933,-1861.1C933,-1861.1 801,-1861.1 801,-1861.1 795,-1861.1 789,-1855.1 789,-1849.1 789,-1849.1 789,-1837.1 789,-1837.1 789,-1831.1 795,-1825.1 801,-1825.1 801,-1825.1 933,-1825.1 933,-1825.1 939,-1825.1 945,-1831.1 945,-1837.1 945,-1837.1 945,-1849.1 945,-1849.1 945,-1855.1 939,-1861.1 933,-1861.1"/>
<text text-anchor="middle" x="867" y="-1846.1" font-family="Arial" font-size="10.00" fill="#e0e0e0">/slam_robot/loop_closure_event</text>
<text text-anchor="middle" x="867" y="-1835.1" font-family="Arial" font-size="10.00" fill="#e0e0e0">String — thông báo loop closure</text>
</g>
<!-- viz_edges&#45;&gt;viz_loop -->
<!-- tf_map -->
<g id="node28" class="node">
<title>tf_map</title>
<path fill="#2c1e4a" stroke="black" stroke-width="1.5" d="M1229.78,-2099.08C1229.78,-2099.08 1232.5,-2099.18 1232.5,-2099.18 1232.71,-2099.19 1233.12,-2099.21 1233.33,-2099.22 1233.33,-2099.22 1236.02,-2099.37 1236.02,-2099.37 1236.22,-2099.38 1236.64,-2099.41 1236.84,-2099.43 1236.84,-2099.43 1239.48,-2099.63 1239.48,-2099.63 1239.69,-2099.64 1240.1,-2099.68 1240.3,-2099.7 1240.3,-2099.7 1242.88,-2099.94 1242.88,-2099.94 1243.09,-2099.96 1243.5,-2100.01 1243.7,-2100.03 1243.7,-2100.03 1246.2,-2100.33 1246.2,-2100.33 1246.41,-2100.35 1246.82,-2100.4 1247.02,-2100.43 1247.02,-2100.43 1249.43,-2100.77 1249.43,-2100.77 1249.64,-2100.8 1250.04,-2100.86 1250.25,-2100.89 1250.25,-2100.89 1252.56,-2101.27 1252.56,-2101.27 1252.76,-2101.31 1253.17,-2101.38 1253.37,-2101.42 1253.37,-2101.42 1255.57,-2101.84 1255.57,-2101.84 1255.77,-2101.87 1256.17,-2101.96 1256.37,-2102 1256.37,-2102 1258.45,-2102.46 1258.45,-2102.46 1258.65,-2102.5 1259.05,-2102.59 1259.25,-2102.64 1259.25,-2102.64 1261.19,-2103.13 1261.19,-2103.13 1261.39,-2103.18 1261.79,-2103.29 1261.99,-2103.34 1261.99,-2103.34 1263.79,-2103.86 1263.79,-2103.86 1263.99,-2103.92 1264.38,-2104.04 1264.58,-2104.1 1264.58,-2104.1 1266.23,-2104.64 1266.23,-2104.64 1266.43,-2104.7 1266.82,-2104.84 1267.01,-2104.91 1267.01,-2104.91 1268.51,-2105.47 1268.51,-2105.47 1268.71,-2105.54 1269.09,-2105.69 1269.28,-2105.77 1269.28,-2105.77 1270.63,-2106.34 1270.63,-2106.34 1270.82,-2106.42 1271.19,-2106.59 1271.38,-2106.69 1271.38,-2106.69 1272.56,-2107.26 1272.56,-2107.26 1272.75,-2107.35 1273.11,-2107.54 1273.29,-2107.64 1273.29,-2107.64 1274.32,-2108.22 1274.32,-2108.22 1274.5,-2108.32 1274.85,-2108.54 1275.03,-2108.65 1275.03,-2108.65 1275.9,-2109.22 1275.9,-2109.22 1276.07,-2109.33 1276.41,-2109.57 1276.57,-2109.7 1276.57,-2109.7 1277.29,-2110.25 1277.29,-2110.25 1277.45,-2110.38 1277.77,-2110.64 1277.92,-2110.78 1277.92,-2110.78 1278.5,-2111.32 1278.5,-2111.32 1278.65,-2111.46 1278.94,-2111.75 1279.08,-2111.9 1279.08,-2111.9 1279.53,-2112.41 1279.53,-2112.41 1279.66,-2112.57 1279.92,-2112.89 1280.04,-2113.06 1280.04,-2113.06 1280.37,-2113.54 1280.37,-2113.54 1280.49,-2113.71 1280.7,-2114.06 1280.8,-2114.24 1280.8,-2114.24 1281.03,-2114.69 1281.03,-2114.69 1281.13,-2114.87 1281.29,-2115.25 1281.36,-2115.44 1281.36,-2115.44 1281.51,-2115.86 1281.51,-2115.86 1281.58,-2116.06 1281.69,-2116.45 1281.73,-2116.66 1281.73,-2116.66 1281.82,-2117.07 1281.82,-2117.07 1281.86,-2117.27 1281.91,-2117.68 1281.92,-2117.88 1281.92,-2117.88 1281.94,-2118.29 1281.94,-2118.29 1281.95,-2118.5 1281.95,-2118.91 1281.93,-2119.12 1281.93,-2119.12 1281.89,-2119.54 1281.89,-2119.54 1281.87,-2119.75 1281.81,-2120.15 1281.77,-2120.36 1281.77,-2120.36 1281.67,-2120.81 1281.67,-2120.81 1281.62,-2121.01 1281.51,-2121.4 1281.44,-2121.6 1281.44,-2121.6 1281.27,-2122.08 1281.27,-2122.08 1281.2,-2122.27 1281.04,-2122.65 1280.95,-2122.84 1280.95,-2122.84 1280.7,-2123.36 1280.7,-2123.36 1280.61,-2123.54 1280.42,-2123.91 1280.31,-2124.08 1280.31,-2124.08 1279.98,-2124.64 1279.98,-2124.64 1279.87,-2124.81 1279.65,-2125.16 1279.53,-2125.33 1279.53,-2125.33 1279.11,-2125.91 1279.11,-2125.91 1278.99,-2126.08 1278.73,-2126.4 1278.6,-2126.56 1278.6,-2126.56 1278.09,-2127.18 1278.09,-2127.18 1277.96,-2127.33 1277.68,-2127.64 1277.54,-2127.79 1277.54,-2127.79 1276.94,-2128.43 1276.94,-2128.43 1276.8,-2128.58 1276.5,-2128.87 1276.35,-2129.01 1276.35,-2129.01 1275.66,-2129.66 1275.66,-2129.66 1275.51,-2129.81 1275.2,-2130.08 1275.05,-2130.21 1275.05,-2130.21 1274.26,-2130.88 1274.26,-2130.88 1274.11,-2131.01 1273.79,-2131.27 1273.63,-2131.4 1273.63,-2131.4 1272.76,-2132.07 1272.76,-2132.07 1272.6,-2132.2 1272.27,-2132.45 1272.1,-2132.56 1272.1,-2132.56 1271.16,-2133.24 1271.16,-2133.24 1270.99,-2133.36 1270.65,-2133.59 1270.48,-2133.71 1270.48,-2133.71 1269.46,-2134.38 1269.46,-2134.38 1269.29,-2134.49 1268.94,-2134.71 1268.76,-2134.82 1268.76,-2134.82 1267.67,-2135.48 1267.67,-2135.48 1267.5,-2135.59 1267.14,-2135.8 1266.96,-2135.9 1266.96,-2135.9 1265.81,-2136.55 1265.81,-2136.55 1265.64,-2136.65 1265.27,-2136.85 1265.09,-2136.95 1265.09,-2136.95 1263.88,-2137.58 1263.88,-2137.58 1263.7,-2137.68 1263.33,-2137.87 1263.15,-2137.96 1263.15,-2137.96 1261.89,-2138.58 1261.89,-2138.58 1261.71,-2138.67 1261.33,-2138.84 1261.15,-2138.93 1261.15,-2138.93 1259.84,-2139.52 1259.84,-2139.52 1259.65,-2139.61 1259.28,-2139.78 1259.09,-2139.86 1259.09,-2139.86 1257.74,-2140.43 1257.74,-2140.43 1257.55,-2140.51 1257.17,-2140.66 1256.98,-2140.74 1256.98,-2140.74 1255.6,-2141.28 1255.6,-2141.28 1255.4,-2141.36 1255.02,-2141.5 1254.83,-2141.57 1254.83,-2141.57 1253.41,-2142.09 1253.41,-2142.09 1253.22,-2142.16 1252.83,-2142.29 1252.64,-2142.36 1252.64,-2142.36 1251.2,-2142.84 1251.2,-2142.84 1251,-2142.9 1250.61,-2143.03 1250.41,-2143.09 1250.41,-2143.09 1248.95,-2143.53 1248.95,-2143.53 1248.75,-2143.6 1248.36,-2143.71 1248.16,-2143.77 1248.16,-2143.77 1246.68,-2144.18 1246.68,-2144.18 1246.48,-2144.23 1246.08,-2144.34 1245.88,-2144.39 1245.88,-2144.39 1244.38,-2144.76 1244.38,-2144.76 1244.18,-2144.81 1243.78,-2144.9 1243.58,-2144.95 1243.58,-2144.95 1242.07,-2145.28 1242.07,-2145.28 1241.87,-2145.33 1241.47,-2145.41 1241.26,-2145.45 1241.26,-2145.45 1239.74,-2145.75 1239.74,-2145.75 1239.54,-2145.79 1239.14,-2145.86 1238.93,-2145.89 1238.93,-2145.89 1237.41,-2146.15 1237.41,-2146.15 1237.2,-2146.18 1236.79,-2146.24 1236.59,-2146.27 1236.59,-2146.27 1235.06,-2146.49 1235.06,-2146.49 1234.85,-2146.51 1234.44,-2146.56 1234.24,-2146.59 1234.24,-2146.59 1232.7,-2146.76 1232.7,-2146.76 1232.49,-2146.78 1232.08,-2146.82 1231.88,-2146.84 1231.88,-2146.84 1230.34,-2146.97 1230.34,-2146.97 1230.13,-2146.98 1229.72,-2147.01 1229.51,-2147.02 1229.51,-2147.02 1227.97,-2147.11 1227.97,-2147.11 1227.76,-2147.12 1227.35,-2147.14 1227.14,-2147.15 1227.14,-2147.15 1225.6,-2147.19 1225.6,-2147.19 1225.39,-2147.19 1224.98,-2147.2 1224.77,-2147.2 1224.77,-2147.2 1223.23,-2147.2 1223.23,-2147.2 1223.02,-2147.2 1222.61,-2147.19 1222.4,-2147.19 1222.4,-2147.19 1220.86,-2147.15 1220.86,-2147.15 1220.65,-2147.14 1220.24,-2147.12 1220.03,-2147.11 1220.03,-2147.11 1218.49,-2147.02 1218.49,-2147.02 1218.28,-2147.01 1217.87,-2146.98 1217.66,-2146.97 1217.66,-2146.97 1216.12,-2146.84 1216.12,-2146.84 1215.92,-2146.82 1215.51,-2146.78 1215.3,-2146.76 1215.3,-2146.76 1213.76,-2146.59 1213.76,-2146.59 1213.56,-2146.56 1213.15,-2146.51 1212.94,-2146.49 1212.94,-2146.49 1211.41,-2146.27 1211.41,-2146.27 1211.21,-2146.24 1210.8,-2146.18 1210.59,-2146.15 1210.59,-2146.15 1209.07,-2145.89 1209.07,-2145.89 1208.86,-2145.86 1208.46,-2145.79 1208.26,-2145.75 1208.26,-2145.75 1206.74,-2145.45 1206.74,-2145.45 1206.53,-2145.41 1206.13,-2145.33 1205.93,-2145.28 1205.93,-2145.28 1204.42,-2144.95 1204.42,-2144.95 1204.22,-2144.9 1203.82,-2144.81 1203.62,-2144.76 1203.62,-2144.76 1202.12,-2144.39 1202.12,-2144.39 1201.92,-2144.34 1201.52,-2144.23 1201.32,-2144.18 1201.32,-2144.18 1199.84,-2143.77 1199.84,-2143.77 1199.64,-2143.71 1199.25,-2143.6 1199.05,-2143.53 1199.05,-2143.53 1197.59,-2143.09 1197.59,-2143.09 1197.39,-2143.03 1197,-2142.9 1196.8,-2142.84 1196.8,-2142.84 1195.36,-2142.36 1195.36,-2142.36 1195.17,-2142.29 1194.78,-2142.16 1194.59,-2142.09 1194.59,-2142.09 1193.17,-2141.57 1193.17,-2141.57 1192.98,-2141.5 1192.6,-2141.36 1192.4,-2141.28 1192.4,-2141.28 1191.02,-2140.74 1191.02,-2140.74 1190.83,-2140.66 1190.45,-2140.51 1190.26,-2140.43 1190.26,-2140.43 1188.91,-2139.86 1188.91,-2139.86 1188.72,-2139.78 1188.35,-2139.61 1188.16,-2139.52 1188.16,-2139.52 1186.85,-2138.93 1186.85,-2138.93 1186.67,-2138.84 1186.29,-2138.67 1186.11,-2138.58 1186.11,-2138.58 1184.85,-2137.96 1184.85,-2137.96 1184.67,-2137.87 1184.3,-2137.68 1184.12,-2137.58 1184.12,-2137.58 1182.91,-2136.95 1182.91,-2136.95 1182.73,-2136.85 1182.36,-2136.65 1182.19,-2136.55 1182.19,-2136.55 1181.04,-2135.9 1181.04,-2135.9 1180.86,-2135.8 1180.5,-2135.59 1180.33,-2135.48 1180.33,-2135.48 1179.24,-2134.82 1179.24,-2134.82 1179.06,-2134.71 1178.71,-2134.49 1178.54,-2134.38 1178.54,-2134.38 1177.52,-2133.71 1177.52,-2133.71 1177.35,-2133.59 1177.01,-2133.36 1176.84,-2133.24 1176.84,-2133.24 1175.9,-2132.56 1175.9,-2132.56 1175.73,-2132.45 1175.4,-2132.2 1175.24,-2132.07 1175.24,-2132.07 1174.37,-2131.4 1174.37,-2131.4 1174.21,-2131.27 1173.89,-2131.01 1173.74,-2130.88 1173.74,-2130.88 1172.95,-2130.21 1172.95,-2130.21 1172.8,-2130.08 1172.49,-2129.81 1172.34,-2129.66 1172.34,-2129.66 1171.65,-2129.01 1171.65,-2129.01 1171.5,-2128.87 1171.2,-2128.58 1171.06,-2128.43 1171.06,-2128.43 1170.46,-2127.79 1170.46,-2127.79 1170.32,-2127.64 1170.04,-2127.33 1169.91,-2127.18 1169.91,-2127.18 1169.4,-2126.56 1169.4,-2126.56 1169.27,-2126.4 1169.01,-2126.08 1168.89,-2125.91 1168.89,-2125.91 1168.47,-2125.33 1168.47,-2125.33 1168.35,-2125.16 1168.13,-2124.81 1168.02,-2124.64 1168.02,-2124.64 1167.69,-2124.08 1167.69,-2124.08 1167.58,-2123.91 1167.39,-2123.54 1167.3,-2123.36 1167.3,-2123.36 1167.05,-2122.84 1167.05,-2122.84 1166.96,-2122.65 1166.8,-2122.27 1166.73,-2122.08 1166.73,-2122.08 1166.56,-2121.6 1166.56,-2121.6 1166.49,-2121.4 1166.38,-2121.01 1166.33,-2120.81 1166.33,-2120.81 1166.23,-2120.36 1166.23,-2120.36 1166.19,-2120.15 1166.13,-2119.75 1166.11,-2119.54 1166.11,-2119.54 1166.07,-2119.12 1166.07,-2119.12 1166.05,-2118.91 1166.05,-2118.5 1166.06,-2118.29 1166.06,-2118.29 1166.08,-2117.88 1166.08,-2117.88 1166.09,-2117.68 1166.14,-2117.27 1166.18,-2117.07 1166.18,-2117.07 1166.27,-2116.66 1166.27,-2116.66 1166.31,-2116.45 1166.42,-2116.06 1166.49,-2115.86 1166.49,-2115.86 1166.64,-2115.44 1166.64,-2115.44 1166.71,-2115.25 1166.87,-2114.87 1166.97,-2114.69 1166.97,-2114.69 1167.2,-2114.24 1167.2,-2114.24 1167.3,-2114.06 1167.51,-2113.71 1167.63,-2113.54 1167.63,-2113.54 1167.96,-2113.06 1167.96,-2113.06 1168.08,-2112.89 1168.34,-2112.57 1168.47,-2112.41 1168.47,-2112.41 1168.92,-2111.9 1168.92,-2111.9 1169.06,-2111.75 1169.35,-2111.46 1169.5,-2111.32 1169.5,-2111.32 1170.08,-2110.78 1170.08,-2110.78 1170.23,-2110.64 1170.55,-2110.38 1170.71,-2110.25 1170.71,-2110.25 1171.43,-2109.7 1171.43,-2109.7 1171.59,-2109.57 1171.93,-2109.33 1172.1,-2109.22 1172.1,-2109.22 1172.97,-2108.65 1172.97,-2108.65 1173.15,-2108.54 1173.5,-2108.32 1173.68,-2108.22 1173.68,-2108.22 1174.71,-2107.64 1174.71,-2107.64 1174.89,-2107.54 1175.25,-2107.35 1175.44,-2107.26 1175.44,-2107.26 1176.62,-2106.69 1176.62,-2106.69 1176.81,-2106.59 1177.18,-2106.42 1177.37,-2106.34 1177.37,-2106.34 1178.72,-2105.77 1178.72,-2105.77 1178.91,-2105.69 1179.29,-2105.54 1179.49,-2105.47 1179.49,-2105.47 1180.99,-2104.91 1180.99,-2104.91 1181.18,-2104.84 1181.57,-2104.7 1181.77,-2104.64 1181.77,-2104.64 1183.42,-2104.1 1183.42,-2104.1 1183.62,-2104.04 1184.01,-2103.92 1184.21,-2103.86 1184.21,-2103.86 1186.01,-2103.34 1186.01,-2103.34 1186.21,-2103.29 1186.61,-2103.18 1186.81,-2103.13 1186.81,-2103.13 1188.75,-2102.64 1188.75,-2102.64 1188.95,-2102.59 1189.35,-2102.5 1189.55,-2102.46 1189.55,-2102.46 1191.63,-2102 1191.63,-2102 1191.83,-2101.96 1192.23,-2101.87 1192.43,-2101.84 1192.43,-2101.84 1194.63,-2101.42 1194.63,-2101.42 1194.83,-2101.38 1195.24,-2101.31 1195.44,-2101.27 1195.44,-2101.27 1197.75,-2100.89 1197.75,-2100.89 1197.96,-2100.86 1198.36,-2100.8 1198.57,-2100.77 1198.57,-2100.77 1200.98,-2100.43 1200.98,-2100.43 1201.18,-2100.4 1201.59,-2100.35 1201.8,-2100.33 1201.8,-2100.33 1204.3,-2100.03 1204.3,-2100.03 1204.5,-2100.01 1204.91,-2099.96 1205.12,-2099.94 1205.12,-2099.94 1207.7,-2099.7 1207.7,-2099.7 1207.9,-2099.68 1208.31,-2099.64 1208.52,-2099.63 1208.52,-2099.63 1211.16,-2099.43 1211.16,-2099.43 1211.36,-2099.41 1211.78,-2099.38 1211.98,-2099.37 1211.98,-2099.37 1214.67,-2099.22 1214.67,-2099.22 1214.88,-2099.21 1215.29,-2099.19 1215.5,-2099.18 1215.5,-2099.18 1218.22,-2099.08 1218.22,-2099.08 1218.43,-2099.07 1218.84,-2099.06 1219.05,-2099.06 1219.05,-2099.06 1221.8,-2099.01 1221.8,-2099.01 1222,-2099 1222.42,-2099 1222.62,-2099 1222.62,-2099 1225.38,-2099 1225.38,-2099 1225.58,-2099 1226,-2099 1226.2,-2099.01 1226.2,-2099.01 1228.95,-2099.06 1228.95,-2099.06 1229.16,-2099.06 1229.57,-2099.07 1229.78,-2099.08"/>
<text text-anchor="middle" x="1224" y="-2126.5" font-family="Arial" font-size="12.00" fill="#e0e0e0">map</text>
<text text-anchor="middle" x="1224" y="-2113.5" font-family="Arial" font-size="12.00" fill="#e0e0e0">(frame gốc)</text>
</g>
<!-- tf_map_odom -->
<g id="node29" class="node">
<title>tf_map_odom</title>
<polygon fill="#4a1e3e" stroke="black" stroke-width="1.5" points="1276,-2015.1 1166,-2015.1 1166,-1967.1 1282,-1967.1 1282,-2009.1 1276,-2015.1"/>
<polyline fill="none" stroke="black" stroke-width="1.5" points="1276,-2015.1 1276,-2009.1 "/>
<polyline fill="none" stroke="black" stroke-width="1.5" points="1282,-2009.1 1276,-2009.1 "/>
<text text-anchor="middle" x="1224" y="-2003.9" font-family="Arial" font-size="9.00" fill="#e0e0e0">broadcastMapOdomTF()</text>
<text text-anchor="middle" x="1224" y="-1993.9" font-family="Arial" font-size="9.00" fill="#e0e0e0">map_odom corrected</text>
<text text-anchor="middle" x="1224" y="-1983.9" font-family="Arial" font-size="9.00" fill="#e0e0e0">by Graph SLAM</text>
<text text-anchor="middle" x="1224" y="-1973.9" font-family="Arial" font-size="9.00" fill="#e0e0e0">(updated at 50Hz)</text>
</g>
<!-- tf_map&#45;&gt;tf_map_odom -->
<g id="edge33" class="edge">
<title>tf_map&#45;&gt;tf_map_odom</title>
<path fill="none" stroke="#9b59b6" stroke-width="1.5" d="M1224,-2098.86C1224,-2078.34 1224,-2048.19 1224,-2025.16"/>
<polygon fill="#9b59b6" stroke="#9b59b6" stroke-width="1.5" points="1227.5,-2025.14 1224,-2015.14 1220.5,-2025.14 1227.5,-2025.14"/>
</g>
<!-- tf_odom -->
<g id="node30" class="node">
<title>tf_odom</title>
<path fill="#2c1e4a" stroke="black" stroke-width="1.5" d="M1234.86,-1819.07C1234.86,-1819.07 1240.95,-1819.19 1240.95,-1819.19 1241.16,-1819.19 1241.57,-1819.2 1241.78,-1819.21 1241.78,-1819.21 1247.8,-1819.38 1247.8,-1819.38 1248,-1819.39 1248.42,-1819.4 1248.62,-1819.41 1248.62,-1819.41 1254.54,-1819.64 1254.54,-1819.64 1254.75,-1819.65 1255.16,-1819.67 1255.37,-1819.68 1255.37,-1819.68 1261.16,-1819.96 1261.16,-1819.96 1261.37,-1819.97 1261.78,-1820 1261.99,-1820.01 1261.99,-1820.01 1267.63,-1820.35 1267.63,-1820.35 1267.84,-1820.36 1268.25,-1820.39 1268.46,-1820.4 1268.46,-1820.4 1273.92,-1820.8 1273.92,-1820.8 1274.12,-1820.81 1274.54,-1820.84 1274.74,-1820.86 1274.74,-1820.86 1280,-1821.31 1280,-1821.31 1280.21,-1821.32 1280.62,-1821.36 1280.83,-1821.38 1280.83,-1821.38 1285.86,-1821.87 1285.86,-1821.87 1286.07,-1821.89 1286.48,-1821.94 1286.68,-1821.96 1286.68,-1821.96 1291.47,-1822.5 1291.47,-1822.5 1291.68,-1822.52 1292.09,-1822.57 1292.29,-1822.6 1292.29,-1822.6 1296.81,-1823.18 1296.81,-1823.18 1297.02,-1823.21 1297.43,-1823.26 1297.63,-1823.29 1297.63,-1823.29 1301.87,-1823.91 1301.87,-1823.91 1302.07,-1823.94 1302.48,-1824.01 1302.69,-1824.04 1302.69,-1824.04 1306.62,-1824.7 1306.62,-1824.7 1306.82,-1824.73 1307.23,-1824.81 1307.43,-1824.85 1307.43,-1824.85 1311.05,-1825.53 1311.05,-1825.53 1311.26,-1825.57 1311.66,-1825.66 1311.86,-1825.7 1311.86,-1825.7 1315.15,-1826.42 1315.15,-1826.42 1315.36,-1826.46 1315.76,-1826.55 1315.96,-1826.61 1315.96,-1826.61 1318.91,-1827.34 1318.91,-1827.34 1319.11,-1827.39 1319.51,-1827.5 1319.71,-1827.56 1319.71,-1827.56 1322.32,-1828.31 1322.32,-1828.31 1322.52,-1828.37 1322.91,-1828.49 1323.11,-1828.56 1323.11,-1828.56 1325.37,-1829.31 1325.37,-1829.31 1325.56,-1829.38 1325.95,-1829.52 1326.14,-1829.6 1326.14,-1829.6 1328.05,-1830.35 1328.05,-1830.35 1328.25,-1830.43 1328.63,-1830.59 1328.81,-1830.68 1328.81,-1830.68 1330.37,-1831.42 1330.37,-1831.42 1330.56,-1831.51 1330.93,-1831.7 1331.11,-1831.8 1331.11,-1831.8 1332.33,-1832.51 1332.33,-1832.51 1332.51,-1832.62 1332.85,-1832.84 1333.02,-1832.97 1333.02,-1832.97 1333.92,-1833.63 1333.92,-1833.63 1334.09,-1833.75 1334.4,-1834.02 1334.55,-1834.16 1334.55,-1834.16 1335.16,-1834.76 1335.16,-1834.76 1335.31,-1834.91 1335.58,-1835.22 1335.7,-1835.39 1335.7,-1835.39 1336.06,-1835.91 1336.06,-1835.91 1336.18,-1836.08 1336.37,-1836.45 1336.45,-1836.64 1336.45,-1836.64 1336.63,-1837.09 1336.63,-1837.09 1336.7,-1837.28 1336.8,-1837.68 1336.82,-1837.88 1336.82,-1837.88 1336.86,-1838.29 1336.86,-1838.29 1336.89,-1838.5 1336.87,-1838.91 1336.84,-1839.11 1336.84,-1839.11 1336.76,-1839.55 1336.76,-1839.55 1336.73,-1839.75 1336.61,-1840.14 1336.53,-1840.33 1336.53,-1840.33 1336.31,-1840.83 1336.31,-1840.83 1336.23,-1841.02 1336.03,-1841.38 1335.91,-1841.55 1335.91,-1841.55 1335.51,-1842.13 1335.51,-1842.13 1335.4,-1842.3 1335.14,-1842.62 1335,-1842.77 1335,-1842.77 1334.38,-1843.43 1334.38,-1843.43 1334.24,-1843.58 1333.94,-1843.87 1333.79,-1844 1333.79,-1844 1332.94,-1844.72 1332.94,-1844.72 1332.78,-1844.86 1332.46,-1845.11 1332.29,-1845.23 1332.29,-1845.23 1331.21,-1846.01 1331.21,-1846.01 1331.04,-1846.13 1330.69,-1846.35 1330.52,-1846.46 1330.52,-1846.46 1329.19,-1847.28 1329.19,-1847.28 1329.02,-1847.38 1328.66,-1847.59 1328.48,-1847.69 1328.48,-1847.69 1326.92,-1848.53 1326.92,-1848.53 1326.74,-1848.63 1326.37,-1848.82 1326.19,-1848.91 1326.19,-1848.91 1324.41,-1849.77 1324.41,-1849.77 1324.23,-1849.86 1323.85,-1850.03 1323.66,-1850.11 1323.66,-1850.11 1321.67,-1850.98 1321.67,-1850.98 1321.49,-1851.06 1321.1,-1851.22 1320.91,-1851.3 1320.91,-1851.3 1318.73,-1852.17 1318.73,-1852.17 1318.53,-1852.25 1318.15,-1852.4 1317.95,-1852.47 1317.95,-1852.47 1315.59,-1853.34 1315.59,-1853.34 1315.39,-1853.41 1315,-1853.54 1314.8,-1853.61 1314.8,-1853.61 1312.26,-1854.47 1312.26,-1854.47 1312.07,-1854.54 1311.68,-1854.67 1311.48,-1854.73 1311.48,-1854.73 1308.78,-1855.57 1308.78,-1855.57 1308.58,-1855.63 1308.19,-1855.75 1307.99,-1855.81 1307.99,-1855.81 1305.15,-1856.64 1305.15,-1856.64 1304.95,-1856.7 1304.55,-1856.81 1304.35,-1856.86 1304.35,-1856.86 1301.38,-1857.67 1301.38,-1857.67 1301.18,-1857.72 1300.78,-1857.83 1300.58,-1857.88 1300.58,-1857.88 1297.49,-1858.66 1297.49,-1858.66 1297.28,-1858.71 1296.88,-1858.8 1296.68,-1858.85 1296.68,-1858.85 1293.48,-1859.6 1293.48,-1859.6 1293.28,-1859.65 1292.88,-1859.74 1292.68,-1859.78 1292.68,-1859.78 1289.39,-1860.5 1289.39,-1860.5 1289.19,-1860.54 1288.78,-1860.63 1288.58,-1860.67 1288.58,-1860.67 1285.2,-1861.35 1285.2,-1861.35 1285,-1861.39 1284.59,-1861.47 1284.39,-1861.51 1284.39,-1861.51 1280.94,-1862.15 1280.94,-1862.15 1280.74,-1862.19 1280.33,-1862.26 1280.13,-1862.3 1280.13,-1862.3 1276.62,-1862.9 1276.62,-1862.9 1276.42,-1862.93 1276.01,-1863 1275.8,-1863.03 1275.8,-1863.03 1272.24,-1863.59 1272.24,-1863.59 1272.03,-1863.62 1271.62,-1863.68 1271.42,-1863.71 1271.42,-1863.71 1267.81,-1864.23 1267.81,-1864.23 1267.6,-1864.26 1267.19,-1864.31 1266.99,-1864.34 1266.99,-1864.34 1263.34,-1864.81 1263.34,-1864.81 1263.13,-1864.83 1262.72,-1864.88 1262.51,-1864.91 1262.51,-1864.91 1258.83,-1865.33 1258.83,-1865.33 1258.62,-1865.35 1258.21,-1865.39 1258.01,-1865.41 1258.01,-1865.41 1254.29,-1865.78 1254.29,-1865.78 1254.09,-1865.8 1253.67,-1865.84 1253.47,-1865.86 1253.47,-1865.86 1249.73,-1866.18 1249.73,-1866.18 1249.53,-1866.2 1249.11,-1866.23 1248.91,-1866.24 1248.91,-1866.24 1245.15,-1866.51 1245.15,-1866.51 1244.95,-1866.53 1244.53,-1866.55 1244.33,-1866.57 1244.33,-1866.57 1240.56,-1866.78 1240.56,-1866.78 1240.35,-1866.79 1239.94,-1866.81 1239.73,-1866.82 1239.73,-1866.82 1235.95,-1866.98 1235.95,-1866.98 1235.75,-1866.99 1235.33,-1867.01 1235.13,-1867.01 1235.13,-1867.01 1231.34,-1867.12 1231.34,-1867.12 1231.13,-1867.13 1230.72,-1867.14 1230.51,-1867.14 1230.51,-1867.14 1226.72,-1867.19 1226.72,-1867.19 1226.52,-1867.2 1226.1,-1867.2 1225.9,-1867.2 1225.9,-1867.2 1222.1,-1867.2 1222.1,-1867.2 1221.9,-1867.2 1221.48,-1867.2 1221.28,-1867.19 1221.28,-1867.19 1217.49,-1867.14 1217.49,-1867.14 1217.28,-1867.14 1216.87,-1867.13 1216.66,-1867.12 1216.66,-1867.12 1212.87,-1867.01 1212.87,-1867.01 1212.67,-1867.01 1212.25,-1866.99 1212.05,-1866.98 1212.05,-1866.98 1208.27,-1866.82 1208.27,-1866.82 1208.06,-1866.81 1207.65,-1866.79 1207.44,-1866.78 1207.44,-1866.78 1203.67,-1866.57 1203.67,-1866.57 1203.47,-1866.55 1203.05,-1866.53 1202.85,-1866.51 1202.85,-1866.51 1199.09,-1866.24 1199.09,-1866.24 1198.89,-1866.23 1198.47,-1866.2 1198.27,-1866.18 1198.27,-1866.18 1194.53,-1865.86 1194.53,-1865.86 1194.33,-1865.84 1193.91,-1865.8 1193.71,-1865.78 1193.71,-1865.78 1189.99,-1865.41 1189.99,-1865.41 1189.79,-1865.39 1189.38,-1865.35 1189.17,-1865.33 1189.17,-1865.33 1185.49,-1864.91 1185.49,-1864.91 1185.28,-1864.88 1184.87,-1864.83 1184.66,-1864.81 1184.66,-1864.81 1181.01,-1864.34 1181.01,-1864.34 1180.81,-1864.31 1180.4,-1864.26 1180.19,-1864.23 1180.19,-1864.23 1176.58,-1863.71 1176.58,-1863.71 1176.38,-1863.68 1175.97,-1863.62 1175.76,-1863.59 1175.76,-1863.59 1172.2,-1863.03 1172.2,-1863.03 1171.99,-1863 1171.58,-1862.93 1171.38,-1862.9 1171.38,-1862.9 1167.87,-1862.3 1167.87,-1862.3 1167.67,-1862.26 1167.26,-1862.19 1167.06,-1862.15 1167.06,-1862.15 1163.61,-1861.51 1163.61,-1861.51 1163.41,-1861.47 1163,-1861.39 1162.8,-1861.35 1162.8,-1861.35 1159.42,-1860.67 1159.42,-1860.67 1159.22,-1860.63 1158.81,-1860.54 1158.61,-1860.5 1158.61,-1860.5 1155.32,-1859.78 1155.32,-1859.78 1155.12,-1859.74 1154.72,-1859.65 1154.52,-1859.6 1154.52,-1859.6 1151.32,-1858.85 1151.32,-1858.85 1151.12,-1858.8 1150.72,-1858.71 1150.51,-1858.66 1150.51,-1858.66 1147.42,-1857.88 1147.42,-1857.88 1147.22,-1857.83 1146.82,-1857.72 1146.62,-1857.67 1146.62,-1857.67 1143.65,-1856.86 1143.65,-1856.86 1143.45,-1856.81 1143.05,-1856.7 1142.85,-1856.64 1142.85,-1856.64 1140.01,-1855.81 1140.01,-1855.81 1139.81,-1855.75 1139.42,-1855.63 1139.22,-1855.57 1139.22,-1855.57 1136.52,-1854.73 1136.52,-1854.73 1136.32,-1854.67 1135.93,-1854.54 1135.74,-1854.47 1135.74,-1854.47 1133.2,-1853.61 1133.2,-1853.61 1133,-1853.54 1132.61,-1853.41 1132.41,-1853.34 1132.41,-1853.34 1130.05,-1852.47 1130.05,-1852.47 1129.85,-1852.4 1129.47,-1852.25 1129.27,-1852.17 1129.27,-1852.17 1127.09,-1851.3 1127.09,-1851.3 1126.9,-1851.22 1126.51,-1851.06 1126.33,-1850.98 1126.33,-1850.98 1124.34,-1850.11 1124.34,-1850.11 1124.15,-1850.03 1123.77,-1849.86 1123.59,-1849.77 1123.59,-1849.77 1121.81,-1848.91 1121.81,-1848.91 1121.63,-1848.82 1121.26,-1848.63 1121.08,-1848.53 1121.08,-1848.53 1119.52,-1847.69 1119.52,-1847.69 1119.34,-1847.59 1118.98,-1847.38 1118.81,-1847.28 1118.81,-1847.28 1117.48,-1846.46 1117.48,-1846.46 1117.31,-1846.35 1116.96,-1846.13 1116.79,-1846.01 1116.79,-1846.01 1115.71,-1845.23 1115.71,-1845.23 1115.54,-1845.11 1115.22,-1844.86 1115.06,-1844.72 1115.06,-1844.72 1114.21,-1844 1114.21,-1844 1114.06,-1843.87 1113.76,-1843.58 1113.62,-1843.43 1113.62,-1843.43 1113,-1842.77 1113,-1842.77 1112.86,-1842.62 1112.6,-1842.3 1112.49,-1842.13 1112.49,-1842.13 1112.09,-1841.55 1112.09,-1841.55 1111.97,-1841.38 1111.77,-1841.02 1111.69,-1840.83 1111.69,-1840.83 1111.47,-1840.33 1111.47,-1840.33 1111.39,-1840.14 1111.27,-1839.75 1111.24,-1839.55 1111.24,-1839.55 1111.16,-1839.11 1111.16,-1839.11 1111.13,-1838.91 1111.11,-1838.5 1111.14,-1838.29 1111.14,-1838.29 1111.18,-1837.88 1111.18,-1837.88 1111.2,-1837.68 1111.3,-1837.28 1111.37,-1837.09 1111.37,-1837.09 1111.55,-1836.64 1111.55,-1836.64 1111.63,-1836.45 1111.82,-1836.08 1111.94,-1835.91 1111.94,-1835.91 1112.3,-1835.39 1112.3,-1835.39 1112.42,-1835.22 1112.69,-1834.91 1112.84,-1834.76 1112.84,-1834.76 1113.45,-1834.16 1113.45,-1834.16 1113.6,-1834.02 1113.91,-1833.75 1114.08,-1833.63 1114.08,-1833.63 1114.98,-1832.97 1114.98,-1832.97 1115.15,-1832.84 1115.49,-1832.62 1115.67,-1832.51 1115.67,-1832.51 1116.89,-1831.8 1116.89,-1831.8 1117.07,-1831.7 1117.44,-1831.51 1117.63,-1831.42 1117.63,-1831.42 1119.19,-1830.68 1119.19,-1830.68 1119.37,-1830.59 1119.75,-1830.43 1119.95,-1830.35 1119.95,-1830.35 1121.86,-1829.6 1121.86,-1829.6 1122.05,-1829.52 1122.44,-1829.38 1122.63,-1829.31 1122.63,-1829.31 1124.89,-1828.56 1124.89,-1828.56 1125.09,-1828.49 1125.48,-1828.37 1125.68,-1828.31 1125.68,-1828.31 1128.29,-1827.56 1128.29,-1827.56 1128.49,-1827.5 1128.89,-1827.39 1129.09,-1827.34 1129.09,-1827.34 1132.04,-1826.61 1132.04,-1826.61 1132.24,-1826.55 1132.64,-1826.46 1132.85,-1826.42 1132.85,-1826.42 1136.14,-1825.7 1136.14,-1825.7 1136.34,-1825.66 1136.74,-1825.57 1136.95,-1825.53 1136.95,-1825.53 1140.57,-1824.85 1140.57,-1824.85 1140.77,-1824.81 1141.18,-1824.73 1141.38,-1824.7 1141.38,-1824.7 1145.31,-1824.04 1145.31,-1824.04 1145.52,-1824.01 1145.93,-1823.94 1146.13,-1823.91 1146.13,-1823.91 1150.37,-1823.29 1150.37,-1823.29 1150.57,-1823.26 1150.98,-1823.21 1151.19,-1823.18 1151.19,-1823.18 1155.71,-1822.6 1155.71,-1822.6 1155.91,-1822.57 1156.32,-1822.52 1156.53,-1822.5 1156.53,-1822.5 1161.32,-1821.96 1161.32,-1821.96 1161.52,-1821.94 1161.93,-1821.89 1162.14,-1821.87 1162.14,-1821.87 1167.17,-1821.38 1167.17,-1821.38 1167.38,-1821.36 1167.79,-1821.32 1168,-1821.31 1168,-1821.31 1173.26,-1820.86 1173.26,-1820.86 1173.46,-1820.84 1173.88,-1820.81 1174.08,-1820.8 1174.08,-1820.8 1179.54,-1820.4 1179.54,-1820.4 1179.75,-1820.39 1180.16,-1820.36 1180.37,-1820.35 1180.37,-1820.35 1186.01,-1820.01 1186.01,-1820.01 1186.22,-1820 1186.63,-1819.97 1186.84,-1819.96 1186.84,-1819.96 1192.63,-1819.68 1192.63,-1819.68 1192.84,-1819.67 1193.25,-1819.65 1193.46,-1819.64 1193.46,-1819.64 1199.38,-1819.41 1199.38,-1819.41 1199.58,-1819.4 1200,-1819.39 1200.2,-1819.38 1200.2,-1819.38 1206.22,-1819.21 1206.22,-1819.21 1206.43,-1819.2 1206.84,-1819.19 1207.05,-1819.19 1207.05,-1819.19 1213.14,-1819.07 1213.14,-1819.07 1213.35,-1819.07 1213.76,-1819.06 1213.97,-1819.06 1213.97,-1819.06 1220.1,-1819 1220.1,-1819 1220.31,-1819 1220.72,-1819 1220.93,-1819 1220.93,-1819 1227.07,-1819 1227.07,-1819 1227.28,-1819 1227.69,-1819 1227.9,-1819 1227.9,-1819 1234.03,-1819.06 1234.03,-1819.06 1234.24,-1819.06 1234.65,-1819.07 1234.86,-1819.07"/>
<text text-anchor="middle" x="1224" y="-1846.5" font-family="Arial" font-size="12.00" fill="#e0e0e0">odom</text>
<text text-anchor="middle" x="1224" y="-1833.5" font-family="Arial" font-size="12.00" fill="#e0e0e0">(raw odometry — drifting)</text>
</g>
<!-- tf_map_odom&#45;&gt;tf_odom -->
<g id="edge34" class="edge">
<title>tf_map_odom&#45;&gt;tf_odom</title>
<path fill="none" stroke="#9b59b6" stroke-width="1.5" d="M1224,-1966.97C1224,-1942.97 1224,-1905.21 1224,-1877.88"/>
<polygon fill="#9b59b6" stroke="#9b59b6" stroke-width="1.5" points="1227.5,-1877.61 1224,-1867.61 1220.5,-1877.61 1227.5,-1877.61"/>
</g>
<!-- tf_base -->
<g id="node31" class="node">
<title>tf_base</title>
<path fill="#2c1e4a" stroke="black" stroke-width="1.5" d="M1232.3,-1664.08C1232.3,-1664.08 1236.69,-1664.19 1236.69,-1664.19 1236.9,-1664.19 1237.31,-1664.21 1237.51,-1664.21 1237.51,-1664.21 1241.85,-1664.38 1241.85,-1664.38 1242.06,-1664.39 1242.47,-1664.41 1242.68,-1664.42 1242.68,-1664.42 1246.94,-1664.64 1246.94,-1664.64 1247.15,-1664.65 1247.56,-1664.67 1247.77,-1664.68 1247.77,-1664.68 1251.94,-1664.96 1251.94,-1664.96 1252.14,-1664.97 1252.56,-1665 1252.76,-1665.02 1252.76,-1665.02 1256.82,-1665.34 1256.82,-1665.34 1257.02,-1665.36 1257.43,-1665.39 1257.64,-1665.41 1257.64,-1665.41 1261.56,-1665.79 1261.56,-1665.79 1261.77,-1665.81 1262.18,-1665.85 1262.38,-1665.87 1262.38,-1665.87 1266.15,-1666.29 1266.15,-1666.29 1266.36,-1666.32 1266.77,-1666.37 1266.97,-1666.39 1266.97,-1666.39 1270.57,-1666.86 1270.57,-1666.86 1270.78,-1666.89 1271.19,-1666.94 1271.39,-1666.97 1271.39,-1666.97 1274.81,-1667.48 1274.81,-1667.48 1275.01,-1667.51 1275.42,-1667.58 1275.62,-1667.61 1275.62,-1667.61 1278.84,-1668.16 1278.84,-1668.16 1279.04,-1668.2 1279.45,-1668.27 1279.65,-1668.31 1279.65,-1668.31 1282.65,-1668.89 1282.65,-1668.89 1282.85,-1668.93 1283.26,-1669.02 1283.46,-1669.06 1283.46,-1669.06 1286.24,-1669.68 1286.24,-1669.68 1286.44,-1669.72 1286.84,-1669.82 1287.04,-1669.87 1287.04,-1669.87 1289.58,-1670.51 1289.58,-1670.51 1289.78,-1670.56 1290.18,-1670.67 1290.38,-1670.73 1290.38,-1670.73 1292.68,-1671.39 1292.68,-1671.39 1292.88,-1671.45 1293.27,-1671.57 1293.47,-1671.63 1293.47,-1671.63 1295.52,-1672.31 1295.52,-1672.31 1295.71,-1672.38 1296.1,-1672.52 1296.3,-1672.59 1296.3,-1672.59 1298.09,-1673.28 1298.09,-1673.28 1298.28,-1673.35 1298.67,-1673.51 1298.85,-1673.59 1298.85,-1673.59 1300.4,-1674.28 1300.4,-1674.28 1300.58,-1674.36 1300.96,-1674.54 1301.14,-1674.64 1301.14,-1674.64 1302.43,-1675.31 1302.43,-1675.31 1302.61,-1675.41 1302.97,-1675.61 1303.14,-1675.72 1303.14,-1675.72 1304.19,-1676.38 1304.19,-1676.38 1304.36,-1676.49 1304.7,-1676.72 1304.86,-1676.85 1304.86,-1676.85 1305.67,-1677.47 1305.67,-1677.47 1305.84,-1677.6 1306.15,-1677.86 1306.3,-1678.01 1306.3,-1678.01 1306.89,-1678.59 1306.89,-1678.59 1307.04,-1678.73 1307.31,-1679.04 1307.44,-1679.2 1307.44,-1679.2 1307.84,-1679.73 1307.84,-1679.73 1307.97,-1679.89 1308.19,-1680.23 1308.28,-1680.42 1308.28,-1680.42 1308.53,-1680.89 1308.53,-1680.89 1308.63,-1681.07 1308.78,-1681.45 1308.84,-1681.65 1308.84,-1681.65 1308.97,-1682.08 1308.97,-1682.08 1309.03,-1682.27 1309.1,-1682.68 1309.12,-1682.88 1309.12,-1682.88 1309.15,-1683.29 1309.15,-1683.29 1309.17,-1683.5 1309.16,-1683.91 1309.13,-1684.12 1309.13,-1684.12 1309.08,-1684.54 1309.08,-1684.54 1309.05,-1684.75 1308.96,-1685.15 1308.89,-1685.35 1308.89,-1685.35 1308.74,-1685.82 1308.74,-1685.82 1308.67,-1686.01 1308.52,-1686.39 1308.42,-1686.57 1308.42,-1686.57 1308.15,-1687.1 1308.15,-1687.1 1308.05,-1687.29 1307.84,-1687.64 1307.72,-1687.81 1307.72,-1687.81 1307.3,-1688.39 1307.3,-1688.39 1307.19,-1688.56 1306.93,-1688.89 1306.79,-1689.04 1306.79,-1689.04 1306.23,-1689.68 1306.23,-1689.68 1306.09,-1689.84 1305.8,-1690.13 1305.65,-1690.27 1305.65,-1690.27 1304.93,-1690.96 1304.93,-1690.96 1304.78,-1691.1 1304.47,-1691.38 1304.31,-1691.51 1304.31,-1691.51 1303.42,-1692.23 1303.42,-1692.23 1303.26,-1692.36 1302.93,-1692.61 1302.76,-1692.73 1302.76,-1692.73 1301.71,-1693.49 1301.71,-1693.49 1301.55,-1693.61 1301.2,-1693.84 1301.03,-1693.95 1301.03,-1693.95 1299.82,-1694.72 1299.82,-1694.72 1299.65,-1694.84 1299.3,-1695.05 1299.12,-1695.15 1299.12,-1695.15 1297.76,-1695.94 1297.76,-1695.94 1297.58,-1696.04 1297.22,-1696.24 1297.04,-1696.34 1297.04,-1696.34 1295.54,-1697.13 1295.54,-1697.13 1295.36,-1697.23 1294.99,-1697.42 1294.81,-1697.51 1294.81,-1697.51 1293.18,-1698.3 1293.18,-1698.3 1292.99,-1698.39 1292.62,-1698.56 1292.43,-1698.65 1292.43,-1698.65 1290.67,-1699.43 1290.67,-1699.43 1290.48,-1699.52 1290.11,-1699.68 1289.91,-1699.76 1289.91,-1699.76 1288.05,-1700.54 1288.05,-1700.54 1287.86,-1700.62 1287.47,-1700.77 1287.28,-1700.84 1287.28,-1700.84 1285.31,-1701.61 1285.31,-1701.61 1285.11,-1701.68 1284.73,-1701.82 1284.53,-1701.89 1284.53,-1701.89 1282.46,-1702.64 1282.46,-1702.64 1282.27,-1702.71 1281.88,-1702.84 1281.68,-1702.91 1281.68,-1702.91 1279.53,-1703.63 1279.53,-1703.63 1279.33,-1703.69 1278.94,-1703.82 1278.74,-1703.88 1278.74,-1703.88 1276.51,-1704.57 1276.51,-1704.57 1276.32,-1704.63 1275.92,-1704.75 1275.72,-1704.81 1275.72,-1704.81 1273.42,-1705.47 1273.42,-1705.47 1273.23,-1705.53 1272.83,-1705.64 1272.63,-1705.69 1272.63,-1705.69 1270.27,-1706.33 1270.27,-1706.33 1270.07,-1706.38 1269.67,-1706.48 1269.47,-1706.53 1269.47,-1706.53 1267.06,-1707.13 1267.06,-1707.13 1266.86,-1707.18 1266.45,-1707.27 1266.25,-1707.32 1266.25,-1707.32 1263.79,-1707.88 1263.79,-1707.88 1263.59,-1707.92 1263.19,-1708.01 1262.99,-1708.05 1262.99,-1708.05 1260.49,-1708.57 1260.49,-1708.57 1260.29,-1708.61 1259.88,-1708.69 1259.68,-1708.73 1259.68,-1708.73 1257.15,-1709.21 1257.15,-1709.21 1256.94,-1709.25 1256.54,-1709.32 1256.33,-1709.36 1256.33,-1709.36 1253.77,-1709.79 1253.77,-1709.79 1253.57,-1709.82 1253.16,-1709.89 1252.96,-1709.92 1252.96,-1709.92 1250.37,-1710.31 1250.37,-1710.31 1250.17,-1710.34 1249.76,-1710.4 1249.56,-1710.43 1249.56,-1710.43 1246.95,-1710.77 1246.95,-1710.77 1246.75,-1710.8 1246.34,-1710.85 1246.13,-1710.87 1246.13,-1710.87 1243.51,-1711.17 1243.51,-1711.17 1243.31,-1711.19 1242.9,-1711.23 1242.69,-1711.25 1242.69,-1711.25 1240.06,-1711.5 1240.06,-1711.5 1239.85,-1711.52 1239.44,-1711.56 1239.24,-1711.57 1239.24,-1711.57 1236.59,-1711.77 1236.59,-1711.77 1236.39,-1711.79 1235.98,-1711.82 1235.77,-1711.83 1235.77,-1711.83 1233.12,-1711.98 1233.12,-1711.98 1232.91,-1711.99 1232.5,-1712.01 1232.29,-1712.02 1232.29,-1712.02 1229.64,-1712.12 1229.64,-1712.12 1229.43,-1712.13 1229.02,-1712.14 1228.81,-1712.14 1228.81,-1712.14 1226.16,-1712.19 1226.16,-1712.19 1225.95,-1712.2 1225.54,-1712.2 1225.33,-1712.2 1225.33,-1712.2 1222.67,-1712.2 1222.67,-1712.2 1222.46,-1712.2 1222.05,-1712.2 1221.84,-1712.19 1221.84,-1712.19 1219.19,-1712.14 1219.19,-1712.14 1218.98,-1712.14 1218.57,-1712.13 1218.36,-1712.12 1218.36,-1712.12 1215.71,-1712.02 1215.71,-1712.02 1215.5,-1712.01 1215.09,-1711.99 1214.88,-1711.98 1214.88,-1711.98 1212.23,-1711.83 1212.23,-1711.83 1212.02,-1711.82 1211.61,-1711.79 1211.41,-1711.77 1211.41,-1711.77 1208.76,-1711.57 1208.76,-1711.57 1208.56,-1711.56 1208.15,-1711.52 1207.94,-1711.5 1207.94,-1711.5 1205.31,-1711.25 1205.31,-1711.25 1205.1,-1711.23 1204.69,-1711.19 1204.49,-1711.17 1204.49,-1711.17 1201.87,-1710.87 1201.87,-1710.87 1201.66,-1710.85 1201.25,-1710.8 1201.05,-1710.77 1201.05,-1710.77 1198.44,-1710.43 1198.44,-1710.43 1198.24,-1710.4 1197.83,-1710.34 1197.63,-1710.31 1197.63,-1710.31 1195.04,-1709.92 1195.04,-1709.92 1194.84,-1709.89 1194.43,-1709.82 1194.23,-1709.79 1194.23,-1709.79 1191.67,-1709.36 1191.67,-1709.36 1191.46,-1709.32 1191.06,-1709.25 1190.85,-1709.21 1190.85,-1709.21 1188.32,-1708.73 1188.32,-1708.73 1188.12,-1708.69 1187.71,-1708.61 1187.51,-1708.57 1187.51,-1708.57 1185.01,-1708.05 1185.01,-1708.05 1184.81,-1708.01 1184.41,-1707.92 1184.21,-1707.88 1184.21,-1707.88 1181.75,-1707.32 1181.75,-1707.32 1181.55,-1707.27 1181.14,-1707.18 1180.94,-1707.13 1180.94,-1707.13 1178.53,-1706.53 1178.53,-1706.53 1178.33,-1706.48 1177.93,-1706.38 1177.73,-1706.33 1177.73,-1706.33 1175.37,-1705.69 1175.37,-1705.69 1175.17,-1705.64 1174.77,-1705.53 1174.58,-1705.47 1174.58,-1705.47 1172.28,-1704.81 1172.28,-1704.81 1172.08,-1704.75 1171.68,-1704.63 1171.49,-1704.57 1171.49,-1704.57 1169.26,-1703.88 1169.26,-1703.88 1169.06,-1703.82 1168.67,-1703.69 1168.47,-1703.63 1168.47,-1703.63 1166.32,-1702.91 1166.32,-1702.91 1166.12,-1702.84 1165.73,-1702.71 1165.54,-1702.64 1165.54,-1702.64 1163.47,-1701.89 1163.47,-1701.89 1163.27,-1701.82 1162.89,-1701.68 1162.69,-1701.61 1162.69,-1701.61 1160.72,-1700.84 1160.72,-1700.84 1160.53,-1700.77 1160.14,-1700.62 1159.95,-1700.54 1159.95,-1700.54 1158.09,-1699.76 1158.09,-1699.76 1157.89,-1699.68 1157.52,-1699.52 1157.33,-1699.43 1157.33,-1699.43 1155.57,-1698.65 1155.57,-1698.65 1155.38,-1698.56 1155.01,-1698.39 1154.82,-1698.3 1154.82,-1698.3 1153.19,-1697.51 1153.19,-1697.51 1153.01,-1697.42 1152.64,-1697.23 1152.46,-1697.13 1152.46,-1697.13 1150.96,-1696.34 1150.96,-1696.34 1150.78,-1696.24 1150.42,-1696.04 1150.24,-1695.94 1150.24,-1695.94 1148.88,-1695.15 1148.88,-1695.15 1148.7,-1695.05 1148.35,-1694.84 1148.18,-1694.72 1148.18,-1694.72 1146.97,-1693.95 1146.97,-1693.95 1146.8,-1693.84 1146.45,-1693.61 1146.29,-1693.49 1146.29,-1693.49 1145.24,-1692.73 1145.24,-1692.73 1145.07,-1692.61 1144.74,-1692.36 1144.58,-1692.23 1144.58,-1692.23 1143.69,-1691.51 1143.69,-1691.51 1143.53,-1691.38 1143.22,-1691.1 1143.07,-1690.96 1143.07,-1690.96 1142.35,-1690.27 1142.35,-1690.27 1142.2,-1690.13 1141.91,-1689.84 1141.77,-1689.68 1141.77,-1689.68 1141.21,-1689.04 1141.21,-1689.04 1141.07,-1688.89 1140.81,-1688.56 1140.7,-1688.39 1140.7,-1688.39 1140.28,-1687.81 1140.28,-1687.81 1140.16,-1687.64 1139.95,-1687.29 1139.85,-1687.1 1139.85,-1687.1 1139.58,-1686.57 1139.58,-1686.57 1139.48,-1686.39 1139.33,-1686.01 1139.26,-1685.82 1139.26,-1685.82 1139.11,-1685.35 1139.11,-1685.35 1139.04,-1685.15 1138.95,-1684.75 1138.92,-1684.54 1138.92,-1684.54 1138.87,-1684.12 1138.87,-1684.12 1138.84,-1683.91 1138.83,-1683.5 1138.85,-1683.29 1138.85,-1683.29 1138.88,-1682.88 1138.88,-1682.88 1138.9,-1682.68 1138.97,-1682.27 1139.03,-1682.08 1139.03,-1682.08 1139.16,-1681.65 1139.16,-1681.65 1139.22,-1681.45 1139.37,-1681.07 1139.47,-1680.89 1139.47,-1680.89 1139.72,-1680.42 1139.72,-1680.42 1139.81,-1680.23 1140.03,-1679.89 1140.16,-1679.73 1140.16,-1679.73 1140.56,-1679.2 1140.56,-1679.2 1140.69,-1679.04 1140.96,-1678.73 1141.11,-1678.59 1141.11,-1678.59 1141.7,-1678.01 1141.7,-1678.01 1141.85,-1677.86 1142.16,-1677.6 1142.33,-1677.47 1142.33,-1677.47 1143.14,-1676.85 1143.14,-1676.85 1143.3,-1676.72 1143.64,-1676.49 1143.81,-1676.38 1143.81,-1676.38 1144.86,-1675.72 1144.86,-1675.72 1145.03,-1675.61 1145.39,-1675.41 1145.57,-1675.31 1145.57,-1675.31 1146.86,-1674.64 1146.86,-1674.64 1147.04,-1674.54 1147.42,-1674.36 1147.6,-1674.28 1147.6,-1674.28 1149.15,-1673.59 1149.15,-1673.59 1149.33,-1673.51 1149.72,-1673.35 1149.91,-1673.28 1149.91,-1673.28 1151.7,-1672.59 1151.7,-1672.59 1151.9,-1672.52 1152.29,-1672.38 1152.48,-1672.31 1152.48,-1672.31 1154.53,-1671.63 1154.53,-1671.63 1154.73,-1671.57 1155.12,-1671.45 1155.32,-1671.39 1155.32,-1671.39 1157.62,-1670.73 1157.62,-1670.73 1157.82,-1670.67 1158.22,-1670.56 1158.42,-1670.51 1158.42,-1670.51 1160.96,-1669.87 1160.96,-1669.87 1161.16,-1669.82 1161.56,-1669.72 1161.76,-1669.68 1161.76,-1669.68 1164.54,-1669.06 1164.54,-1669.06 1164.74,-1669.02 1165.15,-1668.93 1165.35,-1668.89 1165.35,-1668.89 1168.35,-1668.31 1168.35,-1668.31 1168.55,-1668.27 1168.96,-1668.2 1169.16,-1668.16 1169.16,-1668.16 1172.38,-1667.61 1172.38,-1667.61 1172.58,-1667.58 1172.99,-1667.51 1173.19,-1667.48 1173.19,-1667.48 1176.61,-1666.97 1176.61,-1666.97 1176.81,-1666.94 1177.22,-1666.89 1177.43,-1666.86 1177.43,-1666.86 1181.03,-1666.39 1181.03,-1666.39 1181.23,-1666.37 1181.64,-1666.32 1181.85,-1666.29 1181.85,-1666.29 1185.62,-1665.87 1185.62,-1665.87 1185.82,-1665.85 1186.23,-1665.81 1186.44,-1665.79 1186.44,-1665.79 1190.36,-1665.41 1190.36,-1665.41 1190.57,-1665.39 1190.98,-1665.36 1191.18,-1665.34 1191.18,-1665.34 1195.24,-1665.02 1195.24,-1665.02 1195.44,-1665 1195.86,-1664.97 1196.06,-1664.96 1196.06,-1664.96 1200.23,-1664.68 1200.23,-1664.68 1200.44,-1664.67 1200.85,-1664.65 1201.06,-1664.64 1201.06,-1664.64 1205.32,-1664.42 1205.32,-1664.42 1205.53,-1664.41 1205.94,-1664.39 1206.15,-1664.38 1206.15,-1664.38 1210.49,-1664.21 1210.49,-1664.21 1210.69,-1664.21 1211.1,-1664.19 1211.31,-1664.19 1211.31,-1664.19 1215.7,-1664.08 1215.7,-1664.08 1215.91,-1664.07 1216.32,-1664.06 1216.53,-1664.06 1216.53,-1664.06 1220.96,-1664.01 1220.96,-1664.01 1221.16,-1664 1221.58,-1664 1221.78,-1664 1221.78,-1664 1226.22,-1664 1226.22,-1664 1226.42,-1664 1226.84,-1664 1227.04,-1664.01 1227.04,-1664.01 1231.47,-1664.06 1231.47,-1664.06 1231.68,-1664.06 1232.09,-1664.07 1232.3,-1664.08"/>
<text text-anchor="middle" x="1224" y="-1691.5" font-family="Arial" font-size="12.00" fill="#e0e0e0">base_link</text>
<text text-anchor="middle" x="1224" y="-1678.5" font-family="Arial" font-size="12.00" fill="#e0e0e0">(robot base frame)</text>
</g>
<!-- tf_odom&#45;&gt;tf_base -->
<g id="edge35" class="edge">
<title>tf_odom&#45;&gt;tf_base</title>
<path fill="none" stroke="#9b59b6" stroke-width="1.5" d="M1224,-1818.86C1224,-1793.25 1224,-1751.83 1224,-1722.68"/>
<polygon fill="#9b59b6" stroke="#9b59b6" stroke-width="1.5" points="1227.5,-1722.56 1224,-1712.56 1220.5,-1722.56 1227.5,-1722.56"/>
<text text-anchor="middle" x="1257" y="-1771.1" font-family="Arial" font-size="10.00" fill="#b0b0b0"> &#160;/odom → /tf</text>
<text text-anchor="middle" x="1257" y="-1760.1" font-family="Arial" font-size="10.00" fill="#b0b0b0">(raw odometry)</text>
</g>
<!-- tf_scan -->
<g id="node32" class="node">
<title>tf_scan</title>
<path fill="#2c1e4a" stroke="black" stroke-width="1.5" d="M1230.2,-1549.03C1230.2,-1549.03 1233.2,-1549.13 1233.2,-1549.13 1233.41,-1549.14 1233.82,-1549.16 1234.02,-1549.17 1234.02,-1549.17 1236.99,-1549.32 1236.99,-1549.32 1237.2,-1549.33 1237.61,-1549.36 1237.81,-1549.37 1237.81,-1549.37 1240.73,-1549.58 1240.73,-1549.58 1240.93,-1549.59 1241.34,-1549.63 1241.55,-1549.64 1241.55,-1549.64 1244.39,-1549.9 1244.39,-1549.9 1244.6,-1549.92 1245.01,-1549.96 1245.21,-1549.98 1245.21,-1549.98 1247.97,-1550.28 1247.97,-1550.28 1248.18,-1550.3 1248.59,-1550.35 1248.79,-1550.38 1248.79,-1550.38 1251.45,-1550.72 1251.45,-1550.72 1251.66,-1550.75 1252.07,-1550.81 1252.27,-1550.84 1252.27,-1550.84 1254.82,-1551.23 1254.82,-1551.23 1255.03,-1551.26 1255.43,-1551.33 1255.64,-1551.36 1255.64,-1551.36 1258.07,-1551.79 1258.07,-1551.79 1258.27,-1551.83 1258.67,-1551.9 1258.88,-1551.95 1258.88,-1551.95 1261.17,-1552.41 1261.17,-1552.41 1261.38,-1552.45 1261.78,-1552.54 1261.98,-1552.59 1261.98,-1552.59 1264.13,-1553.09 1264.13,-1553.09 1264.33,-1553.14 1264.73,-1553.23 1264.93,-1553.29 1264.93,-1553.29 1266.93,-1553.82 1266.93,-1553.82 1267.13,-1553.87 1267.53,-1553.98 1267.73,-1554.04 1267.73,-1554.04 1269.57,-1554.6 1269.57,-1554.6 1269.76,-1554.66 1270.16,-1554.79 1270.35,-1554.85 1270.35,-1554.85 1272.02,-1555.43 1272.02,-1555.43 1272.22,-1555.5 1272.61,-1555.64 1272.8,-1555.71 1272.8,-1555.71 1274.3,-1556.3 1274.3,-1556.3 1274.49,-1556.38 1274.87,-1556.54 1275.06,-1556.62 1275.06,-1556.62 1276.39,-1557.22 1276.39,-1557.22 1276.57,-1557.31 1276.95,-1557.49 1277.13,-1557.58 1277.13,-1557.58 1278.28,-1558.18 1278.28,-1558.18 1278.46,-1558.28 1278.82,-1558.48 1279,-1558.59 1279,-1558.59 1279.98,-1559.18 1279.98,-1559.18 1280.15,-1559.29 1280.5,-1559.51 1280.67,-1559.63 1280.67,-1559.63 1281.48,-1560.21 1281.48,-1560.21 1281.65,-1560.33 1281.97,-1560.59 1282.13,-1560.72 1282.13,-1560.72 1282.78,-1561.28 1282.78,-1561.28 1282.94,-1561.41 1283.23,-1561.7 1283.38,-1561.84 1283.38,-1561.84 1283.88,-1562.37 1283.88,-1562.37 1284.02,-1562.52 1284.29,-1562.84 1284.41,-1563 1284.41,-1563 1284.79,-1563.49 1284.79,-1563.49 1284.91,-1563.66 1285.14,-1564 1285.24,-1564.18 1285.24,-1564.18 1285.5,-1564.64 1285.5,-1564.64 1285.6,-1564.82 1285.77,-1565.19 1285.85,-1565.39 1285.85,-1565.39 1286.02,-1565.82 1286.02,-1565.82 1286.09,-1566.01 1286.21,-1566.4 1286.25,-1566.61 1286.25,-1566.61 1286.34,-1567.02 1286.34,-1567.02 1286.39,-1567.22 1286.44,-1567.63 1286.45,-1567.83 1286.45,-1567.83 1286.48,-1568.24 1286.48,-1568.24 1286.49,-1568.45 1286.48,-1568.86 1286.46,-1569.07 1286.46,-1569.07 1286.42,-1569.49 1286.42,-1569.49 1286.4,-1569.7 1286.34,-1570.1 1286.29,-1570.3 1286.29,-1570.3 1286.18,-1570.76 1286.18,-1570.76 1286.13,-1570.96 1286.01,-1571.35 1285.93,-1571.54 1285.93,-1571.54 1285.75,-1572.03 1285.75,-1572.03 1285.67,-1572.23 1285.51,-1572.6 1285.41,-1572.79 1285.41,-1572.79 1285.14,-1573.31 1285.14,-1573.31 1285.04,-1573.5 1284.84,-1573.85 1284.72,-1574.03 1284.72,-1574.03 1284.36,-1574.6 1284.36,-1574.6 1284.24,-1574.77 1284.01,-1575.1 1283.88,-1575.27 1283.88,-1575.27 1283.41,-1575.87 1283.41,-1575.87 1283.29,-1576.03 1283.02,-1576.35 1282.88,-1576.5 1282.88,-1576.5 1282.31,-1577.14 1282.31,-1577.14 1282.18,-1577.29 1281.89,-1577.59 1281.74,-1577.73 1281.74,-1577.73 1281.07,-1578.39 1281.07,-1578.39 1280.92,-1578.53 1280.62,-1578.81 1280.46,-1578.95 1280.46,-1578.95 1279.69,-1579.63 1279.69,-1579.63 1279.53,-1579.76 1279.22,-1580.02 1279.06,-1580.15 1279.06,-1580.15 1278.18,-1580.84 1278.18,-1580.84 1278.02,-1580.97 1277.69,-1581.22 1277.53,-1581.34 1277.53,-1581.34 1276.56,-1582.03 1276.56,-1582.03 1276.39,-1582.16 1276.05,-1582.39 1275.88,-1582.5 1275.88,-1582.5 1274.83,-1583.2 1274.83,-1583.2 1274.66,-1583.31 1274.31,-1583.54 1274.13,-1583.64 1274.13,-1583.64 1273,-1584.34 1273,-1584.34 1272.82,-1584.45 1272.46,-1584.65 1272.28,-1584.76 1272.28,-1584.76 1271.07,-1585.44 1271.07,-1585.44 1270.89,-1585.54 1270.53,-1585.74 1270.35,-1585.84 1270.35,-1585.84 1269.06,-1586.51 1269.06,-1586.51 1268.88,-1586.61 1268.51,-1586.8 1268.33,-1586.89 1268.33,-1586.89 1266.98,-1587.54 1266.98,-1587.54 1266.8,-1587.64 1266.42,-1587.81 1266.24,-1587.9 1266.24,-1587.9 1264.83,-1588.54 1264.83,-1588.54 1264.64,-1588.62 1264.27,-1588.79 1264.08,-1588.87 1264.08,-1588.87 1262.62,-1589.48 1262.62,-1589.48 1262.43,-1589.56 1262.05,-1589.72 1261.86,-1589.8 1261.86,-1589.8 1260.36,-1590.39 1260.36,-1590.39 1260.16,-1590.46 1259.78,-1590.61 1259.59,-1590.68 1259.59,-1590.68 1258.04,-1591.24 1258.04,-1591.24 1257.85,-1591.31 1257.46,-1591.45 1257.27,-1591.51 1257.27,-1591.51 1255.69,-1592.04 1255.69,-1592.04 1255.49,-1592.11 1255.1,-1592.24 1254.9,-1592.3 1254.9,-1592.3 1253.3,-1592.8 1253.3,-1592.8 1253.1,-1592.86 1252.7,-1592.97 1252.51,-1593.03 1252.51,-1593.03 1250.87,-1593.49 1250.87,-1593.49 1250.67,-1593.55 1250.28,-1593.66 1250.08,-1593.71 1250.08,-1593.71 1248.42,-1594.13 1248.42,-1594.13 1248.22,-1594.19 1247.82,-1594.28 1247.62,-1594.33 1247.62,-1594.33 1245.95,-1594.72 1245.95,-1594.72 1245.75,-1594.76 1245.35,-1594.85 1245.14,-1594.89 1245.14,-1594.89 1243.46,-1595.24 1243.46,-1595.24 1243.25,-1595.28 1242.85,-1595.36 1242.65,-1595.4 1242.65,-1595.4 1240.95,-1595.7 1240.95,-1595.7 1240.74,-1595.74 1240.34,-1595.81 1240.13,-1595.84 1240.13,-1595.84 1238.42,-1596.1 1238.42,-1596.1 1238.22,-1596.13 1237.81,-1596.19 1237.61,-1596.22 1237.61,-1596.22 1235.89,-1596.44 1235.89,-1596.44 1235.69,-1596.47 1235.28,-1596.51 1235.07,-1596.53 1235.07,-1596.53 1233.35,-1596.71 1233.35,-1596.71 1233.14,-1596.73 1232.73,-1596.77 1232.53,-1596.79 1232.53,-1596.79 1230.8,-1596.92 1230.8,-1596.92 1230.59,-1596.94 1230.18,-1596.96 1229.98,-1596.97 1229.98,-1596.97 1228.25,-1597.06 1228.25,-1597.06 1228.04,-1597.07 1227.63,-1597.09 1227.42,-1597.09 1227.42,-1597.09 1225.69,-1597.14 1225.69,-1597.14 1225.48,-1597.14 1225.07,-1597.15 1224.87,-1597.15 1224.87,-1597.15 1223.13,-1597.15 1223.13,-1597.15 1222.93,-1597.15 1222.52,-1597.14 1222.31,-1597.14 1222.31,-1597.14 1220.58,-1597.09 1220.58,-1597.09 1220.37,-1597.09 1219.96,-1597.07 1219.75,-1597.06 1219.75,-1597.06 1218.02,-1596.97 1218.02,-1596.97 1217.82,-1596.96 1217.41,-1596.94 1217.2,-1596.92 1217.2,-1596.92 1215.47,-1596.79 1215.47,-1596.79 1215.27,-1596.77 1214.86,-1596.73 1214.65,-1596.71 1214.65,-1596.71 1212.93,-1596.53 1212.93,-1596.53 1212.72,-1596.51 1212.31,-1596.47 1212.11,-1596.44 1212.11,-1596.44 1210.39,-1596.22 1210.39,-1596.22 1210.19,-1596.19 1209.78,-1596.13 1209.58,-1596.1 1209.58,-1596.1 1207.87,-1595.84 1207.87,-1595.84 1207.66,-1595.81 1207.26,-1595.74 1207.05,-1595.7 1207.05,-1595.7 1205.35,-1595.4 1205.35,-1595.4 1205.15,-1595.36 1204.75,-1595.28 1204.54,-1595.24 1204.54,-1595.24 1202.86,-1594.89 1202.86,-1594.89 1202.65,-1594.85 1202.25,-1594.76 1202.05,-1594.72 1202.05,-1594.72 1200.38,-1594.33 1200.38,-1594.33 1200.18,-1594.28 1199.78,-1594.19 1199.58,-1594.13 1199.58,-1594.13 1197.92,-1593.71 1197.92,-1593.71 1197.72,-1593.66 1197.33,-1593.55 1197.13,-1593.49 1197.13,-1593.49 1195.49,-1593.03 1195.49,-1593.03 1195.3,-1592.97 1194.9,-1592.86 1194.7,-1592.8 1194.7,-1592.8 1193.1,-1592.3 1193.1,-1592.3 1192.9,-1592.24 1192.51,-1592.11 1192.31,-1592.04 1192.31,-1592.04 1190.73,-1591.51 1190.73,-1591.51 1190.54,-1591.45 1190.15,-1591.31 1189.96,-1591.24 1189.96,-1591.24 1188.41,-1590.68 1188.41,-1590.68 1188.22,-1590.61 1187.84,-1590.46 1187.64,-1590.39 1187.64,-1590.39 1186.14,-1589.8 1186.14,-1589.8 1185.95,-1589.72 1185.57,-1589.56 1185.38,-1589.48 1185.38,-1589.48 1183.92,-1588.87 1183.92,-1588.87 1183.73,-1588.79 1183.36,-1588.62 1183.17,-1588.54 1183.17,-1588.54 1181.76,-1587.9 1181.76,-1587.9 1181.58,-1587.81 1181.2,-1587.64 1181.02,-1587.54 1181.02,-1587.54 1179.67,-1586.89 1179.67,-1586.89 1179.49,-1586.8 1179.12,-1586.61 1178.94,-1586.51 1178.94,-1586.51 1177.65,-1585.84 1177.65,-1585.84 1177.47,-1585.74 1177.11,-1585.54 1176.93,-1585.44 1176.93,-1585.44 1175.72,-1584.76 1175.72,-1584.76 1175.54,-1584.65 1175.18,-1584.45 1175,-1584.34 1175,-1584.34 1173.87,-1583.64 1173.87,-1583.64 1173.69,-1583.54 1173.34,-1583.31 1173.17,-1583.2 1173.17,-1583.2 1172.12,-1582.5 1172.12,-1582.5 1171.95,-1582.39 1171.61,-1582.16 1171.44,-1582.03 1171.44,-1582.03 1170.47,-1581.34 1170.47,-1581.34 1170.31,-1581.22 1169.98,-1580.97 1169.82,-1580.84 1169.82,-1580.84 1168.94,-1580.15 1168.94,-1580.15 1168.78,-1580.02 1168.47,-1579.76 1168.31,-1579.63 1168.31,-1579.63 1167.54,-1578.95 1167.54,-1578.95 1167.38,-1578.81 1167.08,-1578.53 1166.93,-1578.39 1166.93,-1578.39 1166.26,-1577.73 1166.26,-1577.73 1166.11,-1577.59 1165.82,-1577.29 1165.69,-1577.14 1165.69,-1577.14 1165.12,-1576.5 1165.12,-1576.5 1164.98,-1576.35 1164.71,-1576.03 1164.59,-1575.87 1164.59,-1575.87 1164.12,-1575.27 1164.12,-1575.27 1163.99,-1575.1 1163.76,-1574.77 1163.64,-1574.6 1163.64,-1574.6 1163.28,-1574.03 1163.28,-1574.03 1163.16,-1573.85 1162.96,-1573.5 1162.86,-1573.31 1162.86,-1573.31 1162.59,-1572.79 1162.59,-1572.79 1162.49,-1572.6 1162.33,-1572.23 1162.25,-1572.03 1162.25,-1572.03 1162.07,-1571.54 1162.07,-1571.54 1161.99,-1571.35 1161.87,-1570.96 1161.82,-1570.76 1161.82,-1570.76 1161.71,-1570.3 1161.71,-1570.3 1161.66,-1570.1 1161.6,-1569.7 1161.58,-1569.49 1161.58,-1569.49 1161.54,-1569.07 1161.54,-1569.07 1161.52,-1568.86 1161.51,-1568.45 1161.52,-1568.24 1161.52,-1568.24 1161.55,-1567.83 1161.55,-1567.83 1161.56,-1567.63 1161.61,-1567.22 1161.66,-1567.02 1161.66,-1567.02 1161.75,-1566.61 1161.75,-1566.61 1161.79,-1566.4 1161.91,-1566.01 1161.98,-1565.82 1161.98,-1565.82 1162.15,-1565.39 1162.15,-1565.39 1162.23,-1565.19 1162.4,-1564.82 1162.5,-1564.64 1162.5,-1564.64 1162.76,-1564.18 1162.76,-1564.18 1162.86,-1564 1163.09,-1563.66 1163.21,-1563.49 1163.21,-1563.49 1163.59,-1563 1163.59,-1563 1163.71,-1562.84 1163.98,-1562.52 1164.12,-1562.37 1164.12,-1562.37 1164.62,-1561.84 1164.62,-1561.84 1164.77,-1561.7 1165.06,-1561.41 1165.22,-1561.28 1165.22,-1561.28 1165.87,-1560.72 1165.87,-1560.72 1166.03,-1560.59 1166.35,-1560.33 1166.52,-1560.21 1166.52,-1560.21 1167.33,-1559.63 1167.33,-1559.63 1167.5,-1559.51 1167.85,-1559.29 1168.02,-1559.18 1168.02,-1559.18 1169,-1558.59 1169,-1558.59 1169.18,-1558.48 1169.54,-1558.28 1169.72,-1558.18 1169.72,-1558.18 1170.87,-1557.58 1170.87,-1557.58 1171.05,-1557.49 1171.43,-1557.31 1171.61,-1557.22 1171.61,-1557.22 1172.94,-1556.62 1172.94,-1556.62 1173.13,-1556.54 1173.51,-1556.38 1173.7,-1556.3 1173.7,-1556.3 1175.2,-1555.71 1175.2,-1555.71 1175.39,-1555.64 1175.78,-1555.5 1175.98,-1555.43 1175.98,-1555.43 1177.65,-1554.85 1177.65,-1554.85 1177.84,-1554.79 1178.24,-1554.66 1178.43,-1554.6 1178.43,-1554.6 1180.27,-1554.04 1180.27,-1554.04 1180.47,-1553.98 1180.87,-1553.87 1181.07,-1553.82 1181.07,-1553.82 1183.07,-1553.29 1183.07,-1553.29 1183.27,-1553.23 1183.67,-1553.14 1183.87,-1553.09 1183.87,-1553.09 1186.02,-1552.59 1186.02,-1552.59 1186.22,-1552.54 1186.62,-1552.45 1186.83,-1552.41 1186.83,-1552.41 1189.12,-1551.95 1189.12,-1551.95 1189.33,-1551.9 1189.73,-1551.83 1189.93,-1551.79 1189.93,-1551.79 1192.36,-1551.36 1192.36,-1551.36 1192.57,-1551.33 1192.97,-1551.26 1193.18,-1551.23 1193.18,-1551.23 1195.73,-1550.84 1195.73,-1550.84 1195.93,-1550.81 1196.34,-1550.75 1196.55,-1550.72 1196.55,-1550.72 1199.21,-1550.38 1199.21,-1550.38 1199.41,-1550.35 1199.82,-1550.3 1200.03,-1550.28 1200.03,-1550.28 1202.79,-1549.98 1202.79,-1549.98 1202.99,-1549.96 1203.4,-1549.92 1203.61,-1549.9 1203.61,-1549.9 1206.45,-1549.64 1206.45,-1549.64 1206.66,-1549.63 1207.07,-1549.59 1207.27,-1549.58 1207.27,-1549.58 1210.19,-1549.37 1210.19,-1549.37 1210.39,-1549.36 1210.8,-1549.33 1211.01,-1549.32 1211.01,-1549.32 1213.98,-1549.17 1213.98,-1549.17 1214.18,-1549.16 1214.59,-1549.14 1214.8,-1549.13 1214.8,-1549.13 1217.8,-1549.03 1217.8,-1549.03 1218.01,-1549.02 1218.42,-1549.01 1218.63,-1549.01 1218.63,-1549.01 1221.66,-1548.96 1221.66,-1548.96 1221.86,-1548.95 1222.28,-1548.95 1222.48,-1548.95 1222.48,-1548.95 1225.52,-1548.95 1225.52,-1548.95 1225.72,-1548.95 1226.14,-1548.95 1226.34,-1548.96 1226.34,-1548.96 1229.37,-1549.01 1229.37,-1549.01 1229.58,-1549.01 1229.99,-1549.02 1230.2,-1549.03"/>
<text text-anchor="middle" x="1224" y="-1576.45" font-family="Arial" font-size="12.00" fill="#e0e0e0">lidar_link</text>
<text text-anchor="middle" x="1224" y="-1563.45" font-family="Arial" font-size="12.00" fill="#e0e0e0">(scan frame)</text>
</g>
<!-- tf_base&#45;&gt;tf_scan -->
<g id="edge36" class="edge">
<title>tf_base&#45;&gt;tf_scan</title>
<path fill="none" stroke="#9b59b6" stroke-width="1.5" d="M1224,-1663.95C1224,-1647.64 1224,-1625.56 1224,-1607.36"/>
<polygon fill="#9b59b6" stroke="#9b59b6" stroke-width="1.5" points="1227.5,-1607.17 1224,-1597.17 1220.5,-1607.17 1227.5,-1607.17"/>
<text text-anchor="middle" x="1239.5" y="-1625.1" font-family="Arial" font-size="10.00" fill="#b0b0b0"> &#160;static</text>
</g>
</g>
</svg>
