<?xml version="1.0" encoding="UTF-8" standalone="no"?>
<!DOCTYPE svg PUBLIC "-//W3C//DTD SVG 1.1//EN"
 "http://www.w3.org/Graphics/SVG/1.1/DTD/svg11.dtd">
<!-- Generated by graphviz version 2.43.0 (0)
 -->
<!-- Title: GraphSLAM Pages: 1 -->
<svg width="1014pt" height="2457pt"
 viewBox="0.00 0.00 1014.00 2457.10" xmlns="http://www.w3.org/2000/svg" xmlns:xlink="http://www.w3.org/1999/xlink">
<g id="graph0" class="graph" transform="scale(1 1) rotate(0) translate(4 2453.1)">
<title>GraphSLAM</title>
<polygon fill="#1a1a2e" stroke="transparent" points="-4,4 -4,-2453.1 1010,-2453.1 1010,4 -4,4"/>
<text text-anchor="middle" x="503" y="-2425.9" font-family="Arial" font-size="24.00" fill="#ffffff">Graph&#45;Based SLAM Algorithm Pipeline</text>
<text text-anchor="middle" x="503" y="-2399.9" font-family="Arial" font-size="24.00" fill="#ffffff">Grisetti et al. (2010)</text>
<g id="clust1" class="cluster">
<title>cluster_ros2</title>
<path fill="#0f3460" stroke="#533483" stroke-width="2" stroke-dasharray="5,2" d="M123,-2163.1C123,-2163.1 467,-2163.1 467,-2163.1 473,-2163.1 479,-2169.1 479,-2175.1 479,-2175.1 479,-2369.1 479,-2369.1 479,-2375.1 473,-2381.1 467,-2381.1 467,-2381.1 123,-2381.1 123,-2381.1 117,-2381.1 111,-2375.1 111,-2369.1 111,-2369.1 111,-2175.1 111,-2175.1 111,-2169.1 117,-2163.1 123,-2163.1"/>
<text text-anchor="middle" x="295" y="-2365.9" font-family="Arial" font-size="14.00" fill="#ffffff">ROS2 Node — slam_robot.cpp (Orchestrator)</text>
</g>
<g id="clust2" class="cluster">
<title>cluster_frontend_odom</title>
<path fill="#0d2137" stroke="#e67e22" stroke-width="2" stroke-dasharray="5,2" d="M55,-1677C55,-1677 341,-1677 341,-1677 347,-1677 353,-1683 353,-1689 353,-1689 353,-2107.1 353,-2107.1 353,-2113.1 347,-2119.1 341,-2119.1 341,-2119.1 55,-2119.1 55,-2119.1 49,-2119.1 43,-2113.1 43,-2107.1 43,-2107.1 43,-1689 43,-1689 43,-1683 49,-1677 55,-1677"/>
<text text-anchor="middle" x="198" y="-2103.9" font-family="Arial" font-size="14.00" fill="#f0f0f0">FRONT&#45;END — Odometry Node Addition</text>
</g>
<g id="clust3" class="cluster">
<title>cluster_frontend_loop</title>
<path fill="#1a1a2e" stroke="#e74c3c" stroke-width="2" stroke-dasharray="5,2" d="M31,-1235C31,-1235 266,-1235 266,-1235 272,-1235 278,-1241 278,-1247 278,-1247 278,-1629 278,-1629 278,-1635 272,-1641 266,-1641 266,-1641 31,-1641 31,-1641 25,-1641 19,-1635 19,-1629 19,-1629 19,-1247 19,-1247 19,-1241 25,-1235 31,-1235"/>
<text text-anchor="middle" x="148.5" y="-1625.8" font-family="Arial" font-size="14.00" fill="#f0f0f0">FRONT&#45;END — Loop Closure Detection</text>
</g>
<g id="clust4" class="cluster">
<title>cluster_backend</title>
<path fill="#0d2137" stroke="#2ecc71" stroke-width="2" stroke-dasharray="5,2" d="M20,-444C20,-444 351,-444 351,-444 357,-444 363,-450 363,-456 363,-456 363,-1187 363,-1187 363,-1193 357,-1199 351,-1199 351,-1199 20,-1199 20,-1199 14,-1199 8,-1193 8,-1187 8,-1187 8,-456 8,-456 8,-450 14,-444 20,-444"/>
<text text-anchor="middle" x="185.5" y="-1183.8" font-family="Arial" font-size="14.00" fill="#f0f0f0">BACK&#45;END — Gauss&#45;Newton Pose Graph Optimization</text>
</g>
<g id="clust5" class="cluster">
<title>cluster_map</title>
<path fill="#1a1a2e" stroke="#f39c12" stroke-width="2" stroke-dasharray="5,2" d="M99,-8C99,-8 377,-8 377,-8 383,-8 389,-14 389,-20 389,-20 389,-396 389,-396 389,-402 383,-408 377,-408 377,-408 99,-408 99,-408 93,-408 87,-402 87,-396 87,-396 87,-20 87,-20 87,-14 93,-8 99,-8"/>
<text text-anchor="middle" x="238" y="-392.8" font-family="Arial" font-size="14.00" fill="#f0f0f0">MAP REBUILD — Occupancy Grid (Log&#45;Odds)</text>
</g>
<g id="clust6" class="cluster">
<title>cluster_viz</title>
<path fill="#0d2137" stroke="#3498db" stroke-width="2" stroke-dasharray="5,2" d="M501,-2032.1C501,-2032.1 718,-2032.1 718,-2032.1 724,-2032.1 730,-2038.1 730,-2044.1 730,-2044.1 730,-2350.1 730,-2350.1 730,-2356.1 724,-2362.1 718,-2362.1 718,-2362.1 501,-2362.1 501,-2362.1 495,-2362.1 489,-2356.1 489,-2350.1 489,-2350.1 489,-2044.1 489,-2044.1 489,-2038.1 495,-2032.1 501,-2032.1"/>
<text text-anchor="middle" x="609.5" y="-2346.9" font-family="Arial" font-size="14.00" fill="#f0f0f0">VISUALIZATION — Published Topics</text>
</g>
<g id="clust7" class="cluster">
<title>cluster_tf</title>
<path fill="#1a1a2e" stroke="#9b59b6" stroke-width="2" d="M768,-1777.45C768,-1777.45 986,-1777.45 986,-1777.45 992,-1777.45 998,-1783.45 998,-1789.45 998,-1789.45 998,-2356.15 998,-2356.15 998,-2362.15 992,-2368.15 986,-2368.15 986,-2368.15 768,-2368.15 768,-2368.15 762,-2368.15 756,-2362.15 756,-2356.15 756,-2356.15 756,-1789.45 756,-1789.45 756,-1783.45 762,-1777.45 768,-1777.45"/>
<text text-anchor="middle" x="877" y="-2352.95" font-family="Arial" font-size="14.00" fill="#f0f0f0">TF TREE — Reference Frames</text>
</g>
<!-- init -->
<g id="node1" class="node">
<title>init</title>
<polygon fill="#1a5276" stroke="black" stroke-width="1.5" points="368.5,-2350.1 175.5,-2350.1 171.5,-2346.1 171.5,-2276.1 364.5,-2276.1 368.5,-2280.1 368.5,-2350.1"/>
<polyline fill="none" stroke="black" stroke-width="1.5" points="364.5,-2346.1 171.5,-2346.1 "/>
<polyline fill="none" stroke="black" stroke-width="1.5" points="364.5,-2346.1 364.5,-2276.1 "/>
<polyline fill="none" stroke="black" stroke-width="1.5" points="364.5,-2346.1 368.5,-2350.1 "/>
<text text-anchor="middle" x="270" y="-2338.1" font-family="Arial" font-size="10.00" fill="#e0e0e0">Constructor:</text>
<text text-anchor="middle" x="270" y="-2327.1" font-family="Arial" font-size="10.00" fill="#e0e0e0">• MapBuilder(32m×20m, 0.05m/cell)</text>
<text text-anchor="middle" x="270" y="-2316.1" font-family="Arial" font-size="10.00" fill="#e0e0e0">• SlamGraph::init() + setMapBuilder()</text>
<text text-anchor="middle" x="270" y="-2305.1" font-family="Arial" font-size="10.00" fill="#e0e0e0">• Subs: /agv_scan (10Hz)</text>
<text text-anchor="middle" x="270" y="-2294.1" font-family="Arial" font-size="10.00" fill="#e0e0e0">• Timers: SLAM (5Hz), Map (5Hz)</text>
<text text-anchor="middle" x="270" y="-2283.1" font-family="Arial" font-size="10.00" fill="#e0e0e0">• Pubs: /map, graph_nodes, graph_edges</text>
</g>
<!-- scan_cb -->
<g id="node2" class="node">
<title>scan_cb</title>
<polygon fill="#1a6e3a" stroke="black" stroke-width="1.5" points="271,-2207.1 119,-2207.1 119,-2171.1 277,-2171.1 277,-2201.1 271,-2207.1"/>
<polyline fill="none" stroke="black" stroke-width="1.5" points="271,-2207.1 271,-2201.1 "/>
<polyline fill="none" stroke="black" stroke-width="1.5" points="277,-2201.1 271,-2201.1 "/>
<text text-anchor="middle" x="198" y="-2192.3" font-family="Arial" font-size="11.00" fill="#e0e0e0">scanCallback()</text>
<text text-anchor="middle" x="198" y="-2180.3" font-family="Arial" font-size="11.00" fill="#e0e0e0">[10Hz — LiDAR Thread]</text>
</g>
<!-- init&#45;&gt;scan_cb -->
<g id="edge1" class="edge">
<title>init&#45;&gt;scan_cb</title>
<path fill="none" stroke="#2ecc71" stroke-width="1.5" d="M248.59,-2275.83C237.33,-2256.74 223.77,-2233.77 213.53,-2216.42"/>
<polygon fill="#2ecc71" stroke="#2ecc71" stroke-width="1.5" points="216.31,-2214.24 208.22,-2207.41 210.28,-2217.8 216.31,-2214.24"/>
<text text-anchor="middle" x="276" y="-2243.1" font-family="Arial" font-size="10.00" fill="#b0b0b0"> &#160;/agv_scan (10Hz)</text>
</g>
<!-- slam_cb -->
<g id="node3" class="node">
<title>slam_cb</title>
<polygon fill="#6e1a3a" stroke="black" stroke-width="1.5" points="465,-2207.1 313,-2207.1 313,-2171.1 471,-2171.1 471,-2201.1 465,-2207.1"/>
<polyline fill="none" stroke="black" stroke-width="1.5" points="465,-2207.1 465,-2201.1 "/>
<polyline fill="none" stroke="black" stroke-width="1.5" points="471,-2201.1 465,-2201.1 "/>
<text text-anchor="middle" x="392" y="-2192.3" font-family="Arial" font-size="11.00" fill="#e0e0e0">slamTimerCallback()</text>
<text text-anchor="middle" x="392" y="-2180.3" font-family="Arial" font-size="11.00" fill="#e0e0e0">[5Hz — SLAM Thread]</text>
</g>
<!-- init&#45;&gt;slam_cb -->
<g id="edge2" class="edge">
<title>init&#45;&gt;slam_cb</title>
<path fill="none" stroke="#2ecc71" stroke-width="1.5" d="M306.27,-2275.83C326.06,-2256.04 350.03,-2232.07 367.59,-2214.51"/>
<polygon fill="#2ecc71" stroke="#2ecc71" stroke-width="1.5" points="370.09,-2216.96 374.69,-2207.41 365.14,-2212.01 370.09,-2216.96"/>
<text text-anchor="middle" x="368.5" y="-2243.1" font-family="Arial" font-size="10.00" fill="#b0b0b0"> &#160;timer (5Hz)</text>
</g>
<!-- check_thresh -->
<g id="node4" class="node">
<title>check_thresh</title>
<path fill="#2c3e50" stroke="black" stroke-width="1.5" d="M186.25,-2085.68C186.25,-2085.68 63.75,-2060.52 63.75,-2060.52 57.88,-2059.31 57.88,-2056.89 63.75,-2055.68 63.75,-2055.68 186.25,-2030.52 186.25,-2030.52 192.12,-2029.31 203.88,-2029.31 209.75,-2030.52 209.75,-2030.52 332.25,-2055.68 332.25,-2055.68 338.12,-2056.89 338.12,-2059.31 332.25,-2060.52 332.25,-2060.52 209.75,-2085.68 209.75,-2085.68 203.88,-2086.89 192.12,-2086.89 186.25,-2085.68"/>
<text text-anchor="middle" x="198" y="-2061.1" font-family="Arial" font-size="10.00" fill="#e0e0e0">Check Travel Threshold:</text>
<text text-anchor="middle" x="198" y="-2050.1" font-family="Arial" font-size="10.00" fill="#e0e0e0">dist &gt; 0.3m || |Δθ| &gt; 0.15rad ?</text>
</g>
<!-- scan_cb&#45;&gt;check_thresh -->
<g id="edge3" class="edge">
<title>scan_cb&#45;&gt;check_thresh</title>
<path fill="none" stroke="#e67e22" stroke-width="1.5" d="M198,-2170.97C198,-2152.5 198,-2122.48 198,-2098.18"/>
<polygon fill="#e67e22" stroke="#e67e22" stroke-width="1.5" points="201.5,-2098.17 198,-2088.17 194.5,-2098.17 201.5,-2098.17"/>
<text text-anchor="middle" x="229" y="-2130.1" font-family="Arial" font-size="10.00" fill="#b0b0b0"> &#160;cached scan</text>
</g>
<!-- skip_node -->
<g id="node5" class="node">
<title>skip_node</title>
<path fill="#7f8c8d" stroke="black" stroke-width="1.5" d="M332.5,-1950.05C332.5,-1950.05 217.5,-1950.05 217.5,-1950.05 211.5,-1950.05 205.5,-1944.05 205.5,-1938.05 205.5,-1938.05 205.5,-1926.05 205.5,-1926.05 205.5,-1920.05 211.5,-1914.05 217.5,-1914.05 217.5,-1914.05 332.5,-1914.05 332.5,-1914.05 338.5,-1914.05 344.5,-1920.05 344.5,-1926.05 344.5,-1926.05 344.5,-1938.05 344.5,-1938.05 344.5,-1944.05 338.5,-1950.05 332.5,-1950.05"/>
<text text-anchor="middle" x="275" y="-1935.05" font-family="Arial" font-size="10.00" fill="#e0e0e0">return &#45;1</text>
<text text-anchor="middle" x="275" y="-1924.05" font-family="Arial" font-size="10.00" fill="#e0e0e0">(Skip — chưa đủ di chuyển)</text>
</g>
<!-- check_thresh&#45;&gt;skip_node -->
<g id="edge4" class="edge">
<title>check_thresh&#45;&gt;skip_node</title>
<path fill="none" stroke="#e74c3c" stroke-width="1.5" d="M214.14,-2031.09C227.28,-2009.93 245.73,-1980.2 258.87,-1959.04"/>
<polygon fill="#e74c3c" stroke="#e74c3c" stroke-width="1.5" points="262.02,-1960.6 264.32,-1950.26 256.07,-1956.91 262.02,-1960.6"/>
<text text-anchor="middle" x="252.5" y="-1989.6" font-family="Arial" font-size="10.00" fill="#b0b0b0"> &#160;No</text>
</g>
<!-- create_node -->
<g id="node6" class="node">
<title>create_node</title>
<path fill="#1e6e3a" stroke="black" stroke-width="1.5" d="M157,-1950.05C157,-1950.05 63,-1950.05 63,-1950.05 57,-1950.05 51,-1944.05 51,-1938.05 51,-1938.05 51,-1926.05 51,-1926.05 51,-1920.05 57,-1914.05 63,-1914.05 63,-1914.05 157,-1914.05 157,-1914.05 163,-1914.05 169,-1920.05 169,-1926.05 169,-1926.05 169,-1938.05 169,-1938.05 169,-1944.05 163,-1950.05 157,-1950.05"/>
<text text-anchor="middle" x="110" y="-1935.05" font-family="Arial" font-size="10.00" fill="#e0e0e0">Create Node2D(x, y, θ)</text>
<text text-anchor="middle" x="110" y="-1924.05" font-family="Arial" font-size="10.00" fill="#e0e0e0">+ cache LiDAR scan</text>
</g>
<!-- check_thresh&#45;&gt;create_node -->
<g id="edge5" class="edge">
<title>check_thresh&#45;&gt;create_node</title>
<path fill="none" stroke="#2ecc71" stroke-width="1.5" d="M179.98,-2031.7C164.78,-2010.27 143.13,-1979.75 127.94,-1958.35"/>
<polygon fill="#2ecc71" stroke="#2ecc71" stroke-width="1.5" points="130.71,-1956.2 122.07,-1950.07 125,-1960.25 130.71,-1956.2"/>
<text text-anchor="middle" x="171" y="-1989.6" font-family="Arial" font-size="10.00" fill="#b0b0b0"> &#160;Yes</text>
</g>
<!-- compute_edge -->
<g id="node7" class="node">
<title>compute_edge</title>
<path fill="#1e6e3a" stroke="black" stroke-width="1.5" d="M219,-1847C219,-1847 63,-1847 63,-1847 57,-1847 51,-1841 51,-1835 51,-1835 51,-1784 51,-1784 51,-1778 57,-1772 63,-1772 63,-1772 219,-1772 219,-1772 225,-1772 231,-1778 231,-1784 231,-1784 231,-1835 231,-1835 231,-1841 225,-1847 219,-1847"/>
<text text-anchor="middle" x="141" y="-1835" font-family="Arial" font-size="10.00" fill="#e0e0e0">Compute Odometry Edge z_{{i&#45;1}→i}:</text>
<text text-anchor="middle" x="141" y="-1824" font-family="Arial" font-size="10.00" fill="#e0e0e0">zx = &#160;cosθ·dx + sinθ·dy</text>
<text text-anchor="middle" x="141" y="-1813" font-family="Arial" font-size="10.00" fill="#e0e0e0">zy = &#45;sinθ·dx + cosθ·dy</text>
<text text-anchor="middle" x="141" y="-1802" font-family="Arial" font-size="10.00" fill="#e0e0e0">zθ = normalize(θ−θ_prev)</text>
<text text-anchor="middle" x="141" y="-1779" font-family="Arial" font-size="10.00" fill="#e0e0e0">Ω_odom = diag(50, 50, 80)</text>
</g>
<!-- create_node&#45;&gt;compute_edge -->
<g id="edge6" class="edge">
<title>create_node&#45;&gt;compute_edge</title>
<path fill="none" stroke="#2ecc71" stroke-width="1.5" d="M114.38,-1914.03C118.19,-1899.21 123.9,-1877.01 129.05,-1856.96"/>
<polygon fill="#2ecc71" stroke="#2ecc71" stroke-width="1.5" points="132.51,-1857.59 131.61,-1847.03 125.73,-1855.84 132.51,-1857.59"/>
</g>
<!-- add_edge_odom -->
<g id="node8" class="node">
<title>add_edge_odom</title>
<path fill="#1e6e3a" stroke="black" stroke-width="1.5" d="M208,-1721C208,-1721 74,-1721 74,-1721 68,-1721 62,-1715 62,-1709 62,-1709 62,-1697 62,-1697 62,-1691 68,-1685 74,-1685 74,-1685 208,-1685 208,-1685 214,-1685 220,-1691 220,-1697 220,-1697 220,-1709 220,-1709 220,-1715 214,-1721 208,-1721"/>
<text text-anchor="middle" x="141" y="-1706" font-family="Arial" font-size="10.00" fill="#e0e0e0">pose_graph.addEdge(i&#45;1, i, z, Ω)</text>
<text text-anchor="middle" x="141" y="-1695" font-family="Arial" font-size="10.00" fill="#e0e0e0">return new_idx</text>
</g>
<!-- compute_edge&#45;&gt;add_edge_odom -->
<g id="edge7" class="edge">
<title>compute_edge&#45;&gt;add_edge_odom</title>
<path fill="none" stroke="#2ecc71" stroke-width="1.5" d="M141,-1771.95C141,-1758.57 141,-1743.67 141,-1731.24"/>
<polygon fill="#2ecc71" stroke="#2ecc71" stroke-width="1.5" points="144.5,-1731.06 141,-1721.06 137.5,-1731.06 144.5,-1731.06"/>
</g>
<!-- stage1_prox -->
<g id="node9" class="node">
<title>stage1_prox</title>
<path fill="#2c1e3e" stroke="black" stroke-width="1.5" d="M219,-1610C219,-1610 41,-1610 41,-1610 35,-1610 29,-1604 29,-1598 29,-1598 29,-1570 29,-1570 29,-1564 35,-1558 41,-1558 41,-1558 219,-1558 219,-1558 225,-1558 231,-1564 231,-1570 231,-1570 231,-1598 231,-1598 231,-1604 225,-1610 219,-1610"/>
<text text-anchor="middle" x="130" y="-1598" font-family="Arial" font-size="10.00" fill="#e0e0e0">Stage 1 — Proximity Filter:</text>
<text text-anchor="middle" x="130" y="-1587" font-family="Arial" font-size="10.00" fill="#e0e0e0">for each old node i &lt; new_idx&#45;10:</text>
<text text-anchor="middle" x="130" y="-1576" font-family="Arial" font-size="10.00" fill="#e0e0e0"> &#160;if dist &lt; 2.0m &amp;&amp; |Δθ| &lt; 1.2rad</text>
<text text-anchor="middle" x="130" y="-1565" font-family="Arial" font-size="10.00" fill="#e0e0e0"> &#160;→ CANDIDATE</text>
</g>
<!-- add_edge_odom&#45;&gt;stage1_prox -->
<g id="edge8" class="edge">
<title>add_edge_odom&#45;&gt;stage1_prox</title>
<path fill="none" stroke="#e74c3c" stroke-width="1.5" d="M123.51,-1684.92C111.61,-1673.29 98,-1660 98,-1660 98,-1660 98,-1649 98,-1649 98,-1649 105.14,-1634.72 112.67,-1619.66"/>
<polygon fill="#e74c3c" stroke="#e74c3c" stroke-width="1.5" points="116.01,-1620.8 117.35,-1610.29 109.75,-1617.67 116.01,-1620.8"/>
<text text-anchor="middle" x="119.5" y="-1652" font-family="Arial" font-size="10.00" fill="#b0b0b0"> &#160;new_idx</text>
</g>
<!-- add_edge_odom&#45;&gt;stage1_prox -->
<!-- stage2_corr -->
<g id="node10" class="node">
<title>stage2_corr</title>
<path fill="#2c1e3e" stroke="black" stroke-width="1.5" d="M219,-1507C219,-1507 41,-1507 41,-1507 35,-1507 29,-1501 29,-1495 29,-1495 29,-1478 29,-1478 29,-1472 35,-1466 41,-1466 41,-1466 219,-1466 219,-1466 225,-1466 231,-1472 231,-1478 231,-1478 231,-1495 231,-1495 231,-1501 225,-1507 219,-1507"/>
<text text-anchor="middle" x="130" y="-1495" font-family="Arial" font-size="10.00" fill="#e0e0e0">Stage 2 — Scan Correlation:</text>
<text text-anchor="middle" x="130" y="-1484" font-family="Arial" font-size="10.00" fill="#e0e0e0">C = Σ r_i·r_j / (||r_i||·||r_j||)</text>
<text text-anchor="middle" x="130" y="-1473" font-family="Arial" font-size="10.00" fill="#e0e0e0">if C &gt; 0.80 → MATCH !</text>
</g>
<!-- stage1_prox&#45;&gt;stage2_corr -->
<g id="edge9" class="edge">
<title>stage1_prox&#45;&gt;stage2_corr</title>
<path fill="none" stroke="#e0e0e0" stroke-width="1.5" d="M130,-1557.91C130,-1545.56 130,-1530.58 130,-1517.62"/>
<polygon fill="#e0e0e0" stroke="#e0e0e0" stroke-width="1.5" points="133.5,-1517.31 130,-1507.31 126.5,-1517.31 133.5,-1517.31"/>
<text text-anchor="middle" x="103" y="-1540.76" font-family="Arial" font-size="10.00" fill="#b0b0b0"> &#160;candidates</text>
</g>
<!-- match_check -->
<g id="node12" class="node">
<title>match_check</title>
<path fill="#3e1e1e" stroke="black" stroke-width="1.5" d="M132.4,-1411.93C132.4,-1411.93 87.57,-1400.07 87.57,-1400.07 81.77,-1398.53 81.77,-1395.47 87.57,-1393.93 87.57,-1393.93 132.4,-1382.07 132.4,-1382.07 138.2,-1380.53 149.8,-1380.53 155.6,-1382.07 155.6,-1382.07 200.43,-1393.93 200.43,-1393.93 206.23,-1395.47 206.23,-1398.53 200.43,-1400.07 200.43,-1400.07 155.6,-1411.93 155.6,-1411.93 149.8,-1413.47 138.2,-1413.47 132.4,-1411.93"/>
<text text-anchor="middle" x="144" y="-1394.5" font-family="Arial" font-size="10.00" fill="#e0e0e0">Match Found ?</text>
</g>
<!-- stage2_corr&#45;&gt;match_check -->
<g id="edge10" class="edge">
<title>stage2_corr&#45;&gt;match_check</title>
<path fill="none" stroke="#e0e0e0" stroke-width="1.5" d="M133.18,-1465.64C135.12,-1453.47 137.64,-1437.73 139.76,-1424.5"/>
<polygon fill="#e0e0e0" stroke="#e0e0e0" stroke-width="1.5" points="143.23,-1424.97 141.35,-1414.55 136.32,-1423.87 143.23,-1424.97"/>
</g>
<!-- stage3_edge -->
<g id="node11" class="node">
<title>stage3_edge</title>
<path fill="#6e1a2e" stroke="black" stroke-width="1.5" d="M233,-1318C233,-1318 55,-1318 55,-1318 49,-1318 43,-1312 43,-1306 43,-1306 43,-1255 43,-1255 43,-1249 49,-1243 55,-1243 55,-1243 233,-1243 233,-1243 239,-1243 245,-1249 245,-1255 245,-1255 245,-1306 245,-1306 245,-1312 239,-1318 233,-1318"/>
<text text-anchor="middle" x="144" y="-1306" font-family="Arial" font-size="10.00" fill="#e0e0e0">Stage 3 — Add Loop Edge:</text>
<text text-anchor="middle" x="144" y="-1295" font-family="Arial" font-size="10.00" fill="#e0e0e0">δt = R_i^T·(t_j−t_i)</text>
<text text-anchor="middle" x="144" y="-1284" font-family="Arial" font-size="10.00" fill="#e0e0e0">δθ = normalize(θ_j−θ_i)</text>
<text text-anchor="middle" x="144" y="-1261" font-family="Arial" font-size="10.00" fill="#e0e0e0">Ω_loop = diag(200, 200, 400)</text>
<text text-anchor="middle" x="144" y="-1250" font-family="Arial" font-size="10.00" fill="#e0e0e0">graph.addEdge(i, j, z, Ω, loop=true)</text>
</g>
<!-- check_loop -->
<g id="node13" class="node">
<title>check_loop</title>
<path fill="#2c3e50" stroke="black" stroke-width="1.5" d="M109.2,-1165.8C109.2,-1165.8 36.16,-1152.2 36.16,-1152.2 30.26,-1151.1 30.26,-1148.9 36.16,-1147.8 36.16,-1147.8 109.2,-1134.2 109.2,-1134.2 115.1,-1133.1 126.9,-1133.1 132.8,-1134.2 132.8,-1134.2 205.84,-1147.8 205.84,-1147.8 211.74,-1148.9 211.74,-1151.1 205.84,-1152.2 205.84,-1152.2 132.8,-1165.8 132.8,-1165.8 126.9,-1166.9 115.1,-1166.9 109.2,-1165.8"/>
<text text-anchor="middle" x="121" y="-1147.5" font-family="Arial" font-size="10.00" fill="#e0e0e0">new_loop_this_step_ ?</text>
</g>
<!-- stage3_edge&#45;&gt;check_loop -->
<!-- stage3_edge&#45;&gt;check_loop -->
<g id="edge15" class="edge">
<title>stage3_edge&#45;&gt;check_loop</title>
<path fill="none" stroke="#e74c3c" stroke-width="1.5" stroke-dasharray="5,2" d="M137.41,-1242.68C133.69,-1221.87 129.12,-1196.35 125.75,-1177.52"/>
<polygon fill="#e74c3c" stroke="#e74c3c" stroke-width="1.5" points="129.17,-1176.78 123.96,-1167.56 122.28,-1178.02 129.17,-1176.78"/>
<text text-anchor="middle" x="157.5" y="-1210" font-family="Arial" font-size="10.00" fill="#b0b0b0"> &#160;new loop!</text>
</g>
<!-- match_check&#45;&gt;skip_node -->
<g id="edge12" class="edge">
<title>match_check&#45;&gt;skip_node</title>
<path fill="none" stroke="#7f8c8d" stroke-width="1.5" d="M163.45,-1409.98C202.34,-1433.95 286,-1485.5 286,-1485.5 286,-1810.5 286,-1810.5 286,-1810.5 286,-1810.5 280.73,-1868.24 277.49,-1903.8"/>
<polygon fill="#7f8c8d" stroke="#7f8c8d" stroke-width="1.5" points="273.98,-1903.76 276.55,-1914.03 280.95,-1904.39 273.98,-1903.76"/>
<text text-anchor="middle" x="295.5" y="-1652" font-family="Arial" font-size="10.00" fill="#b0b0b0"> &#160;No</text>
</g>
<!-- match_check&#45;&gt;stage3_edge -->
<g id="edge11" class="edge">
<title>match_check&#45;&gt;stage3_edge</title>
<path fill="none" stroke="#2ecc71" stroke-width="1.5" d="M144,-1378.61C144,-1365.22 144,-1346.06 144,-1328.29"/>
<polygon fill="#2ecc71" stroke="#2ecc71" stroke-width="1.5" points="147.5,-1328.04 144,-1318.04 140.5,-1328.04 147.5,-1328.04"/>
<text text-anchor="middle" x="179" y="-1346" font-family="Arial" font-size="10.00" fill="#b0b0b0"> &#160;Yes (C &gt; 0.80)</text>
</g>
<!-- skip_opt -->
<g id="node14" class="node">
<title>skip_opt</title>
<path fill="#7f8c8d" stroke="black" stroke-width="1.5" d="M118.5,-1071C118.5,-1071 37.5,-1071 37.5,-1071 31.5,-1071 25.5,-1065 25.5,-1059 25.5,-1059 25.5,-1047 25.5,-1047 25.5,-1041 31.5,-1035 37.5,-1035 37.5,-1035 118.5,-1035 118.5,-1035 124.5,-1035 130.5,-1041 130.5,-1047 130.5,-1047 130.5,-1059 130.5,-1059 130.5,-1065 124.5,-1071 118.5,-1071"/>
<text text-anchor="middle" x="78" y="-1056" font-family="Arial" font-size="10.00" fill="#e0e0e0">return false</text>
<text text-anchor="middle" x="78" y="-1045" font-family="Arial" font-size="10.00" fill="#e0e0e0">(Không có loop mới)</text>
</g>
<!-- check_loop&#45;&gt;skip_opt -->
<g id="edge16" class="edge">
<title>check_loop&#45;&gt;skip_opt</title>
<path fill="none" stroke="#7f8c8d" stroke-width="1.5" d="M113.9,-1133.31C107.44,-1119.04 97.77,-1097.67 90.09,-1080.71"/>
<polygon fill="#7f8c8d" stroke="#7f8c8d" stroke-width="1.5" points="93.15,-1078.99 85.84,-1071.32 86.78,-1081.87 93.15,-1078.99"/>
<text text-anchor="middle" x="115" y="-1099" font-family="Arial" font-size="10.00" fill="#b0b0b0"> &#160;false</text>
</g>
<!-- iter_loop -->
<g id="node15" class="node">
<title>iter_loop</title>
<polygon fill="#1a5276" stroke="black" stroke-width="1.5" points="309.5,-1071 166.5,-1071 166.5,-1067 162.5,-1067 162.5,-1063 166.5,-1063 166.5,-1043 162.5,-1043 162.5,-1039 166.5,-1039 166.5,-1035 309.5,-1035 309.5,-1071"/>
<polyline fill="none" stroke="black" stroke-width="1.5" points="166.5,-1067 170.5,-1067 170.5,-1063 166.5,-1063 "/>
<polyline fill="none" stroke="black" stroke-width="1.5" points="166.5,-1043 170.5,-1043 170.5,-1039 166.5,-1039 "/>
<text text-anchor="middle" x="238" y="-1056.2" font-family="Arial" font-size="11.00" fill="#e0e0e0">For iter = 0..9</text>
<text text-anchor="middle" x="238" y="-1044.2" font-family="Arial" font-size="11.00" fill="#e0e0e0">(Gauss&#45;Newton iterations)</text>
</g>
<!-- check_loop&#45;&gt;iter_loop -->
<g id="edge17" class="edge">
<title>check_loop&#45;&gt;iter_loop</title>
<path fill="none" stroke="#2ecc71" stroke-width="1.5" d="M138.26,-1134.98C156.83,-1119.9 186.68,-1095.67 208.89,-1077.64"/>
<polygon fill="#2ecc71" stroke="#2ecc71" stroke-width="1.5" points="211.14,-1080.32 216.69,-1071.3 206.72,-1074.89 211.14,-1080.32"/>
<text text-anchor="middle" x="194.5" y="-1099" font-family="Arial" font-size="10.00" fill="#b0b0b0"> &#160;true</text>
</g>
<!-- build_system -->
<g id="node16" class="node">
<title>build_system</title>
<path fill="#1e4a6e" stroke="black" stroke-width="1.5" d="M334,-984C334,-984 142,-984 142,-984 136,-984 130,-978 130,-972 130,-972 130,-878 130,-878 130,-872 136,-866 142,-866 142,-866 334,-866 334,-866 340,-866 346,-872 346,-878 346,-878 346,-972 346,-972 346,-978 340,-984 334,-984"/>
<text text-anchor="middle" x="238" y="-972.8" font-family="Arial" font-size="9.00" fill="#e0e0e0">Step 1+2 — Build H·Δξ = −b</text>
<text text-anchor="middle" x="238" y="-952.8" font-family="Arial" font-size="9.00" fill="#e0e0e0">for each edge (i,j):</text>
<text text-anchor="middle" x="238" y="-942.8" font-family="Arial" font-size="9.00" fill="#e0e0e0"> &#160;• e_ij = computeError(x_i, x_j, z)</text>
<text text-anchor="middle" x="238" y="-932.8" font-family="Arial" font-size="9.00" fill="#e0e0e0"> &#160;• A_ij, B_ij = computeJacobians()</text>
<text text-anchor="middle" x="238" y="-922.8" font-family="Arial" font-size="9.00" fill="#e0e0e0"> &#160;• H_ii += A^T·Ω·A</text>
<text text-anchor="middle" x="238" y="-912.8" font-family="Arial" font-size="9.00" fill="#e0e0e0"> &#160;• H_ij += A^T·Ω·B</text>
<text text-anchor="middle" x="238" y="-902.8" font-family="Arial" font-size="9.00" fill="#e0e0e0"> &#160;• H_ji += B^T·Ω·A</text>
<text text-anchor="middle" x="238" y="-892.8" font-family="Arial" font-size="9.00" fill="#e0e0e0"> &#160;• H_jj += B^T·Ω·B</text>
<text text-anchor="middle" x="238" y="-882.8" font-family="Arial" font-size="9.00" fill="#e0e0e0"> &#160;• b_i &#160;+= A^T·Ω·e</text>
<text text-anchor="middle" x="238" y="-872.8" font-family="Arial" font-size="9.00" fill="#e0e0e0"> &#160;• b_j &#160;+= B^T·Ω·e</text>
</g>
<!-- iter_loop&#45;&gt;build_system -->
<g id="edge18" class="edge">
<title>iter_loop&#45;&gt;build_system</title>
<path fill="none" stroke="#2ecc71" stroke-width="1.5" d="M238,-1034.74C238,-1024.01 238,-1009.43 238,-994.44"/>
<polygon fill="#2ecc71" stroke="#2ecc71" stroke-width="1.5" points="241.5,-994.04 238,-984.04 234.5,-994.04 241.5,-994.04"/>
</g>
<!-- gauge_fix -->
<g id="node17" class="node">
<title>gauge_fix</title>
<path fill="#4a1e6e" stroke="black" stroke-width="1.5" d="M276.5,-815C276.5,-815 199.5,-815 199.5,-815 193.5,-815 187.5,-809 187.5,-803 187.5,-803 187.5,-769 187.5,-769 187.5,-763 193.5,-757 199.5,-757 199.5,-757 276.5,-757 276.5,-757 282.5,-757 288.5,-763 288.5,-769 288.5,-769 288.5,-803 288.5,-803 288.5,-809 282.5,-815 276.5,-815"/>
<text text-anchor="middle" x="238" y="-803.8" font-family="Arial" font-size="9.00" fill="#e0e0e0">Step 3 — Gauge Fix:</text>
<text text-anchor="middle" x="238" y="-793.8" font-family="Arial" font-size="9.00" fill="#e0e0e0">H[0,0] += 1e9</text>
<text text-anchor="middle" x="238" y="-783.8" font-family="Arial" font-size="9.00" fill="#e0e0e0">H[1,1] += 1e9</text>
<text text-anchor="middle" x="238" y="-773.8" font-family="Arial" font-size="9.00" fill="#e0e0e0">H[2,2] += 1e9</text>
<text text-anchor="middle" x="238" y="-763.8" font-family="Arial" font-size="9.00" fill="#e0e0e0">(anchor node 0)</text>
</g>
<!-- build_system&#45;&gt;gauge_fix -->
<g id="edge19" class="edge">
<title>build_system&#45;&gt;gauge_fix</title>
<path fill="none" stroke="#2ecc71" stroke-width="1.5" d="M238,-865.9C238,-852.23 238,-837.99 238,-825.43"/>
<polygon fill="#2ecc71" stroke="#2ecc71" stroke-width="1.5" points="241.5,-825.32 238,-815.32 234.5,-825.32 241.5,-825.32"/>
</g>
<!-- solve -->
<g id="node18" class="node">
<title>solve</title>
<path fill="#6e1e4a" stroke="black" stroke-width="1.5" d="M305,-706C305,-706 171,-706 171,-706 165,-706 159,-700 159,-694 159,-694 159,-660 159,-660 159,-654 165,-648 171,-648 171,-648 305,-648 305,-648 311,-648 317,-654 317,-660 317,-660 317,-694 317,-694 317,-700 311,-706 305,-706"/>
<text text-anchor="middle" x="238" y="-694.8" font-family="Arial" font-size="9.00" fill="#e0e0e0">Step 4 — Solve H·Δξ = −b</text>
<text text-anchor="middle" x="238" y="-684.8" font-family="Arial" font-size="9.00" fill="#e0e0e0">Gaussian Elimination with</text>
<text text-anchor="middle" x="238" y="-674.8" font-family="Arial" font-size="9.00" fill="#e0e0e0">partial pivoting</text>
<text text-anchor="middle" x="238" y="-654.8" font-family="Arial" font-size="9.00" fill="#e0e0e0">→ Δξ ∈ R^{3N}</text>
</g>
<!-- gauge_fix&#45;&gt;solve -->
<g id="edge20" class="edge">
<title>gauge_fix&#45;&gt;solve</title>
<path fill="none" stroke="#2ecc71" stroke-width="1.5" d="M238,-756.89C238,-744.57 238,-729.93 238,-716.62"/>
<polygon fill="#2ecc71" stroke="#2ecc71" stroke-width="1.5" points="241.5,-716.3 238,-706.3 234.5,-716.3 241.5,-716.3"/>
</g>
<!-- update -->
<g id="node19" class="node">
<title>update</title>
<path fill="#1e6e4a" stroke="black" stroke-width="1.5" d="M305,-597C305,-597 171,-597 171,-597 165,-597 159,-591 159,-585 159,-585 159,-551 159,-551 159,-545 165,-539 171,-539 171,-539 305,-539 305,-539 311,-539 317,-545 317,-551 317,-551 317,-585 317,-585 317,-591 311,-597 305,-597"/>
<text text-anchor="middle" x="238" y="-585.8" font-family="Arial" font-size="9.00" fill="#e0e0e0">Step 5 — Update Node Poses:</text>
<text text-anchor="middle" x="238" y="-575.8" font-family="Arial" font-size="9.00" fill="#e0e0e0">for each node i:</text>
<text text-anchor="middle" x="238" y="-565.8" font-family="Arial" font-size="9.00" fill="#e0e0e0"> &#160;x_i += Δξ[3i]</text>
<text text-anchor="middle" x="238" y="-555.8" font-family="Arial" font-size="9.00" fill="#e0e0e0"> &#160;y_i += Δξ[3i+1]</text>
<text text-anchor="middle" x="238" y="-545.8" font-family="Arial" font-size="9.00" fill="#e0e0e0"> &#160;θ_i = normalize(θ_i + Δξ[3i+2])</text>
</g>
<!-- solve&#45;&gt;update -->
<g id="edge21" class="edge">
<title>solve&#45;&gt;update</title>
<path fill="none" stroke="#2ecc71" stroke-width="1.5" d="M238,-647.89C238,-635.57 238,-620.93 238,-607.62"/>
<polygon fill="#2ecc71" stroke="#2ecc71" stroke-width="1.5" points="241.5,-607.3 238,-597.3 234.5,-607.3 241.5,-607.3"/>
</g>
<!-- optimized -->
<g id="node20" class="node">
<title>optimized</title>
<path fill="#1e6e3a" stroke="black" stroke-width="1.5" d="M272,-488C272,-488 204,-488 204,-488 198,-488 192,-482 192,-476 192,-476 192,-464 192,-464 192,-458 198,-452 204,-452 204,-452 272,-452 272,-452 278,-452 284,-458 284,-464 284,-464 284,-476 284,-476 284,-482 278,-488 272,-488"/>
<text text-anchor="middle" x="238" y="-473" font-family="Arial" font-size="10.00" fill="#e0e0e0">return true</text>
<text text-anchor="middle" x="238" y="-462" font-family="Arial" font-size="10.00" fill="#e0e0e0">(Map cần rebuild)</text>
</g>
<!-- update&#45;&gt;optimized -->
<g id="edge22" class="edge">
<title>update&#45;&gt;optimized</title>
<path fill="none" stroke="#2ecc71" stroke-width="1.5" d="M238,-538.97C238,-526.09 238,-510.87 238,-498.1"/>
<polygon fill="#2ecc71" stroke="#2ecc71" stroke-width="1.5" points="241.5,-498.05 238,-488.05 234.5,-498.05 241.5,-498.05"/>
</g>
<!-- clear_map -->
<g id="node21" class="node">
<title>clear_map</title>
<path fill="#4a3e1e" stroke="black" stroke-width="1.5" d="M306.5,-377C306.5,-377 169.5,-377 169.5,-377 163.5,-377 157.5,-371 157.5,-365 157.5,-365 157.5,-353 157.5,-353 157.5,-347 163.5,-341 169.5,-341 169.5,-341 306.5,-341 306.5,-341 312.5,-341 318.5,-347 318.5,-353 318.5,-353 318.5,-365 318.5,-365 318.5,-371 312.5,-377 306.5,-377"/>
<text text-anchor="middle" x="238" y="-356.5" font-family="Arial" font-size="10.00" fill="#e0e0e0">clearMap() — reset log&#45;odds về 0</text>
</g>
<!-- optimized&#45;&gt;clear_map -->
<g id="edge23" class="edge">
<title>optimized&#45;&gt;clear_map</title>
<path fill="none" stroke="#f39c12" stroke-width="1.5" stroke-dasharray="5,2" d="M238,-451.97C238,-434.71 238,-407.74 238,-387.46"/>
<polygon fill="#f39c12" stroke="#f39c12" stroke-width="1.5" points="241.5,-387.27 238,-377.27 234.5,-387.27 241.5,-387.27"/>
<text text-anchor="middle" x="266.5" y="-419" font-family="Arial" font-size="10.00" fill="#b0b0b0"> &#160;if optimized</text>
</g>
<!-- for_nodes -->
<g id="node22" class="node">
<title>for_nodes</title>
<path fill="#3e4a1e" stroke="black" stroke-width="1.5" d="M291.5,-290C291.5,-290 184.5,-290 184.5,-290 178.5,-290 172.5,-284 172.5,-278 172.5,-278 172.5,-266 172.5,-266 172.5,-260 178.5,-254 184.5,-254 184.5,-254 291.5,-254 291.5,-254 297.5,-254 303.5,-260 303.5,-266 303.5,-266 303.5,-278 303.5,-278 303.5,-284 297.5,-290 291.5,-290"/>
<text text-anchor="middle" x="238" y="-269.2" font-family="Arial" font-size="11.00" fill="#e0e0e0">for each node i (1..N&#45;1):</text>
</g>
<!-- clear_map&#45;&gt;for_nodes -->
<g id="edge24" class="edge">
<title>clear_map&#45;&gt;for_nodes</title>
<path fill="none" stroke="#f39c12" stroke-width="1.5" d="M238,-340.8C238,-329.16 238,-313.55 238,-300.24"/>
<polygon fill="#f39c12" stroke="#f39c12" stroke-width="1.5" points="241.5,-300.18 238,-290.18 234.5,-300.18 241.5,-300.18"/>
</g>
<!-- bresenham -->
<g id="node23" class="node">
<title>bresenham</title>
<path fill="#3e4a1e" stroke="black" stroke-width="1.5" d="M327,-203C327,-203 149,-203 149,-203 143,-203 137,-197 137,-191 137,-191 137,-147 137,-147 137,-141 143,-135 149,-135 149,-135 327,-135 327,-135 333,-135 339,-141 339,-147 339,-147 339,-191 339,-191 339,-197 333,-203 327,-203"/>
<text text-anchor="middle" x="238" y="-191.8" font-family="Arial" font-size="9.00" fill="#e0e0e0">updateFromRanges(scan, x_i, y_i, θ_i)</text>
<text text-anchor="middle" x="238" y="-171.8" font-family="Arial" font-size="9.00" fill="#e0e0e0">Bresenham Ray&#45;Cast:</text>
<text text-anchor="middle" x="238" y="-161.8" font-family="Arial" font-size="9.00" fill="#e0e0e0">• Free cells → log_odds += &#45;0.4</text>
<text text-anchor="middle" x="238" y="-151.8" font-family="Arial" font-size="9.00" fill="#e0e0e0">• Hit cell &#160;&#160;→ log_odds += +0.85</text>
<text text-anchor="middle" x="238" y="-141.8" font-family="Arial" font-size="9.00" fill="#e0e0e0"> &#160;(clamped to ±5.0)</text>
</g>
<!-- for_nodes&#45;&gt;bresenham -->
<g id="edge25" class="edge">
<title>for_nodes&#45;&gt;bresenham</title>
<path fill="none" stroke="#f39c12" stroke-width="1.5" d="M238,-253.87C238,-242.73 238,-227.66 238,-213.38"/>
<polygon fill="#f39c12" stroke="#f39c12" stroke-width="1.5" points="241.5,-213.18 238,-203.18 234.5,-213.18 241.5,-213.18"/>
</g>
<!-- occ_grid -->
<g id="node24" class="node">
<title>occ_grid</title>
<path fill="#4a3e1e" stroke="black" stroke-width="1.5" d="M316,-84C316,-84 160,-84 160,-84 154,-84 148,-78 148,-72 148,-72 148,-28 148,-28 148,-22 154,-16 160,-16 160,-16 316,-16 316,-16 322,-16 328,-22 328,-28 328,-28 328,-72 328,-72 328,-78 322,-84 316,-84"/>
<text text-anchor="middle" x="238" y="-72.8" font-family="Arial" font-size="9.00" fill="#e0e0e0">Convert Log&#45;Odds → OccupancyGrid:</text>
<text text-anchor="middle" x="238" y="-62.8" font-family="Arial" font-size="9.00" fill="#e0e0e0">l &gt; +0.5 → 100 (occupied)</text>
<text text-anchor="middle" x="238" y="-52.8" font-family="Arial" font-size="9.00" fill="#e0e0e0">l &lt; &#45;0.5 → 0 &#160;&#160;(free)</text>
<text text-anchor="middle" x="238" y="-42.8" font-family="Arial" font-size="9.00" fill="#e0e0e0">else &#160;&#160;&#160;→ &#45;1 &#160;(unknown)</text>
<text text-anchor="middle" x="238" y="-22.8" font-family="Arial" font-size="9.00" fill="#e0e0e0">Publish /map</text>
</g>
<!-- bresenham&#45;&gt;occ_grid -->
<g id="edge26" class="edge">
<title>bresenham&#45;&gt;occ_grid</title>
<path fill="none" stroke="#f39c12" stroke-width="1.5" d="M238,-134.79C238,-122.31 238,-107.94 238,-94.66"/>
<polygon fill="#f39c12" stroke="#f39c12" stroke-width="1.5" points="241.5,-94.3 238,-84.3 234.5,-94.3 241.5,-94.3"/>
</g>
<!-- occ_grid&#45;&gt;slam_cb -->
<g id="edge27" class="edge">
<title>occ_grid&#45;&gt;slam_cb</title>
<path fill="none" stroke="#3498db" stroke-width="1.5" stroke-dasharray="1,5" d="M285.03,-84.2C318.29,-107.68 357,-135 357,-135 357,-135 365,-316 365,-316 365,-316 390,-513 390,-513 390,-787 390,-787 390,-787 390,-787 372,-1199 372,-1199 372,-1199 344,-1207 344,-1207 344,-1207 335,-1343 335,-1343 335,-1343 335,-1354 335,-1354 335,-1354 380.33,-2017.37 390.14,-2160.92"/>
<polygon fill="#3498db" stroke="#3498db" stroke-width="1.5" points="386.66,-2161.32 390.84,-2171.06 393.65,-2160.84 386.66,-2161.32"/>
<text text-anchor="middle" x="412.5" y="-1099" font-family="Arial" font-size="10.00" fill="#b0b0b0"> &#160;/map published</text>
</g>
<!-- viz_nodes -->
<g id="node25" class="node">
<title>viz_nodes</title>
<path fill="#1a4a6e" stroke="black" stroke-width="1.5" d="M642,-2331.1C642,-2331.1 510,-2331.1 510,-2331.1 504,-2331.1 498,-2325.1 498,-2319.1 498,-2319.1 498,-2307.1 498,-2307.1 498,-2301.1 504,-2295.1 510,-2295.1 510,-2295.1 642,-2295.1 642,-2295.1 648,-2295.1 654,-2301.1 654,-2307.1 654,-2307.1 654,-2319.1 654,-2319.1 654,-2325.1 648,-2331.1 642,-2331.1"/>
<text text-anchor="middle" x="576" y="-2316.1" font-family="Arial" font-size="10.00" fill="#e0e0e0">/slam_robot/graph_nodes</text>
<text text-anchor="middle" x="576" y="-2305.1" font-family="Arial" font-size="10.00" fill="#e0e0e0">PoseArray — tất cả node poses</text>
</g>
<!-- occ_grid&#45;&gt;viz_nodes -->
<g id="edge28" class="edge">
<title>occ_grid&#45;&gt;viz_nodes</title>
<path fill="none" stroke="#3498db" stroke-width="1.5" stroke-dasharray="1,5" d="M300.71,-84.07C325.41,-97.09 348,-109 348,-109 348,-109 386,-135 386,-135 386,-135 672,-2028.1 672,-2028.1 672,-2028.1 672,-2119.1 672,-2119.1 672,-2119.1 663,-2215.1 663,-2215.1 663,-2215.1 624.21,-2258.34 598.44,-2287.08"/>
<polygon fill="#3498db" stroke="#3498db" stroke-width="1.5" points="595.63,-2284.98 591.55,-2294.76 600.84,-2289.65 595.63,-2284.98"/>
<text text-anchor="middle" x="575" y="-1147.5" font-family="Arial" font-size="10.00" fill="#b0b0b0"> &#160;also publish</text>
</g>
<!-- viz_edges -->
<g id="node26" class="node">
<title>viz_edges</title>
<path fill="#1a4a6e" stroke="black" stroke-width="1.5" d="M633,-2215.1C633,-2215.1 519,-2215.1 519,-2215.1 513,-2215.1 507,-2209.1 507,-2203.1 507,-2203.1 507,-2175.1 507,-2175.1 507,-2169.1 513,-2163.1 519,-2163.1 519,-2163.1 633,-2163.1 633,-2163.1 639,-2163.1 645,-2169.1 645,-2175.1 645,-2175.1 645,-2203.1 645,-2203.1 645,-2209.1 639,-2215.1 633,-2215.1"/>
<text text-anchor="middle" x="576" y="-2203.1" font-family="Arial" font-size="10.00" fill="#e0e0e0">/slam_robot/graph_edges</text>
<text text-anchor="middle" x="576" y="-2192.1" font-family="Arial" font-size="10.00" fill="#e0e0e0">MarkerArray</text>
<text text-anchor="middle" x="576" y="-2181.1" font-family="Arial" font-size="10.00" fill="#e0e0e0">• Blue = odometry edges</text>
<text text-anchor="middle" x="576" y="-2170.1" font-family="Arial" font-size="10.00" fill="#e0e0e0">• Red &#160;= loop&#45;closure edges</text>
</g>
<!-- viz_nodes&#45;&gt;viz_edges -->
<!-- viz_loop -->
<g id="node27" class="node">
<title>viz_loop</title>
<path fill="#1a4a6e" stroke="black" stroke-width="1.5" d="M642,-2076.1C642,-2076.1 510,-2076.1 510,-2076.1 504,-2076.1 498,-2070.1 498,-2064.1 498,-2064.1 498,-2052.1 498,-2052.1 498,-2046.1 504,-2040.1 510,-2040.1 510,-2040.1 642,-2040.1 642,-2040.1 648,-2040.1 654,-2046.1 654,-2052.1 654,-2052.1 654,-2064.1 654,-2064.1 654,-2070.1 648,-2076.1 642,-2076.1"/>
<text text-anchor="middle" x="576" y="-2061.1" font-family="Arial" font-size="10.00" fill="#e0e0e0">/slam_robot/loop_closure_event</text>
<text text-anchor="middle" x="576" y="-2050.1" font-family="Arial" font-size="10.00" fill="#e0e0e0">String — thông báo loop closure</text>
</g>
<!-- viz_edges&#45;&gt;viz_loop -->
<!-- tf_map -->
<g id="node28" class="node">
<title>tf_map</title>
<path fill="#2c1e4a" stroke="black" stroke-width="1.5" d="M882.78,-2289.08C882.78,-2289.08 885.5,-2289.18 885.5,-2289.18 885.71,-2289.19 886.12,-2289.21 886.33,-2289.22 886.33,-2289.22 889.02,-2289.37 889.02,-2289.37 889.22,-2289.38 889.64,-2289.41 889.84,-2289.43 889.84,-2289.43 892.48,-2289.63 892.48,-2289.63 892.69,-2289.64 893.1,-2289.68 893.3,-2289.7 893.3,-2289.7 895.88,-2289.94 895.88,-2289.94 896.09,-2289.96 896.5,-2290.01 896.7,-2290.03 896.7,-2290.03 899.2,-2290.33 899.2,-2290.33 899.41,-2290.35 899.82,-2290.4 900.02,-2290.43 900.02,-2290.43 902.43,-2290.77 902.43,-2290.77 902.64,-2290.8 903.04,-2290.86 903.25,-2290.89 903.25,-2290.89 905.56,-2291.27 905.56,-2291.27 905.76,-2291.31 906.17,-2291.38 906.37,-2291.42 906.37,-2291.42 908.57,-2291.84 908.57,-2291.84 908.77,-2291.87 909.17,-2291.96 909.37,-2292 909.37,-2292 911.45,-2292.46 911.45,-2292.46 911.65,-2292.5 912.05,-2292.59 912.25,-2292.64 912.25,-2292.64 914.19,-2293.13 914.19,-2293.13 914.39,-2293.18 914.79,-2293.29 914.99,-2293.34 914.99,-2293.34 916.79,-2293.86 916.79,-2293.86 916.99,-2293.92 917.38,-2294.04 917.58,-2294.1 917.58,-2294.1 919.23,-2294.64 919.23,-2294.64 919.43,-2294.7 919.82,-2294.84 920.01,-2294.91 920.01,-2294.91 921.51,-2295.47 921.51,-2295.47 921.71,-2295.54 922.09,-2295.69 922.28,-2295.77 922.28,-2295.77 923.63,-2296.34 923.63,-2296.34 923.82,-2296.42 924.19,-2296.59 924.38,-2296.69 924.38,-2296.69 925.56,-2297.26 925.56,-2297.26 925.75,-2297.35 926.11,-2297.54 926.29,-2297.64 926.29,-2297.64 927.32,-2298.22 927.32,-2298.22 927.5,-2298.32 927.85,-2298.54 928.03,-2298.65 928.03,-2298.65 928.9,-2299.22 928.9,-2299.22 929.07,-2299.33 929.41,-2299.57 929.57,-2299.7 929.57,-2299.7 930.29,-2300.25 930.29,-2300.25 930.45,-2300.38 930.77,-2300.64 930.92,-2300.78 930.92,-2300.78 931.5,-2301.32 931.5,-2301.32 931.65,-2301.46 931.94,-2301.75 932.08,-2301.9 932.08,-2301.9 932.53,-2302.41 932.53,-2302.41 932.66,-2302.57 932.92,-2302.89 933.04,-2303.06 933.04,-2303.06 933.37,-2303.54 933.37,-2303.54 933.49,-2303.71 933.7,-2304.06 933.8,-2304.24 933.8,-2304.24 934.03,-2304.69 934.03,-2304.69 934.13,-2304.87 934.29,-2305.25 934.36,-2305.44 934.36,-2305.44 934.51,-2305.86 934.51,-2305.86 934.58,-2306.06 934.69,-2306.45 934.73,-2306.66 934.73,-2306.66 934.82,-2307.07 934.82,-2307.07 934.86,-2307.27 934.91,-2307.68 934.92,-2307.88 934.92,-2307.88 934.94,-2308.29 934.94,-2308.29 934.95,-2308.5 934.95,-2308.91 934.93,-2309.12 934.93,-2309.12 934.89,-2309.54 934.89,-2309.54 934.87,-2309.75 934.81,-2310.15 934.77,-2310.36 934.77,-2310.36 934.67,-2310.81 934.67,-2310.81 934.62,-2311.01 934.51,-2311.4 934.44,-2311.6 934.44,-2311.6 934.27,-2312.08 934.27,-2312.08 934.2,-2312.27 934.04,-2312.65 933.95,-2312.84 933.95,-2312.84 933.7,-2313.36 933.7,-2313.36 933.61,-2313.54 933.42,-2313.91 933.31,-2314.08 933.31,-2314.08 932.98,-2314.64 932.98,-2314.64 932.87,-2314.81 932.65,-2315.16 932.53,-2315.33 932.53,-2315.33 932.11,-2315.91 932.11,-2315.91 931.99,-2316.08 931.73,-2316.4 931.6,-2316.56 931.6,-2316.56 931.09,-2317.18 931.09,-2317.18 930.96,-2317.33 930.68,-2317.64 930.54,-2317.79 930.54,-2317.79 929.94,-2318.43 929.94,-2318.43 929.8,-2318.58 929.5,-2318.87 929.35,-2319.01 929.35,-2319.01 928.66,-2319.66 928.66,-2319.66 928.51,-2319.81 928.2,-2320.08 928.05,-2320.21 928.05,-2320.21 927.26,-2320.88 927.26,-2320.88 927.11,-2321.01 926.79,-2321.27 926.63,-2321.4 926.63,-2321.4 925.76,-2322.07 925.76,-2322.07 925.6,-2322.2 925.27,-2322.45 925.1,-2322.56 925.1,-2322.56 924.16,-2323.24 924.16,-2323.24 923.99,-2323.36 923.65,-2323.59 923.48,-2323.71 923.48,-2323.71 922.46,-2324.38 922.46,-2324.38 922.29,-2324.49 921.94,-2324.71 921.76,-2324.82 921.76,-2324.82 920.67,-2325.48 920.67,-2325.48 920.5,-2325.59 920.14,-2325.8 919.96,-2325.9 919.96,-2325.9 918.81,-2326.55 918.81,-2326.55 918.64,-2326.65 918.27,-2326.85 918.09,-2326.95 918.09,-2326.95 916.88,-2327.58 916.88,-2327.58 916.7,-2327.68 916.33,-2327.87 916.15,-2327.96 916.15,-2327.96 914.89,-2328.58 914.89,-2328.58 914.71,-2328.67 914.33,-2328.84 914.15,-2328.93 914.15,-2328.93 912.84,-2329.52 912.84,-2329.52 912.65,-2329.61 912.28,-2329.78 912.09,-2329.86 912.09,-2329.86 910.74,-2330.43 910.74,-2330.43 910.55,-2330.51 910.17,-2330.66 909.98,-2330.74 909.98,-2330.74 908.6,-2331.28 908.6,-2331.28 908.4,-2331.36 908.02,-2331.5 907.83,-2331.57 907.83,-2331.57 906.41,-2332.09 906.41,-2332.09 906.22,-2332.16 905.83,-2332.29 905.64,-2332.36 905.64,-2332.36 904.2,-2332.84 904.2,-2332.84 904,-2332.9 903.61,-2333.03 903.41,-2333.09 903.41,-2333.09 901.95,-2333.53 901.95,-2333.53 901.75,-2333.6 901.36,-2333.71 901.16,-2333.77 901.16,-2333.77 899.68,-2334.18 899.68,-2334.18 899.48,-2334.23 899.08,-2334.34 898.88,-2334.39 898.88,-2334.39 897.38,-2334.76 897.38,-2334.76 897.18,-2334.81 896.78,-2334.9 896.58,-2334.95 896.58,-2334.95 895.07,-2335.28 895.07,-2335.28 894.87,-2335.33 894.47,-2335.41 894.26,-2335.45 894.26,-2335.45 892.74,-2335.75 892.74,-2335.75 892.54,-2335.79 892.14,-2335.86 891.93,-2335.89 891.93,-2335.89 890.41,-2336.15 890.41,-2336.15 890.2,-2336.18 889.79,-2336.24 889.59,-2336.27 889.59,-2336.27 888.06,-2336.49 888.06,-2336.49 887.85,-2336.51 887.44,-2336.56 887.24,-2336.59 887.24,-2336.59 885.7,-2336.76 885.7,-2336.76 885.49,-2336.78 885.08,-2336.82 884.88,-2336.84 884.88,-2336.84 883.34,-2336.97 883.34,-2336.97 883.13,-2336.98 882.72,-2337.01 882.51,-2337.02 882.51,-2337.02 880.97,-2337.11 880.97,-2337.11 880.76,-2337.12 880.35,-2337.14 880.14,-2337.15 880.14,-2337.15 878.6,-2337.19 878.6,-2337.19 878.39,-2337.19 877.98,-2337.2 877.77,-2337.2 877.77,-2337.2 876.23,-2337.2 876.23,-2337.2 876.02,-2337.2 875.61,-2337.19 875.4,-2337.19 875.4,-2337.19 873.86,-2337.15 873.86,-2337.15 873.65,-2337.14 873.24,-2337.12 873.03,-2337.11 873.03,-2337.11 871.49,-2337.02 871.49,-2337.02 871.28,-2337.01 870.87,-2336.98 870.66,-2336.97 870.66,-2336.97 869.12,-2336.84 869.12,-2336.84 868.92,-2336.82 868.51,-2336.78 868.3,-2336.76 868.3,-2336.76 866.76,-2336.59 866.76,-2336.59 866.56,-2336.56 866.15,-2336.51 865.94,-2336.49 865.94,-2336.49 864.41,-2336.27 864.41,-2336.27 864.21,-2336.24 863.8,-2336.18 863.59,-2336.15 863.59,-2336.15 862.07,-2335.89 862.07,-2335.89 861.86,-2335.86 861.46,-2335.79 861.26,-2335.75 861.26,-2335.75 859.74,-2335.45 859.74,-2335.45 859.53,-2335.41 859.13,-2335.33 858.93,-2335.28 858.93,-2335.28 857.42,-2334.95 857.42,-2334.95 857.22,-2334.9 856.82,-2334.81 856.62,-2334.76 856.62,-2334.76 855.12,-2334.39 855.12,-2334.39 854.92,-2334.34 854.52,-2334.23 854.32,-2334.18 854.32,-2334.18 852.84,-2333.77 852.84,-2333.77 852.64,-2333.71 852.25,-2333.6 852.05,-2333.53 852.05,-2333.53 850.59,-2333.09 850.59,-2333.09 850.39,-2333.03 850,-2332.9 849.8,-2332.84 849.8,-2332.84 848.36,-2332.36 848.36,-2332.36 848.17,-2332.29 847.78,-2332.16 847.59,-2332.09 847.59,-2332.09 846.17,-2331.57 846.17,-2331.57 845.98,-2331.5 845.6,-2331.36 845.4,-2331.28 845.4,-2331.28 844.02,-2330.74 844.02,-2330.74 843.83,-2330.66 843.45,-2330.51 843.26,-2330.43 843.26,-2330.43 841.91,-2329.86 841.91,-2329.86 841.72,-2329.78 841.35,-2329.61 841.16,-2329.52 841.16,-2329.52 839.85,-2328.93 839.85,-2328.93 839.67,-2328.84 839.29,-2328.67 839.11,-2328.58 839.11,-2328.58 837.85,-2327.96 837.85,-2327.96 837.67,-2327.87 837.3,-2327.68 837.12,-2327.58 837.12,-2327.58 835.91,-2326.95 835.91,-2326.95 835.73,-2326.85 835.36,-2326.65 835.19,-2326.55 835.19,-2326.55 834.04,-2325.9 834.04,-2325.9 833.86,-2325.8 833.5,-2325.59 833.33,-2325.48 833.33,-2325.48 832.24,-2324.82 832.24,-2324.82 832.06,-2324.71 831.71,-2324.49 831.54,-2324.38 831.54,-2324.38 830.52,-2323.71 830.52,-2323.71 830.35,-2323.59 830.01,-2323.36 829.84,-2323.24 829.84,-2323.24 828.9,-2322.56 828.9,-2322.56 828.73,-2322.45 828.4,-2322.2 828.24,-2322.07 828.24,-2322.07 827.37,-2321.4 827.37,-2321.4 827.21,-2321.27 826.89,-2321.01 826.74,-2320.88 826.74,-2320.88 825.95,-2320.21 825.95,-2320.21 825.8,-2320.08 825.49,-2319.81 825.34,-2319.66 825.34,-2319.66 824.65,-2319.01 824.65,-2319.01 824.5,-2318.87 824.2,-2318.58 824.06,-2318.43 824.06,-2318.43 823.46,-2317.79 823.46,-2317.79 823.32,-2317.64 823.04,-2317.33 822.91,-2317.18 822.91,-2317.18 822.4,-2316.56 822.4,-2316.56 822.27,-2316.4 822.01,-2316.08 821.89,-2315.91 821.89,-2315.91 821.47,-2315.33 821.47,-2315.33 821.35,-2315.16 821.13,-2314.81 821.02,-2314.64 821.02,-2314.64 820.69,-2314.08 820.69,-2314.08 820.58,-2313.91 820.39,-2313.54 820.3,-2313.36 820.3,-2313.36 820.05,-2312.84 820.05,-2312.84 819.96,-2312.65 819.8,-2312.27 819.73,-2312.08 819.73,-2312.08 819.56,-2311.6 819.56,-2311.6 819.49,-2311.4 819.38,-2311.01 819.33,-2310.81 819.33,-2310.81 819.23,-2310.36 819.23,-2310.36 819.19,-2310.15 819.13,-2309.75 819.11,-2309.54 819.11,-2309.54 819.07,-2309.12 819.07,-2309.12 819.05,-2308.91 819.05,-2308.5 819.06,-2308.29 819.06,-2308.29 819.08,-2307.88 819.08,-2307.88 819.09,-2307.68 819.14,-2307.27 819.18,-2307.07 819.18,-2307.07 819.27,-2306.66 819.27,-2306.66 819.31,-2306.45 819.42,-2306.06 819.49,-2305.86 819.49,-2305.86 819.64,-2305.44 819.64,-2305.44 819.71,-2305.25 819.87,-2304.87 819.97,-2304.69 819.97,-2304.69 820.2,-2304.24 820.2,-2304.24 820.3,-2304.06 820.51,-2303.71 820.63,-2303.54 820.63,-2303.54 820.96,-2303.06 820.96,-2303.06 821.08,-2302.89 821.34,-2302.57 821.47,-2302.41 821.47,-2302.41 821.92,-2301.9 821.92,-2301.9 822.06,-2301.75 822.35,-2301.46 822.5,-2301.32 822.5,-2301.32 823.08,-2300.78 823.08,-2300.78 823.23,-2300.64 823.55,-2300.38 823.71,-2300.25 823.71,-2300.25 824.43,-2299.7 824.43,-2299.7 824.59,-2299.57 824.93,-2299.33 825.1,-2299.22 825.1,-2299.22 825.97,-2298.65 825.97,-2298.65 826.15,-2298.54 826.5,-2298.32 826.68,-2298.22 826.68,-2298.22 827.71,-2297.64 827.71,-2297.64 827.89,-2297.54 828.25,-2297.35 828.44,-2297.26 828.44,-2297.26 829.62,-2296.69 829.62,-2296.69 829.81,-2296.59 830.18,-2296.42 830.37,-2296.34 830.37,-2296.34 831.72,-2295.77 831.72,-2295.77 831.91,-2295.69 832.29,-2295.54 832.49,-2295.47 832.49,-2295.47 833.99,-2294.91 833.99,-2294.91 834.18,-2294.84 834.57,-2294.7 834.77,-2294.64 834.77,-2294.64 836.42,-2294.1 836.42,-2294.1 836.62,-2294.04 837.01,-2293.92 837.21,-2293.86 837.21,-2293.86 839.01,-2293.34 839.01,-2293.34 839.21,-2293.29 839.61,-2293.18 839.81,-2293.13 839.81,-2293.13 841.75,-2292.64 841.75,-2292.64 841.95,-2292.59 842.35,-2292.5 842.55,-2292.46 842.55,-2292.46 844.63,-2292 844.63,-2292 844.83,-2291.96 845.23,-2291.87 845.43,-2291.84 845.43,-2291.84 847.63,-2291.42 847.63,-2291.42 847.83,-2291.38 848.24,-2291.31 848.44,-2291.27 848.44,-2291.27 850.75,-2290.89 850.75,-2290.89 850.96,-2290.86 851.36,-2290.8 851.57,-2290.77 851.57,-2290.77 853.98,-2290.43 853.98,-2290.43 854.18,-2290.4 854.59,-2290.35 854.8,-2290.33 854.8,-2290.33 857.3,-2290.03 857.3,-2290.03 857.5,-2290.01 857.91,-2289.96 858.12,-2289.94 858.12,-2289.94 860.7,-2289.7 860.7,-2289.7 860.9,-2289.68 861.31,-2289.64 861.52,-2289.63 861.52,-2289.63 864.16,-2289.43 864.16,-2289.43 864.36,-2289.41 864.78,-2289.38 864.98,-2289.37 864.98,-2289.37 867.67,-2289.22 867.67,-2289.22 867.88,-2289.21 868.29,-2289.19 868.5,-2289.18 868.5,-2289.18 871.22,-2289.08 871.22,-2289.08 871.43,-2289.07 871.84,-2289.06 872.05,-2289.06 872.05,-2289.06 874.8,-2289.01 874.8,-2289.01 875,-2289 875.42,-2289 875.62,-2289 875.62,-2289 878.38,-2289 878.38,-2289 878.58,-2289 879,-2289 879.2,-2289.01 879.2,-2289.01 881.95,-2289.06 881.95,-2289.06 882.16,-2289.06 882.57,-2289.07 882.78,-2289.08"/>
<text text-anchor="middle" x="877" y="-2316.5" font-family="Arial" font-size="12.00" fill="#e0e0e0">map</text>
<text text-anchor="middle" x="877" y="-2303.5" font-family="Arial" font-size="12.00" fill="#e0e0e0">(frame gốc)</text>
</g>
<!-- tf_identity -->
<g id="node29" class="node">
<title>tf_identity</title>
<polygon fill="#4a1e3e" stroke="black" stroke-width="1.5" points="929,-2208.1 819,-2208.1 819,-2170.1 935,-2170.1 935,-2202.1 929,-2208.1"/>
<polyline fill="none" stroke="black" stroke-width="1.5" points="929,-2208.1 929,-2202.1 "/>
<polyline fill="none" stroke="black" stroke-width="1.5" points="935,-2202.1 929,-2202.1 "/>
<text text-anchor="middle" x="877" y="-2196.9" font-family="Arial" font-size="9.00" fill="#e0e0e0">broadcastMapOdomTF()</text>
<text text-anchor="middle" x="877" y="-2186.9" font-family="Arial" font-size="9.00" fill="#e0e0e0">identity (0,0,0)</text>
<text text-anchor="middle" x="877" y="-2176.9" font-family="Arial" font-size="9.00" fill="#e0e0e0">(fixed)</text>
</g>
<!-- tf_map&#45;&gt;tf_identity -->
<g id="edge31" class="edge">
<title>tf_map&#45;&gt;tf_identity</title>
<path fill="none" stroke="#9b59b6" stroke-width="1.5" d="M877,-2288.87C877,-2268.87 877,-2239.96 877,-2218.58"/>
<polygon fill="#9b59b6" stroke="#9b59b6" stroke-width="1.5" points="880.5,-2218.47 877,-2208.47 873.5,-2218.47 880.5,-2218.47"/>
</g>
<!-- tf_odom -->
<g id="node30" class="node">
<title>tf_odom</title>
<path fill="#2c1e4a" stroke="black" stroke-width="1.5" d="M887.86,-2034.07C887.86,-2034.07 893.95,-2034.19 893.95,-2034.19 894.16,-2034.19 894.57,-2034.2 894.78,-2034.21 894.78,-2034.21 900.8,-2034.38 900.8,-2034.38 901,-2034.39 901.42,-2034.4 901.62,-2034.41 901.62,-2034.41 907.54,-2034.64 907.54,-2034.64 907.75,-2034.65 908.16,-2034.67 908.37,-2034.68 908.37,-2034.68 914.16,-2034.96 914.16,-2034.96 914.37,-2034.97 914.78,-2035 914.99,-2035.01 914.99,-2035.01 920.63,-2035.35 920.63,-2035.35 920.84,-2035.36 921.25,-2035.39 921.46,-2035.4 921.46,-2035.4 926.92,-2035.8 926.92,-2035.8 927.12,-2035.81 927.54,-2035.84 927.74,-2035.86 927.74,-2035.86 933,-2036.31 933,-2036.31 933.21,-2036.32 933.62,-2036.36 933.83,-2036.38 933.83,-2036.38 938.86,-2036.87 938.86,-2036.87 939.07,-2036.89 939.48,-2036.94 939.68,-2036.96 939.68,-2036.96 944.47,-2037.5 944.47,-2037.5 944.68,-2037.52 945.09,-2037.57 945.29,-2037.6 945.29,-2037.6 949.81,-2038.18 949.81,-2038.18 950.02,-2038.21 950.43,-2038.26 950.63,-2038.29 950.63,-2038.29 954.87,-2038.91 954.87,-2038.91 955.07,-2038.94 955.48,-2039.01 955.69,-2039.04 955.69,-2039.04 959.62,-2039.7 959.62,-2039.7 959.82,-2039.73 960.23,-2039.81 960.43,-2039.85 960.43,-2039.85 964.05,-2040.53 964.05,-2040.53 964.26,-2040.57 964.66,-2040.66 964.86,-2040.7 964.86,-2040.7 968.15,-2041.42 968.15,-2041.42 968.36,-2041.46 968.76,-2041.55 968.96,-2041.61 968.96,-2041.61 971.91,-2042.34 971.91,-2042.34 972.11,-2042.39 972.51,-2042.5 972.71,-2042.56 972.71,-2042.56 975.32,-2043.31 975.32,-2043.31 975.52,-2043.37 975.91,-2043.49 976.11,-2043.56 976.11,-2043.56 978.37,-2044.31 978.37,-2044.31 978.56,-2044.38 978.95,-2044.52 979.14,-2044.6 979.14,-2044.6 981.05,-2045.35 981.05,-2045.35 981.25,-2045.43 981.63,-2045.59 981.81,-2045.68 981.81,-2045.68 983.37,-2046.42 983.37,-2046.42 983.56,-2046.51 983.93,-2046.7 984.11,-2046.8 984.11,-2046.8 985.33,-2047.51 985.33,-2047.51 985.51,-2047.62 985.85,-2047.84 986.02,-2047.97 986.02,-2047.97 986.92,-2048.63 986.92,-2048.63 987.09,-2048.75 987.4,-2049.02 987.55,-2049.16 987.55,-2049.16 988.16,-2049.76 988.16,-2049.76 988.31,-2049.91 988.58,-2050.22 988.7,-2050.39 988.7,-2050.39 989.06,-2050.91 989.06,-2050.91 989.18,-2051.08 989.37,-2051.45 989.45,-2051.64 989.45,-2051.64 989.63,-2052.09 989.63,-2052.09 989.7,-2052.28 989.8,-2052.68 989.82,-2052.88 989.82,-2052.88 989.86,-2053.29 989.86,-2053.29 989.89,-2053.5 989.87,-2053.91 989.84,-2054.11 989.84,-2054.11 989.76,-2054.55 989.76,-2054.55 989.73,-2054.75 989.61,-2055.14 989.53,-2055.33 989.53,-2055.33 989.31,-2055.83 989.31,-2055.83 989.23,-2056.02 989.03,-2056.38 988.91,-2056.55 988.91,-2056.55 988.51,-2057.13 988.51,-2057.13 988.4,-2057.3 988.14,-2057.62 988,-2057.77 988,-2057.77 987.38,-2058.43 987.38,-2058.43 987.24,-2058.58 986.94,-2058.87 986.79,-2059 986.79,-2059 985.94,-2059.72 985.94,-2059.72 985.78,-2059.86 985.46,-2060.11 985.29,-2060.23 985.29,-2060.23 984.21,-2061.01 984.21,-2061.01 984.04,-2061.13 983.69,-2061.35 983.52,-2061.46 983.52,-2061.46 982.19,-2062.28 982.19,-2062.28 982.02,-2062.38 981.66,-2062.59 981.48,-2062.69 981.48,-2062.69 979.92,-2063.53 979.92,-2063.53 979.74,-2063.63 979.37,-2063.82 979.19,-2063.91 979.19,-2063.91 977.41,-2064.77 977.41,-2064.77 977.23,-2064.86 976.85,-2065.03 976.66,-2065.11 976.66,-2065.11 974.67,-2065.98 974.67,-2065.98 974.49,-2066.06 974.1,-2066.22 973.91,-2066.3 973.91,-2066.3 971.73,-2067.17 971.73,-2067.17 971.53,-2067.25 971.15,-2067.4 970.95,-2067.47 970.95,-2067.47 968.59,-2068.34 968.59,-2068.34 968.39,-2068.41 968,-2068.54 967.8,-2068.61 967.8,-2068.61 965.26,-2069.47 965.26,-2069.47 965.07,-2069.54 964.68,-2069.67 964.48,-2069.73 964.48,-2069.73 961.78,-2070.57 961.78,-2070.57 961.58,-2070.63 961.19,-2070.75 960.99,-2070.81 960.99,-2070.81 958.15,-2071.64 958.15,-2071.64 957.95,-2071.7 957.55,-2071.81 957.35,-2071.86 957.35,-2071.86 954.38,-2072.67 954.38,-2072.67 954.18,-2072.72 953.78,-2072.83 953.58,-2072.88 953.58,-2072.88 950.49,-2073.66 950.49,-2073.66 950.28,-2073.71 949.88,-2073.8 949.68,-2073.85 949.68,-2073.85 946.48,-2074.6 946.48,-2074.6 946.28,-2074.65 945.88,-2074.74 945.68,-2074.78 945.68,-2074.78 942.39,-2075.5 942.39,-2075.5 942.19,-2075.54 941.78,-2075.63 941.58,-2075.67 941.58,-2075.67 938.2,-2076.35 938.2,-2076.35 938,-2076.39 937.59,-2076.47 937.39,-2076.51 937.39,-2076.51 933.94,-2077.15 933.94,-2077.15 933.74,-2077.19 933.33,-2077.26 933.13,-2077.3 933.13,-2077.3 929.62,-2077.9 929.62,-2077.9 929.42,-2077.93 929.01,-2078 928.8,-2078.03 928.8,-2078.03 925.24,-2078.59 925.24,-2078.59 925.03,-2078.62 924.62,-2078.68 924.42,-2078.71 924.42,-2078.71 920.81,-2079.23 920.81,-2079.23 920.6,-2079.26 920.19,-2079.31 919.99,-2079.34 919.99,-2079.34 916.34,-2079.81 916.34,-2079.81 916.13,-2079.83 915.72,-2079.88 915.51,-2079.91 915.51,-2079.91 911.83,-2080.33 911.83,-2080.33 911.62,-2080.35 911.21,-2080.39 911.01,-2080.41 911.01,-2080.41 907.29,-2080.78 907.29,-2080.78 907.09,-2080.8 906.67,-2080.84 906.47,-2080.86 906.47,-2080.86 902.73,-2081.18 902.73,-2081.18 902.53,-2081.2 902.11,-2081.23 901.91,-2081.24 901.91,-2081.24 898.15,-2081.51 898.15,-2081.51 897.95,-2081.53 897.53,-2081.55 897.33,-2081.57 897.33,-2081.57 893.56,-2081.78 893.56,-2081.78 893.35,-2081.79 892.94,-2081.81 892.73,-2081.82 892.73,-2081.82 888.95,-2081.98 888.95,-2081.98 888.75,-2081.99 888.33,-2082.01 888.13,-2082.01 888.13,-2082.01 884.34,-2082.12 884.34,-2082.12 884.13,-2082.13 883.72,-2082.14 883.51,-2082.14 883.51,-2082.14 879.72,-2082.19 879.72,-2082.19 879.52,-2082.2 879.1,-2082.2 878.9,-2082.2 878.9,-2082.2 875.1,-2082.2 875.1,-2082.2 874.9,-2082.2 874.48,-2082.2 874.28,-2082.19 874.28,-2082.19 870.49,-2082.14 870.49,-2082.14 870.28,-2082.14 869.87,-2082.13 869.66,-2082.12 869.66,-2082.12 865.87,-2082.01 865.87,-2082.01 865.67,-2082.01 865.25,-2081.99 865.05,-2081.98 865.05,-2081.98 861.27,-2081.82 861.27,-2081.82 861.06,-2081.81 860.65,-2081.79 860.44,-2081.78 860.44,-2081.78 856.67,-2081.57 856.67,-2081.57 856.47,-2081.55 856.05,-2081.53 855.85,-2081.51 855.85,-2081.51 852.09,-2081.24 852.09,-2081.24 851.89,-2081.23 851.47,-2081.2 851.27,-2081.18 851.27,-2081.18 847.53,-2080.86 847.53,-2080.86 847.33,-2080.84 846.91,-2080.8 846.71,-2080.78 846.71,-2080.78 842.99,-2080.41 842.99,-2080.41 842.79,-2080.39 842.38,-2080.35 842.17,-2080.33 842.17,-2080.33 838.49,-2079.91 838.49,-2079.91 838.28,-2079.88 837.87,-2079.83 837.66,-2079.81 837.66,-2079.81 834.01,-2079.34 834.01,-2079.34 833.81,-2079.31 833.4,-2079.26 833.19,-2079.23 833.19,-2079.23 829.58,-2078.71 829.58,-2078.71 829.38,-2078.68 828.97,-2078.62 828.76,-2078.59 828.76,-2078.59 825.2,-2078.03 825.2,-2078.03 824.99,-2078 824.58,-2077.93 824.38,-2077.9 824.38,-2077.9 820.87,-2077.3 820.87,-2077.3 820.67,-2077.26 820.26,-2077.19 820.06,-2077.15 820.06,-2077.15 816.61,-2076.51 816.61,-2076.51 816.41,-2076.47 816,-2076.39 815.8,-2076.35 815.8,-2076.35 812.42,-2075.67 812.42,-2075.67 812.22,-2075.63 811.81,-2075.54 811.61,-2075.5 811.61,-2075.5 808.32,-2074.78 808.32,-2074.78 808.12,-2074.74 807.72,-2074.65 807.52,-2074.6 807.52,-2074.6 804.32,-2073.85 804.32,-2073.85 804.12,-2073.8 803.72,-2073.71 803.51,-2073.66 803.51,-2073.66 800.42,-2072.88 800.42,-2072.88 800.22,-2072.83 799.82,-2072.72 799.62,-2072.67 799.62,-2072.67 796.65,-2071.86 796.65,-2071.86 796.45,-2071.81 796.05,-2071.7 795.85,-2071.64 795.85,-2071.64 793.01,-2070.81 793.01,-2070.81 792.81,-2070.75 792.42,-2070.63 792.22,-2070.57 792.22,-2070.57 789.52,-2069.73 789.52,-2069.73 789.32,-2069.67 788.93,-2069.54 788.74,-2069.47 788.74,-2069.47 786.2,-2068.61 786.2,-2068.61 786,-2068.54 785.61,-2068.41 785.41,-2068.34 785.41,-2068.34 783.05,-2067.47 783.05,-2067.47 782.85,-2067.4 782.47,-2067.25 782.27,-2067.17 782.27,-2067.17 780.09,-2066.3 780.09,-2066.3 779.9,-2066.22 779.51,-2066.06 779.33,-2065.98 779.33,-2065.98 777.34,-2065.11 777.34,-2065.11 777.15,-2065.03 776.77,-2064.86 776.59,-2064.77 776.59,-2064.77 774.81,-2063.91 774.81,-2063.91 774.63,-2063.82 774.26,-2063.63 774.08,-2063.53 774.08,-2063.53 772.52,-2062.69 772.52,-2062.69 772.34,-2062.59 771.98,-2062.38 771.81,-2062.28 771.81,-2062.28 770.48,-2061.46 770.48,-2061.46 770.31,-2061.35 769.96,-2061.13 769.79,-2061.01 769.79,-2061.01 768.71,-2060.23 768.71,-2060.23 768.54,-2060.11 768.22,-2059.86 768.06,-2059.72 768.06,-2059.72 767.21,-2059 767.21,-2059 767.06,-2058.87 766.76,-2058.58 766.62,-2058.43 766.62,-2058.43 766,-2057.77 766,-2057.77 765.86,-2057.62 765.6,-2057.3 765.49,-2057.13 765.49,-2057.13 765.09,-2056.55 765.09,-2056.55 764.97,-2056.38 764.77,-2056.02 764.69,-2055.83 764.69,-2055.83 764.47,-2055.33 764.47,-2055.33 764.39,-2055.14 764.27,-2054.75 764.24,-2054.55 764.24,-2054.55 764.16,-2054.11 764.16,-2054.11 764.13,-2053.91 764.11,-2053.5 764.14,-2053.29 764.14,-2053.29 764.18,-2052.88 764.18,-2052.88 764.2,-2052.68 764.3,-2052.28 764.37,-2052.09 764.37,-2052.09 764.55,-2051.64 764.55,-2051.64 764.63,-2051.45 764.82,-2051.08 764.94,-2050.91 764.94,-2050.91 765.3,-2050.39 765.3,-2050.39 765.42,-2050.22 765.69,-2049.91 765.84,-2049.76 765.84,-2049.76 766.45,-2049.16 766.45,-2049.16 766.6,-2049.02 766.91,-2048.75 767.08,-2048.63 767.08,-2048.63 767.98,-2047.97 767.98,-2047.97 768.15,-2047.84 768.49,-2047.62 768.67,-2047.51 768.67,-2047.51 769.89,-2046.8 769.89,-2046.8 770.07,-2046.7 770.44,-2046.51 770.63,-2046.42 770.63,-2046.42 772.19,-2045.68 772.19,-2045.68 772.37,-2045.59 772.75,-2045.43 772.95,-2045.35 772.95,-2045.35 774.86,-2044.6 774.86,-2044.6 775.05,-2044.52 775.44,-2044.38 775.63,-2044.31 775.63,-2044.31 777.89,-2043.56 777.89,-2043.56 778.09,-2043.49 778.48,-2043.37 778.68,-2043.31 778.68,-2043.31 781.29,-2042.56 781.29,-2042.56 781.49,-2042.5 781.89,-2042.39 782.09,-2042.34 782.09,-2042.34 785.04,-2041.61 785.04,-2041.61 785.24,-2041.55 785.64,-2041.46 785.85,-2041.42 785.85,-2041.42 789.14,-2040.7 789.14,-2040.7 789.34,-2040.66 789.74,-2040.57 789.95,-2040.53 789.95,-2040.53 793.57,-2039.85 793.57,-2039.85 793.77,-2039.81 794.18,-2039.73 794.38,-2039.7 794.38,-2039.7 798.31,-2039.04 798.31,-2039.04 798.52,-2039.01 798.93,-2038.94 799.13,-2038.91 799.13,-2038.91 803.37,-2038.29 803.37,-2038.29 803.57,-2038.26 803.98,-2038.21 804.19,-2038.18 804.19,-2038.18 808.71,-2037.6 808.71,-2037.6 808.91,-2037.57 809.32,-2037.52 809.53,-2037.5 809.53,-2037.5 814.32,-2036.96 814.32,-2036.96 814.52,-2036.94 814.93,-2036.89 815.14,-2036.87 815.14,-2036.87 820.17,-2036.38 820.17,-2036.38 820.38,-2036.36 820.79,-2036.32 821,-2036.31 821,-2036.31 826.26,-2035.86 826.26,-2035.86 826.46,-2035.84 826.88,-2035.81 827.08,-2035.8 827.08,-2035.8 832.54,-2035.4 832.54,-2035.4 832.75,-2035.39 833.16,-2035.36 833.37,-2035.35 833.37,-2035.35 839.01,-2035.01 839.01,-2035.01 839.22,-2035 839.63,-2034.97 839.84,-2034.96 839.84,-2034.96 845.63,-2034.68 845.63,-2034.68 845.84,-2034.67 846.25,-2034.65 846.46,-2034.64 846.46,-2034.64 852.38,-2034.41 852.38,-2034.41 852.58,-2034.4 853,-2034.39 853.2,-2034.38 853.2,-2034.38 859.22,-2034.21 859.22,-2034.21 859.43,-2034.2 859.84,-2034.19 860.05,-2034.19 860.05,-2034.19 866.14,-2034.07 866.14,-2034.07 866.35,-2034.07 866.76,-2034.06 866.97,-2034.06 866.97,-2034.06 873.1,-2034 873.1,-2034 873.31,-2034 873.72,-2034 873.93,-2034 873.93,-2034 880.07,-2034 880.07,-2034 880.28,-2034 880.69,-2034 880.9,-2034 880.9,-2034 887.03,-2034.06 887.03,-2034.06 887.24,-2034.06 887.65,-2034.07 887.86,-2034.07"/>
<text text-anchor="middle" x="877" y="-2061.5" font-family="Arial" font-size="12.00" fill="#e0e0e0">odom</text>
<text text-anchor="middle" x="877" y="-2048.5" font-family="Arial" font-size="12.00" fill="#e0e0e0">(raw odometry — drifting)</text>
</g>
<!-- tf_identity&#45;&gt;tf_odom -->
<g id="edge32" class="edge">
<title>tf_identity&#45;&gt;tf_odom</title>
<path fill="none" stroke="#9b59b6" stroke-width="1.5" d="M877,-2169.89C877,-2149.84 877,-2117.16 877,-2092.48"/>
<polygon fill="#9b59b6" stroke="#9b59b6" stroke-width="1.5" points="880.5,-2092.46 877,-2082.46 873.5,-2092.46 880.5,-2092.46"/>
</g>
<!-- tf_base -->
<g id="node31" class="node">
<title>tf_base</title>
<path fill="#2c1e4a" stroke="black" stroke-width="1.5" d="M885.3,-1908.03C885.3,-1908.03 889.69,-1908.14 889.69,-1908.14 889.9,-1908.14 890.31,-1908.16 890.51,-1908.16 890.51,-1908.16 894.85,-1908.33 894.85,-1908.33 895.06,-1908.34 895.47,-1908.36 895.68,-1908.37 895.68,-1908.37 899.94,-1908.59 899.94,-1908.59 900.15,-1908.6 900.56,-1908.62 900.77,-1908.63 900.77,-1908.63 904.94,-1908.91 904.94,-1908.91 905.14,-1908.92 905.56,-1908.95 905.76,-1908.97 905.76,-1908.97 909.82,-1909.29 909.82,-1909.29 910.02,-1909.31 910.43,-1909.34 910.64,-1909.36 910.64,-1909.36 914.56,-1909.74 914.56,-1909.74 914.77,-1909.76 915.18,-1909.8 915.38,-1909.82 915.38,-1909.82 919.15,-1910.24 919.15,-1910.24 919.36,-1910.27 919.77,-1910.32 919.97,-1910.34 919.97,-1910.34 923.57,-1910.81 923.57,-1910.81 923.78,-1910.84 924.19,-1910.89 924.39,-1910.92 924.39,-1910.92 927.81,-1911.43 927.81,-1911.43 928.01,-1911.46 928.42,-1911.53 928.62,-1911.56 928.62,-1911.56 931.84,-1912.11 931.84,-1912.11 932.04,-1912.15 932.45,-1912.22 932.65,-1912.26 932.65,-1912.26 935.65,-1912.84 935.65,-1912.84 935.85,-1912.88 936.26,-1912.97 936.46,-1913.01 936.46,-1913.01 939.24,-1913.63 939.24,-1913.63 939.44,-1913.67 939.84,-1913.77 940.04,-1913.82 940.04,-1913.82 942.58,-1914.46 942.58,-1914.46 942.78,-1914.51 943.18,-1914.62 943.38,-1914.68 943.38,-1914.68 945.68,-1915.34 945.68,-1915.34 945.88,-1915.4 946.27,-1915.52 946.47,-1915.58 946.47,-1915.58 948.52,-1916.26 948.52,-1916.26 948.71,-1916.33 949.1,-1916.47 949.3,-1916.54 949.3,-1916.54 951.09,-1917.23 951.09,-1917.23 951.28,-1917.3 951.67,-1917.46 951.85,-1917.54 951.85,-1917.54 953.4,-1918.23 953.4,-1918.23 953.58,-1918.31 953.96,-1918.49 954.14,-1918.59 954.14,-1918.59 955.43,-1919.26 955.43,-1919.26 955.61,-1919.36 955.97,-1919.56 956.14,-1919.67 956.14,-1919.67 957.19,-1920.33 957.19,-1920.33 957.36,-1920.44 957.7,-1920.67 957.86,-1920.8 957.86,-1920.8 958.67,-1921.42 958.67,-1921.42 958.84,-1921.55 959.15,-1921.82 959.3,-1921.96 959.3,-1921.96 959.89,-1922.54 959.89,-1922.54 960.04,-1922.68 960.31,-1922.99 960.44,-1923.15 960.44,-1923.15 960.84,-1923.68 960.84,-1923.68 960.97,-1923.84 961.19,-1924.19 961.28,-1924.37 961.28,-1924.37 961.53,-1924.84 961.53,-1924.84 961.63,-1925.02 961.78,-1925.4 961.84,-1925.6 961.84,-1925.6 961.97,-1926.03 961.97,-1926.03 962.03,-1926.22 962.1,-1926.63 962.12,-1926.83 962.12,-1926.83 962.15,-1927.24 962.15,-1927.24 962.17,-1927.45 962.16,-1927.86 962.13,-1928.07 962.13,-1928.07 962.08,-1928.49 962.08,-1928.49 962.05,-1928.7 961.96,-1929.1 961.89,-1929.3 961.89,-1929.3 961.74,-1929.77 961.74,-1929.77 961.67,-1929.96 961.52,-1930.34 961.42,-1930.52 961.42,-1930.52 961.15,-1931.05 961.15,-1931.05 961.05,-1931.24 960.84,-1931.59 960.72,-1931.76 960.72,-1931.76 960.3,-1932.34 960.3,-1932.34 960.19,-1932.51 959.93,-1932.84 959.79,-1932.99 959.79,-1932.99 959.23,-1933.63 959.23,-1933.63 959.09,-1933.79 958.8,-1934.08 958.65,-1934.23 958.65,-1934.23 957.93,-1934.91 957.93,-1934.91 957.78,-1935.05 957.47,-1935.33 957.31,-1935.46 957.31,-1935.46 956.42,-1936.18 956.42,-1936.18 956.26,-1936.31 955.93,-1936.56 955.76,-1936.68 955.76,-1936.68 954.71,-1937.44 954.71,-1937.44 954.55,-1937.56 954.2,-1937.79 954.03,-1937.9 954.03,-1937.9 952.82,-1938.67 952.82,-1938.67 952.65,-1938.79 952.3,-1939 952.12,-1939.1 952.12,-1939.1 950.76,-1939.89 950.76,-1939.89 950.58,-1939.99 950.22,-1940.19 950.04,-1940.29 950.04,-1940.29 948.54,-1941.08 948.54,-1941.08 948.36,-1941.18 947.99,-1941.37 947.81,-1941.46 947.81,-1941.46 946.18,-1942.25 946.18,-1942.25 945.99,-1942.34 945.62,-1942.51 945.43,-1942.6 945.43,-1942.6 943.67,-1943.38 943.67,-1943.38 943.48,-1943.47 943.11,-1943.63 942.91,-1943.71 942.91,-1943.71 941.05,-1944.49 941.05,-1944.49 940.86,-1944.57 940.47,-1944.72 940.28,-1944.79 940.28,-1944.79 938.31,-1945.56 938.31,-1945.56 938.11,-1945.63 937.73,-1945.77 937.53,-1945.84 937.53,-1945.84 935.46,-1946.59 935.46,-1946.59 935.27,-1946.66 934.88,-1946.79 934.68,-1946.86 934.68,-1946.86 932.53,-1947.58 932.53,-1947.58 932.33,-1947.64 931.94,-1947.77 931.74,-1947.83 931.74,-1947.83 929.51,-1948.52 929.51,-1948.52 929.32,-1948.58 928.92,-1948.7 928.72,-1948.76 928.72,-1948.76 926.42,-1949.42 926.42,-1949.42 926.23,-1949.48 925.83,-1949.59 925.63,-1949.64 925.63,-1949.64 923.27,-1950.28 923.27,-1950.28 923.07,-1950.33 922.67,-1950.43 922.47,-1950.48 922.47,-1950.48 920.06,-1951.08 920.06,-1951.08 919.86,-1951.13 919.45,-1951.22 919.25,-1951.27 919.25,-1951.27 916.79,-1951.83 916.79,-1951.83 916.59,-1951.87 916.19,-1951.96 915.99,-1952 915.99,-1952 913.49,-1952.52 913.49,-1952.52 913.29,-1952.56 912.88,-1952.64 912.68,-1952.68 912.68,-1952.68 910.15,-1953.16 910.15,-1953.16 909.94,-1953.2 909.54,-1953.27 909.33,-1953.31 909.33,-1953.31 906.77,-1953.74 906.77,-1953.74 906.57,-1953.77 906.16,-1953.84 905.96,-1953.87 905.96,-1953.87 903.37,-1954.26 903.37,-1954.26 903.17,-1954.29 902.76,-1954.35 902.56,-1954.38 902.56,-1954.38 899.95,-1954.72 899.95,-1954.72 899.75,-1954.75 899.34,-1954.8 899.13,-1954.82 899.13,-1954.82 896.51,-1955.12 896.51,-1955.12 896.31,-1955.14 895.9,-1955.18 895.69,-1955.2 895.69,-1955.2 893.06,-1955.45 893.06,-1955.45 892.85,-1955.47 892.44,-1955.51 892.24,-1955.52 892.24,-1955.52 889.59,-1955.72 889.59,-1955.72 889.39,-1955.74 888.98,-1955.77 888.77,-1955.78 888.77,-1955.78 886.12,-1955.93 886.12,-1955.93 885.91,-1955.94 885.5,-1955.96 885.29,-1955.97 885.29,-1955.97 882.64,-1956.07 882.64,-1956.07 882.43,-1956.08 882.02,-1956.09 881.81,-1956.09 881.81,-1956.09 879.16,-1956.14 879.16,-1956.14 878.95,-1956.15 878.54,-1956.15 878.33,-1956.15 878.33,-1956.15 875.67,-1956.15 875.67,-1956.15 875.46,-1956.15 875.05,-1956.15 874.84,-1956.14 874.84,-1956.14 872.19,-1956.09 872.19,-1956.09 871.98,-1956.09 871.57,-1956.08 871.36,-1956.07 871.36,-1956.07 868.71,-1955.97 868.71,-1955.97 868.5,-1955.96 868.09,-1955.94 867.88,-1955.93 867.88,-1955.93 865.23,-1955.78 865.23,-1955.78 865.02,-1955.77 864.61,-1955.74 864.41,-1955.72 864.41,-1955.72 861.76,-1955.52 861.76,-1955.52 861.56,-1955.51 861.15,-1955.47 860.94,-1955.45 860.94,-1955.45 858.31,-1955.2 858.31,-1955.2 858.1,-1955.18 857.69,-1955.14 857.49,-1955.12 857.49,-1955.12 854.87,-1954.82 854.87,-1954.82 854.66,-1954.8 854.25,-1954.75 854.05,-1954.72 854.05,-1954.72 851.44,-1954.38 851.44,-1954.38 851.24,-1954.35 850.83,-1954.29 850.63,-1954.26 850.63,-1954.26 848.04,-1953.87 848.04,-1953.87 847.84,-1953.84 847.43,-1953.77 847.23,-1953.74 847.23,-1953.74 844.67,-1953.31 844.67,-1953.31 844.46,-1953.27 844.06,-1953.2 843.85,-1953.16 843.85,-1953.16 841.32,-1952.68 841.32,-1952.68 841.12,-1952.64 840.71,-1952.56 840.51,-1952.52 840.51,-1952.52 838.01,-1952 838.01,-1952 837.81,-1951.96 837.41,-1951.87 837.21,-1951.83 837.21,-1951.83 834.75,-1951.27 834.75,-1951.27 834.55,-1951.22 834.14,-1951.13 833.94,-1951.08 833.94,-1951.08 831.53,-1950.48 831.53,-1950.48 831.33,-1950.43 830.93,-1950.33 830.73,-1950.28 830.73,-1950.28 828.37,-1949.64 828.37,-1949.64 828.17,-1949.59 827.77,-1949.48 827.58,-1949.42 827.58,-1949.42 825.28,-1948.76 825.28,-1948.76 825.08,-1948.7 824.68,-1948.58 824.49,-1948.52 824.49,-1948.52 822.26,-1947.83 822.26,-1947.83 822.06,-1947.77 821.67,-1947.64 821.47,-1947.58 821.47,-1947.58 819.32,-1946.86 819.32,-1946.86 819.12,-1946.79 818.73,-1946.66 818.54,-1946.59 818.54,-1946.59 816.47,-1945.84 816.47,-1945.84 816.27,-1945.77 815.89,-1945.63 815.69,-1945.56 815.69,-1945.56 813.72,-1944.79 813.72,-1944.79 813.53,-1944.72 813.14,-1944.57 812.95,-1944.49 812.95,-1944.49 811.09,-1943.71 811.09,-1943.71 810.89,-1943.63 810.52,-1943.47 810.33,-1943.38 810.33,-1943.38 808.57,-1942.6 808.57,-1942.6 808.38,-1942.51 808.01,-1942.34 807.82,-1942.25 807.82,-1942.25 806.19,-1941.46 806.19,-1941.46 806.01,-1941.37 805.64,-1941.18 805.46,-1941.08 805.46,-1941.08 803.96,-1940.29 803.96,-1940.29 803.78,-1940.19 803.42,-1939.99 803.24,-1939.89 803.24,-1939.89 801.88,-1939.1 801.88,-1939.1 801.7,-1939 801.35,-1938.79 801.18,-1938.67 801.18,-1938.67 799.97,-1937.9 799.97,-1937.9 799.8,-1937.79 799.45,-1937.56 799.29,-1937.44 799.29,-1937.44 798.24,-1936.68 798.24,-1936.68 798.07,-1936.56 797.74,-1936.31 797.58,-1936.18 797.58,-1936.18 796.69,-1935.46 796.69,-1935.46 796.53,-1935.33 796.22,-1935.05 796.07,-1934.91 796.07,-1934.91 795.35,-1934.23 795.35,-1934.23 795.2,-1934.08 794.91,-1933.79 794.77,-1933.63 794.77,-1933.63 794.21,-1932.99 794.21,-1932.99 794.07,-1932.84 793.81,-1932.51 793.7,-1932.34 793.7,-1932.34 793.28,-1931.76 793.28,-1931.76 793.16,-1931.59 792.95,-1931.24 792.85,-1931.05 792.85,-1931.05 792.58,-1930.52 792.58,-1930.52 792.48,-1930.34 792.33,-1929.96 792.26,-1929.77 792.26,-1929.77 792.11,-1929.3 792.11,-1929.3 792.04,-1929.1 791.95,-1928.7 791.92,-1928.49 791.92,-1928.49 791.87,-1928.07 791.87,-1928.07 791.84,-1927.86 791.83,-1927.45 791.85,-1927.24 791.85,-1927.24 791.88,-1926.83 791.88,-1926.83 791.9,-1926.63 791.97,-1926.22 792.03,-1926.03 792.03,-1926.03 792.16,-1925.6 792.16,-1925.6 792.22,-1925.4 792.37,-1925.02 792.47,-1924.84 792.47,-1924.84 792.72,-1924.37 792.72,-1924.37 792.81,-1924.19 793.03,-1923.84 793.16,-1923.68 793.16,-1923.68 793.56,-1923.15 793.56,-1923.15 793.69,-1922.99 793.96,-1922.68 794.11,-1922.54 794.11,-1922.54 794.7,-1921.96 794.7,-1921.96 794.85,-1921.82 795.16,-1921.55 795.33,-1921.42 795.33,-1921.42 796.14,-1920.8 796.14,-1920.8 796.3,-1920.67 796.64,-1920.44 796.81,-1920.33 796.81,-1920.33 797.86,-1919.67 797.86,-1919.67 798.03,-1919.56 798.39,-1919.36 798.57,-1919.26 798.57,-1919.26 799.86,-1918.59 799.86,-1918.59 800.04,-1918.49 800.42,-1918.31 800.6,-1918.23 800.6,-1918.23 802.15,-1917.54 802.15,-1917.54 802.33,-1917.46 802.72,-1917.3 802.91,-1917.23 802.91,-1917.23 804.7,-1916.54 804.7,-1916.54 804.9,-1916.47 805.29,-1916.33 805.48,-1916.26 805.48,-1916.26 807.53,-1915.58 807.53,-1915.58 807.73,-1915.52 808.12,-1915.4 808.32,-1915.34 808.32,-1915.34 810.62,-1914.68 810.62,-1914.68 810.82,-1914.62 811.22,-1914.51 811.42,-1914.46 811.42,-1914.46 813.96,-1913.82 813.96,-1913.82 814.16,-1913.77 814.56,-1913.67 814.76,-1913.63 814.76,-1913.63 817.54,-1913.01 817.54,-1913.01 817.74,-1912.97 818.15,-1912.88 818.35,-1912.84 818.35,-1912.84 821.35,-1912.26 821.35,-1912.26 821.55,-1912.22 821.96,-1912.15 822.16,-1912.11 822.16,-1912.11 825.38,-1911.56 825.38,-1911.56 825.58,-1911.53 825.99,-1911.46 826.19,-1911.43 826.19,-1911.43 829.61,-1910.92 829.61,-1910.92 829.81,-1910.89 830.22,-1910.84 830.43,-1910.81 830.43,-1910.81 834.03,-1910.34 834.03,-1910.34 834.23,-1910.32 834.64,-1910.27 834.85,-1910.24 834.85,-1910.24 838.62,-1909.82 838.62,-1909.82 838.82,-1909.8 839.23,-1909.76 839.44,-1909.74 839.44,-1909.74 843.36,-1909.36 843.36,-1909.36 843.57,-1909.34 843.98,-1909.31 844.18,-1909.29 844.18,-1909.29 848.24,-1908.97 848.24,-1908.97 848.44,-1908.95 848.86,-1908.92 849.06,-1908.91 849.06,-1908.91 853.23,-1908.63 853.23,-1908.63 853.44,-1908.62 853.85,-1908.6 854.06,-1908.59 854.06,-1908.59 858.32,-1908.37 858.32,-1908.37 858.53,-1908.36 858.94,-1908.34 859.15,-1908.33 859.15,-1908.33 863.49,-1908.16 863.49,-1908.16 863.69,-1908.16 864.1,-1908.14 864.31,-1908.14 864.31,-1908.14 868.7,-1908.03 868.7,-1908.03 868.91,-1908.02 869.32,-1908.01 869.53,-1908.01 869.53,-1908.01 873.96,-1907.96 873.96,-1907.96 874.16,-1907.95 874.58,-1907.95 874.78,-1907.95 874.78,-1907.95 879.22,-1907.95 879.22,-1907.95 879.42,-1907.95 879.84,-1907.95 880.04,-1907.96 880.04,-1907.96 884.47,-1908.01 884.47,-1908.01 884.68,-1908.01 885.09,-1908.02 885.3,-1908.03"/>
<text text-anchor="middle" x="877" y="-1935.45" font-family="Arial" font-size="12.00" fill="#e0e0e0">base_link</text>
<text text-anchor="middle" x="877" y="-1922.45" font-family="Arial" font-size="12.00" fill="#e0e0e0">(robot base frame)</text>
</g>
<!-- tf_odom&#45;&gt;tf_base -->
<g id="edge33" class="edge">
<title>tf_odom&#45;&gt;tf_base</title>
<path fill="none" stroke="#9b59b6" stroke-width="1.5" d="M877,-2033.77C877,-2014.79 877,-1987.78 877,-1966.5"/>
<polygon fill="#9b59b6" stroke="#9b59b6" stroke-width="1.5" points="880.5,-1966.28 877,-1956.28 873.5,-1966.28 880.5,-1966.28"/>
<text text-anchor="middle" x="910" y="-1995.1" font-family="Arial" font-size="10.00" fill="#b0b0b0"> &#160;/odom → /tf</text>
<text text-anchor="middle" x="910" y="-1984.1" font-family="Arial" font-size="10.00" fill="#b0b0b0">(raw odometry)</text>
</g>
<!-- tf_scan -->
<g id="node32" class="node">
<title>tf_scan</title>
<path fill="#2c1e4a" stroke="black" stroke-width="1.5" d="M883.2,-1785.48C883.2,-1785.48 886.2,-1785.58 886.2,-1785.58 886.41,-1785.59 886.82,-1785.61 887.02,-1785.62 887.02,-1785.62 889.99,-1785.77 889.99,-1785.77 890.2,-1785.78 890.61,-1785.81 890.81,-1785.82 890.81,-1785.82 893.73,-1786.03 893.73,-1786.03 893.93,-1786.04 894.34,-1786.08 894.55,-1786.09 894.55,-1786.09 897.39,-1786.35 897.39,-1786.35 897.6,-1786.37 898.01,-1786.41 898.21,-1786.43 898.21,-1786.43 900.97,-1786.73 900.97,-1786.73 901.18,-1786.75 901.59,-1786.8 901.79,-1786.83 901.79,-1786.83 904.45,-1787.17 904.45,-1787.17 904.66,-1787.2 905.07,-1787.26 905.27,-1787.29 905.27,-1787.29 907.82,-1787.68 907.82,-1787.68 908.03,-1787.71 908.43,-1787.78 908.64,-1787.81 908.64,-1787.81 911.07,-1788.24 911.07,-1788.24 911.27,-1788.28 911.67,-1788.35 911.88,-1788.4 911.88,-1788.4 914.17,-1788.86 914.17,-1788.86 914.38,-1788.9 914.78,-1788.99 914.98,-1789.04 914.98,-1789.04 917.13,-1789.54 917.13,-1789.54 917.33,-1789.59 917.73,-1789.68 917.93,-1789.74 917.93,-1789.74 919.93,-1790.27 919.93,-1790.27 920.13,-1790.32 920.53,-1790.43 920.73,-1790.49 920.73,-1790.49 922.57,-1791.05 922.57,-1791.05 922.76,-1791.11 923.16,-1791.24 923.35,-1791.3 923.35,-1791.3 925.02,-1791.88 925.02,-1791.88 925.22,-1791.95 925.61,-1792.09 925.8,-1792.16 925.8,-1792.16 927.3,-1792.75 927.3,-1792.75 927.49,-1792.83 927.87,-1792.99 928.06,-1793.07 928.06,-1793.07 929.39,-1793.67 929.39,-1793.67 929.57,-1793.76 929.95,-1793.94 930.13,-1794.03 930.13,-1794.03 931.28,-1794.63 931.28,-1794.63 931.46,-1794.73 931.82,-1794.93 932,-1795.04 932,-1795.04 932.98,-1795.63 932.98,-1795.63 933.15,-1795.74 933.5,-1795.96 933.67,-1796.08 933.67,-1796.08 934.48,-1796.66 934.48,-1796.66 934.65,-1796.78 934.97,-1797.04 935.13,-1797.17 935.13,-1797.17 935.78,-1797.73 935.78,-1797.73 935.94,-1797.86 936.23,-1798.15 936.38,-1798.29 936.38,-1798.29 936.88,-1798.82 936.88,-1798.82 937.02,-1798.97 937.29,-1799.29 937.41,-1799.45 937.41,-1799.45 937.79,-1799.95 937.79,-1799.95 937.91,-1800.11 938.14,-1800.45 938.24,-1800.63 938.24,-1800.63 938.5,-1801.09 938.5,-1801.09 938.6,-1801.27 938.77,-1801.64 938.85,-1801.84 938.85,-1801.84 939.02,-1802.27 939.02,-1802.27 939.09,-1802.46 939.21,-1802.85 939.25,-1803.06 939.25,-1803.06 939.34,-1803.47 939.34,-1803.47 939.39,-1803.67 939.44,-1804.08 939.45,-1804.28 939.45,-1804.28 939.48,-1804.7 939.48,-1804.7 939.49,-1804.9 939.48,-1805.31 939.46,-1805.52 939.46,-1805.52 939.42,-1805.94 939.42,-1805.94 939.4,-1806.15 939.34,-1806.55 939.29,-1806.75 939.29,-1806.75 939.18,-1807.21 939.18,-1807.21 939.13,-1807.41 939.01,-1807.8 938.93,-1807.99 938.93,-1807.99 938.75,-1808.48 938.75,-1808.48 938.67,-1808.68 938.51,-1809.05 938.41,-1809.24 938.41,-1809.24 938.14,-1809.76 938.14,-1809.76 938.04,-1809.95 937.84,-1810.3 937.72,-1810.48 937.72,-1810.48 937.36,-1811.05 937.36,-1811.05 937.24,-1811.22 937.01,-1811.55 936.88,-1811.72 936.88,-1811.72 936.41,-1812.32 936.41,-1812.32 936.29,-1812.48 936.02,-1812.8 935.88,-1812.95 935.88,-1812.95 935.31,-1813.59 935.31,-1813.59 935.18,-1813.74 934.89,-1814.04 934.74,-1814.18 934.74,-1814.18 934.07,-1814.84 934.07,-1814.84 933.92,-1814.98 933.62,-1815.26 933.46,-1815.4 933.46,-1815.4 932.69,-1816.08 932.69,-1816.08 932.53,-1816.21 932.22,-1816.47 932.06,-1816.6 932.06,-1816.6 931.18,-1817.29 931.18,-1817.29 931.02,-1817.42 930.69,-1817.67 930.53,-1817.79 930.53,-1817.79 929.56,-1818.48 929.56,-1818.48 929.39,-1818.61 929.05,-1818.84 928.88,-1818.95 928.88,-1818.95 927.83,-1819.65 927.83,-1819.65 927.66,-1819.77 927.31,-1819.99 927.13,-1820.09 927.13,-1820.09 926,-1820.79 926,-1820.79 925.82,-1820.9 925.46,-1821.1 925.28,-1821.21 925.28,-1821.21 924.07,-1821.89 924.07,-1821.89 923.89,-1821.99 923.53,-1822.19 923.35,-1822.29 923.35,-1822.29 922.06,-1822.96 922.06,-1822.96 921.88,-1823.06 921.51,-1823.25 921.33,-1823.34 921.33,-1823.34 919.98,-1823.99 919.98,-1823.99 919.8,-1824.09 919.42,-1824.26 919.24,-1824.35 919.24,-1824.35 917.83,-1824.99 917.83,-1824.99 917.64,-1825.07 917.27,-1825.24 917.08,-1825.32 917.08,-1825.32 915.62,-1825.93 915.62,-1825.93 915.43,-1826.01 915.05,-1826.17 914.86,-1826.25 914.86,-1826.25 913.36,-1826.84 913.36,-1826.84 913.16,-1826.91 912.78,-1827.06 912.59,-1827.13 912.59,-1827.13 911.04,-1827.69 911.04,-1827.69 910.85,-1827.76 910.46,-1827.9 910.27,-1827.96 910.27,-1827.96 908.69,-1828.49 908.69,-1828.49 908.49,-1828.56 908.1,-1828.69 907.9,-1828.75 907.9,-1828.75 906.3,-1829.25 906.3,-1829.25 906.1,-1829.31 905.7,-1829.42 905.51,-1829.48 905.51,-1829.48 903.87,-1829.94 903.87,-1829.94 903.67,-1830 903.28,-1830.11 903.08,-1830.16 903.08,-1830.16 901.42,-1830.58 901.42,-1830.58 901.22,-1830.64 900.82,-1830.73 900.62,-1830.78 900.62,-1830.78 898.95,-1831.17 898.95,-1831.17 898.75,-1831.21 898.35,-1831.3 898.14,-1831.34 898.14,-1831.34 896.46,-1831.69 896.46,-1831.69 896.25,-1831.73 895.85,-1831.81 895.65,-1831.85 895.65,-1831.85 893.95,-1832.15 893.95,-1832.15 893.74,-1832.19 893.34,-1832.26 893.13,-1832.29 893.13,-1832.29 891.42,-1832.55 891.42,-1832.55 891.22,-1832.58 890.81,-1832.64 890.61,-1832.67 890.61,-1832.67 888.89,-1832.89 888.89,-1832.89 888.69,-1832.92 888.28,-1832.96 888.07,-1832.98 888.07,-1832.98 886.35,-1833.16 886.35,-1833.16 886.14,-1833.18 885.73,-1833.22 885.53,-1833.24 885.53,-1833.24 883.8,-1833.37 883.8,-1833.37 883.59,-1833.39 883.18,-1833.41 882.98,-1833.42 882.98,-1833.42 881.25,-1833.51 881.25,-1833.51 881.04,-1833.52 880.63,-1833.54 880.42,-1833.54 880.42,-1833.54 878.69,-1833.59 878.69,-1833.59 878.48,-1833.59 878.07,-1833.6 877.87,-1833.6 877.87,-1833.6 876.13,-1833.6 876.13,-1833.6 875.93,-1833.6 875.52,-1833.59 875.31,-1833.59 875.31,-1833.59 873.58,-1833.54 873.58,-1833.54 873.37,-1833.54 872.96,-1833.52 872.75,-1833.51 872.75,-1833.51 871.02,-1833.42 871.02,-1833.42 870.82,-1833.41 870.41,-1833.39 870.2,-1833.37 870.2,-1833.37 868.47,-1833.24 868.47,-1833.24 868.27,-1833.22 867.86,-1833.18 867.65,-1833.16 867.65,-1833.16 865.93,-1832.98 865.93,-1832.98 865.72,-1832.96 865.31,-1832.92 865.11,-1832.89 865.11,-1832.89 863.39,-1832.67 863.39,-1832.67 863.19,-1832.64 862.78,-1832.58 862.58,-1832.55 862.58,-1832.55 860.87,-1832.29 860.87,-1832.29 860.66,-1832.26 860.26,-1832.19 860.05,-1832.15 860.05,-1832.15 858.35,-1831.85 858.35,-1831.85 858.15,-1831.81 857.75,-1831.73 857.54,-1831.69 857.54,-1831.69 855.86,-1831.34 855.86,-1831.34 855.65,-1831.3 855.25,-1831.21 855.05,-1831.17 855.05,-1831.17 853.38,-1830.78 853.38,-1830.78 853.18,-1830.73 852.78,-1830.64 852.58,-1830.58 852.58,-1830.58 850.92,-1830.16 850.92,-1830.16 850.72,-1830.11 850.33,-1830 850.13,-1829.94 850.13,-1829.94 848.49,-1829.48 848.49,-1829.48 848.3,-1829.42 847.9,-1829.31 847.7,-1829.25 847.7,-1829.25 846.1,-1828.75 846.1,-1828.75 845.9,-1828.69 845.51,-1828.56 845.31,-1828.49 845.31,-1828.49 843.73,-1827.96 843.73,-1827.96 843.54,-1827.9 843.15,-1827.76 842.96,-1827.69 842.96,-1827.69 841.41,-1827.13 841.41,-1827.13 841.22,-1827.06 840.84,-1826.91 840.64,-1826.84 840.64,-1826.84 839.14,-1826.25 839.14,-1826.25 838.95,-1826.17 838.57,-1826.01 838.38,-1825.93 838.38,-1825.93 836.92,-1825.32 836.92,-1825.32 836.73,-1825.24 836.36,-1825.07 836.17,-1824.99 836.17,-1824.99 834.76,-1824.35 834.76,-1824.35 834.58,-1824.26 834.2,-1824.09 834.02,-1823.99 834.02,-1823.99 832.67,-1823.34 832.67,-1823.34 832.49,-1823.25 832.12,-1823.06 831.94,-1822.96 831.94,-1822.96 830.65,-1822.29 830.65,-1822.29 830.47,-1822.19 830.11,-1821.99 829.93,-1821.89 829.93,-1821.89 828.72,-1821.21 828.72,-1821.21 828.54,-1821.1 828.18,-1820.9 828,-1820.79 828,-1820.79 826.87,-1820.09 826.87,-1820.09 826.69,-1819.99 826.34,-1819.77 826.17,-1819.65 826.17,-1819.65 825.12,-1818.95 825.12,-1818.95 824.95,-1818.84 824.61,-1818.61 824.44,-1818.48 824.44,-1818.48 823.47,-1817.79 823.47,-1817.79 823.31,-1817.67 822.98,-1817.42 822.82,-1817.29 822.82,-1817.29 821.94,-1816.6 821.94,-1816.6 821.78,-1816.47 821.47,-1816.21 821.31,-1816.08 821.31,-1816.08 820.54,-1815.4 820.54,-1815.4 820.38,-1815.26 820.08,-1814.98 819.93,-1814.84 819.93,-1814.84 819.26,-1814.18 819.26,-1814.18 819.11,-1814.04 818.82,-1813.74 818.69,-1813.59 818.69,-1813.59 818.12,-1812.95 818.12,-1812.95 817.98,-1812.8 817.71,-1812.48 817.59,-1812.32 817.59,-1812.32 817.12,-1811.72 817.12,-1811.72 816.99,-1811.55 816.76,-1811.22 816.64,-1811.05 816.64,-1811.05 816.28,-1810.48 816.28,-1810.48 816.16,-1810.3 815.96,-1809.95 815.86,-1809.76 815.86,-1809.76 815.59,-1809.24 815.59,-1809.24 815.49,-1809.05 815.33,-1808.68 815.25,-1808.48 815.25,-1808.48 815.07,-1807.99 815.07,-1807.99 814.99,-1807.8 814.87,-1807.41 814.82,-1807.21 814.82,-1807.21 814.71,-1806.75 814.71,-1806.75 814.66,-1806.55 814.6,-1806.15 814.58,-1805.94 814.58,-1805.94 814.54,-1805.52 814.54,-1805.52 814.52,-1805.31 814.51,-1804.9 814.52,-1804.7 814.52,-1804.7 814.55,-1804.28 814.55,-1804.28 814.56,-1804.08 814.61,-1803.67 814.66,-1803.47 814.66,-1803.47 814.75,-1803.06 814.75,-1803.06 814.79,-1802.85 814.91,-1802.46 814.98,-1802.27 814.98,-1802.27 815.15,-1801.84 815.15,-1801.84 815.23,-1801.64 815.4,-1801.27 815.5,-1801.09 815.5,-1801.09 815.76,-1800.63 815.76,-1800.63 815.86,-1800.45 816.09,-1800.11 816.21,-1799.95 816.21,-1799.95 816.59,-1799.45 816.59,-1799.45 816.71,-1799.29 816.98,-1798.97 817.12,-1798.82 817.12,-1798.82 817.62,-1798.29 817.62,-1798.29 817.77,-1798.15 818.06,-1797.86 818.22,-1797.73 818.22,-1797.73 818.87,-1797.17 818.87,-1797.17 819.03,-1797.04 819.35,-1796.78 819.52,-1796.66 819.52,-1796.66 820.33,-1796.08 820.33,-1796.08 820.5,-1795.96 820.85,-1795.74 821.02,-1795.63 821.02,-1795.63 822,-1795.04 822,-1795.04 822.18,-1794.93 822.54,-1794.73 822.72,-1794.63 822.72,-1794.63 823.87,-1794.03 823.87,-1794.03 824.05,-1793.94 824.43,-1793.76 824.61,-1793.67 824.61,-1793.67 825.94,-1793.07 825.94,-1793.07 826.13,-1792.99 826.51,-1792.83 826.7,-1792.75 826.7,-1792.75 828.2,-1792.16 828.2,-1792.16 828.39,-1792.09 828.78,-1791.95 828.98,-1791.88 828.98,-1791.88 830.65,-1791.3 830.65,-1791.3 830.84,-1791.24 831.24,-1791.11 831.43,-1791.05 831.43,-1791.05 833.27,-1790.49 833.27,-1790.49 833.47,-1790.43 833.87,-1790.32 834.07,-1790.27 834.07,-1790.27 836.07,-1789.74 836.07,-1789.74 836.27,-1789.68 836.67,-1789.59 836.87,-1789.54 836.87,-1789.54 839.02,-1789.04 839.02,-1789.04 839.22,-1788.99 839.62,-1788.9 839.83,-1788.86 839.83,-1788.86 842.12,-1788.4 842.12,-1788.4 842.33,-1788.35 842.73,-1788.28 842.93,-1788.24 842.93,-1788.24 845.36,-1787.81 845.36,-1787.81 845.57,-1787.78 845.97,-1787.71 846.18,-1787.68 846.18,-1787.68 848.73,-1787.29 848.73,-1787.29 848.93,-1787.26 849.34,-1787.2 849.55,-1787.17 849.55,-1787.17 852.21,-1786.83 852.21,-1786.83 852.41,-1786.8 852.82,-1786.75 853.03,-1786.73 853.03,-1786.73 855.79,-1786.43 855.79,-1786.43 855.99,-1786.41 856.4,-1786.37 856.61,-1786.35 856.61,-1786.35 859.45,-1786.09 859.45,-1786.09 859.66,-1786.08 860.07,-1786.04 860.27,-1786.03 860.27,-1786.03 863.19,-1785.82 863.19,-1785.82 863.39,-1785.81 863.8,-1785.78 864.01,-1785.77 864.01,-1785.77 866.98,-1785.62 866.98,-1785.62 867.18,-1785.61 867.59,-1785.59 867.8,-1785.58 867.8,-1785.58 870.8,-1785.48 870.8,-1785.48 871.01,-1785.47 871.42,-1785.46 871.63,-1785.46 871.63,-1785.46 874.66,-1785.41 874.66,-1785.41 874.86,-1785.4 875.28,-1785.4 875.48,-1785.4 875.48,-1785.4 878.52,-1785.4 878.52,-1785.4 878.72,-1785.4 879.14,-1785.4 879.34,-1785.41 879.34,-1785.41 882.37,-1785.46 882.37,-1785.46 882.58,-1785.46 882.99,-1785.47 883.2,-1785.48"/>
<text text-anchor="middle" x="877" y="-1812.9" font-family="Arial" font-size="12.00" fill="#e0e0e0">lidar_link</text>
<text text-anchor="middle" x="877" y="-1799.9" font-family="Arial" font-size="12.00" fill="#e0e0e0">(scan frame)</text>
</g>
<!-- tf_base&#45;&gt;tf_scan -->
<g id="edge34" class="edge">
<title>tf_base&#45;&gt;tf_scan</title>
<path fill="none" stroke="#9b59b6" stroke-width="1.5" d="M877,-1907.81C877,-1889.63 877,-1864.11 877,-1843.77"/>
<polygon fill="#9b59b6" stroke="#9b59b6" stroke-width="1.5" points="880.5,-1843.67 877,-1833.67 873.5,-1843.67 880.5,-1843.67"/>
<text text-anchor="middle" x="892.5" y="-1875" font-family="Arial" font-size="10.00" fill="#b0b0b0"> &#160;static</text>
</g>
</g>
</svg>
